<svg id="Capa_1" enable-background="new 0 0 512 512" height="512" viewBox="0 0 512 512" width="512" xmlns="http://www.w3.org/2000/svg"><g><path d="m444.998 419.078h-387.652c-3.761 0-7.435-.378-10.993-1.084v59.608c0 2.761 2.239 5 5 5h399.637c2.761 0 5-2.239 5-5v-59.608c-3.557.706-7.23 1.084-10.992 1.084z" fill="#838383"/><g fill="#5a5a5a"><path d="m76.354 477.601v-58.523h-19.008c-3.761 0-7.435-.378-10.993-1.084v59.608c0 2.761 2.239 5 5 5h30c-2.761-.001-4.999-2.239-4.999-5.001z"/><path d="m455.99 417.993c-3.557.706-7.231 1.084-10.992 1.084h10.992z"/></g><path d="m103.921 419.078h294.502v63.523h-294.502z" fill="#fed402"/><path d="m103.921 419.078h31.594v63.523h-31.594z" fill="#fac600"/><path d="m478.628 38.335h-39.808v15h39.808c10.131 0 18.372 8.242 18.372 18.372s-8.241 18.372-18.372 18.372h-17.17v15h17.17c18.401 0 33.372-14.971 33.372-33.372s-14.971-33.372-33.372-33.372z" fill="#5a5a5a"/><g fill="#fed402"><path d="m439.821 74.583v-40.184c0-2.761-2.239-5-5-5h-53.602c-2.761 0-5 2.239-5 5v40.184z"/><path d="m376.219 125.684h63.602v178.97h-63.602z"/></g><g fill="#fac600"><path d="m397.408 74.583v-40.108c0-2.803 2.272-5.076 5.075-5.076h-21.189c-2.803 0-5.075 2.272-5.075 5.076v40.108z"/><path d="m376.219 125.684h21.189v178.97h-21.189z"/></g><path d="m239.101 156.211v31.918c0 4.142 3.358 7.5 7.5 7.5s7.5-3.358 7.5-7.5v-31.918z" fill="#838383"/><path d="m205.562 125.684 7.999 24.617c1.339 4.12 5.178 6.91 9.511 6.91h47.058c4.332 0 8.172-2.79 9.511-6.91l7.999-24.617z" fill="#fed402"/><path d="m245.233 150.197-7.965-24.513h-31.706l7.965 24.513c1.359 4.182 5.256 7.014 9.654 7.014h31.706c-4.398 0-8.295-2.831-9.654-7.014z" fill="#fac600"/><path d="m149.841 304.654v-31.845c0-11.046-8.954-20-20-20h-30.07c-11.046 0-20 8.954-20 20v31.845z" fill="#fe646f"/><path d="m129.771 252.809h-30c-11.046 0-20 8.954-20 20v31.845h30v-31.845c0-11.046 8.955-20 20-20z" fill="#fd4755"/><path d="m281.356 304.654v-31.845c0-11.046-8.954-20-20-20h-30.069c-11.046 0-20 8.954-20 20v31.845z" fill="#fe646f"/><path d="m261.286 252.809h-30c-11.046 0-20 8.954-20 20v31.845h30v-31.845c0-11.046 8.955-20 20-20z" fill="#fd4755"/><path d="m412.871 304.654v-31.845c0-11.046-8.954-20-20-20h-30.069c-11.046 0-20 8.954-20 20v31.845z" fill="#fe646f"/><path d="m392.801 252.809h-30c-11.046 0-20 8.954-20 20v31.845h30v-31.845c0-11.046 8.955-20 20-20z" fill="#fd4755"/><g><path d="m444.133 420.078h-385.922c-32.016 0-58.211-26.196-58.211-58.212 0-32.016 26.195-58.211 58.211-58.211h385.921c32.016 0 58.211 26.195 58.211 58.211.001 32.016-26.194 58.212-58.21 58.212z" fill="#acacac"/></g><path d="m39.994 394.378c-11.37-6.392-19.071-18.565-19.071-32.512 0-13.95 7.705-26.128 19.078-32.522 10.491-15.472 28.215-25.69 48.211-25.69h-30c-32.017.001-58.212 26.196-58.212 58.212 0 32.016 26.195 58.212 58.211 58.212h30c-19.999 0-37.727-10.223-48.217-25.7z" fill="#9c9c9c"/><g><path d="m58.212 391.655c-16.426 0-29.789-13.363-29.789-29.789s13.363-29.789 29.789-29.789h385.921c16.426 0 29.789 13.363 29.789 29.789s-13.363 29.789-29.789 29.789z" fill="#838383"/></g><g><g><circle cx="444.133" cy="361.866" fill="#fed402" r="29.789"/></g></g><g><path d="m435.279 361.866c0-12.767 8.034-23.654 19.321-27.892-3.257-1.223-6.783-1.896-10.468-1.896-16.452 0-29.789 13.337-29.789 29.789s13.337 29.789 29.789 29.789c3.684 0 7.21-.673 10.468-1.896-11.287-4.239-19.321-15.127-19.321-27.894z" fill="#fac600"/></g><g><g><circle cx="444.133" cy="361.866" fill="#fff" r="7.5"/></g></g><g><g><g><circle cx="133.672" cy="361.866" fill="#acacac" r="7.5"/></g></g><g><g><circle cx="180.672" cy="361.866" fill="#acacac" r="7.5"/></g></g><g><g><circle cx="227.672" cy="361.866" fill="#acacac" r="7.5"/></g></g><g><g><circle cx="274.672" cy="361.866" fill="#acacac" r="7.5"/></g></g><g><g><circle cx="321.672" cy="361.866" fill="#acacac" r="7.5"/></g></g><g><g><circle cx="368.672" cy="361.866" fill="#acacac" r="7.5"/></g></g></g><g><path d="m350.721 68.185-15.839-29.889c-1.76-3.321-5.211-5.398-8.969-5.398h-106.363c-22.425 0-40.604 18.179-40.604 40.604v48.106c0 2.803 2.272 5.075 5.075 5.075h273.361c2.803 0 5.075-2.272 5.075-5.075v-42.95c0-2.803-2.272-5.075-5.075-5.075h-97.692c-3.758 0-7.209-2.077-8.969-5.398z" fill="#acacac"/></g><g><path d="m228.601 121.609v-48.106c0-22.425 18.179-40.604 40.604-40.604h-49.655c-22.425 0-40.604 18.179-40.604 40.604v48.106c0 2.803 2.272 5.075 5.075 5.075h49.655c-2.802 0-5.075-2.272-5.075-5.075z" fill="#9c9c9c"/></g><g><g><circle cx="396.074" cy="97.873" fill="#6cf5c2" r="7.5"/></g></g><g><g><circle cx="421.074" cy="97.873" fill="#fff" r="7.5"/></g></g><g><path d="m264.126 93.291h-33.903c-6.867 0-12.486-5.619-12.486-12.486v-.377c0-6.867 5.619-12.486 12.486-12.486h33.903c6.867 0 12.486 5.619 12.486 12.486v.377c0 6.867-5.619 12.486-12.486 12.486z" fill="#6cf5c2"/></g><g><g><circle cx="58.211" cy="361.866" fill="#fed402" r="29.789"/></g></g><g><path d="m49.545 361.866c0-12.732 7.99-23.593 19.228-27.856-3.283-1.246-6.841-1.933-10.561-1.933-16.452 0-29.789 13.337-29.789 29.789s13.337 29.789 29.789 29.789c3.72 0 7.278-.688 10.561-1.933-11.238-4.263-19.228-15.124-19.228-27.856z" fill="#fac600"/></g><g><g><circle cx="58.211" cy="361.866" fill="#fff" r="7.5"/></g></g><g><path d="m370.001 458.117h-32.483c-4.143 0-7.5-3.358-7.5-7.5s3.357-7.5 7.5-7.5h32.483c4.143 0 7.5 3.358 7.5 7.5s-3.357 7.5-7.5 7.5z" fill="#fff"/></g><path d="m481.422 361.866c0-20.561-16.728-37.289-37.289-37.289h-385.922c-20.561 0-37.289 16.728-37.289 37.289 0 20.136 16.047 36.585 36.022 37.256.419.015.836.033 1.267.033h385.921c.431 0 .848-.018 1.267-.033 19.977-.671 36.023-17.12 36.023-37.256zm-400.922 0c0 12.29-9.999 22.289-22.289 22.289s-22.289-9.999-22.289-22.289 9.999-22.289 22.289-22.289 22.289 9.999 22.289 22.289zm7.588-22.289h326.169c-4.654 6.222-7.412 13.939-7.412 22.289s2.759 16.067 7.413 22.289h-326.171c4.654-6.222 7.413-13.939 7.413-22.289s-2.759-16.067-7.412-22.289zm378.334 22.289c0 12.29-9.999 22.289-22.289 22.289s-22.289-9.999-22.289-22.289 9.999-22.289 22.289-22.289 22.289 9.999 22.289 22.289z" fill="#5a5a5a"/></g></svg>