<?xml version="1.0" encoding="iso-8859-1"?>
<!-- Generator: Adobe Illustrator 19.0.0, SVG Export Plug-In . SVG Version: 6.00 Build 0)  -->
<svg version="1.1" id="Capa_1" xmlns="http://www.w3.org/2000/svg" xmlns:xlink="http://www.w3.org/1999/xlink" x="0px" y="0px"
	 viewBox="0 0 512 512" style="enable-background:new 0 0 512 512;" xml:space="preserve">
<path style="fill:#FFB357;" d="M504,510.766H8c-4.418,0-8-3.582-8-8v-288L250.841,3.119c2.98-2.514,7.338-2.514,10.318,0
	L512,214.766v288C512,507.185,508.418,510.766,504,510.766z"/>
<path style="fill:#F3F1F1;" d="M472,38.766H40c-4.418,0-8,3.582-8,8v424c0,4.418,3.582,8,8,8h432c4.418,0,8-3.582,8-8v-424
	C480,42.348,476.418,38.766,472,38.766z"/>
<path style="fill:#E6E3E2;" d="M256,342.766L32,211.456v259.31c0,4.418,3.582,8,8,8h432c4.418,0,8-3.582,8-8v-259.31L256,342.766z"
	/>
<path style="fill:#FFC44F;" d="M3.02,509.021c1.367,1.09,3.096,1.746,4.98,1.746h496c4.418,0,8-3.582,8-8v-288L3.02,509.021z"/>
<path style="fill:#FFB357;" d="M271.984,353.526L3.02,509.021c1.367,1.09,3.096,1.746,4.98,1.746h496c4.418,0,8-3.582,8-8v-10.482
	L271.984,353.526z"/>
<path style="fill:#FFD791;" d="M0,214.766v288c0,4.418,3.582,8,8,8h496c1.884,0,3.613-0.656,4.98-1.746L0,214.766z"/>
<path style="fill:#9CC445;" d="M343.164,97.794C320.635,77.785,289.679,66.766,256,66.766c-68.615,0-124.392,56.019-123.998,124.724
	c0.393,68.424,56.937,123.276,125.362,123.276H260c4.418,0,8-3.582,8-8v-8c0-4.418-3.582-8-8-8h-2.9
	c-55.181,0-100.781-44.235-101.098-99.416C155.683,135.944,200.665,90.766,256,90.766c58.879,0,100,37.832,100,92
	c0,43.709-30.257,55.603-48,58.819V130.766c0-4.418-3.582-8-8-8h-8c-4.418,0-8,3.582-8,8v9.481c-8.089-5.99-17.695-9.481-28-9.481
	c-28.673,0-52,26.916-52,60s23.327,60,52,60c10.305,0,19.911-3.491,28-9.481v13.481c0,6.627,5.373,12,12,12
	c4.382,0,27.308-0.667,48.36-13.824C360.619,242.78,380,222.357,380,182.766C380,149.067,366.918,118.89,343.164,97.794z
	 M256,226.766c-15.439,0-28-16.149-28-36s12.561-36,28-36s28,16.149,28,36S271.439,226.766,256,226.766z"/>
<g>
</g>
<g>
</g>
<g>
</g>
<g>
</g>
<g>
</g>
<g>
</g>
<g>
</g>
<g>
</g>
<g>
</g>
<g>
</g>
<g>
</g>
<g>
</g>
<g>
</g>
<g>
</g>
<g>
</g>
</svg>
