<svg id="Capa_1" enable-background="new 0 0 512 512" height="512" viewBox="0 0 512 512" width="512" xmlns="http://www.w3.org/2000/svg"><g><path d="m432.911 512h-35.382v-512h35.382c9.771 0 17.691 7.921 17.691 17.691v476.618c0 9.77-7.921 17.691-17.691 17.691z" fill="#f1f4f6"/><path d="m397.528 512h-294.504v-512h294.504c9.77 0 17.691 7.921 17.691 17.691v476.618c.001 9.77-7.92 17.691-17.691 17.691z" fill="#ffe07d"/><path d="m390.244 0v512h7.285c9.77 0 17.691-7.921 17.691-17.691v-476.618c0-9.77-7.921-17.691-17.692-17.691z" fill="#ffd064"/><path d="m165.463 156.202v-83.461c0-5.69 4.612-10.302 10.302-10.302h166.713c5.69 0 10.302 4.612 10.302 10.302v83.461c0 5.69-4.612 10.302-10.302 10.302h-166.713c-5.689 0-10.302-4.612-10.302-10.302z" fill="#f6f9f9"/><path d="m103.024 512h-31.324c-5.69 0-10.302-4.612-10.302-10.302v-491.396c0-5.69 4.613-10.302 10.302-10.302h31.324z" fill="#ebb044"/><path d="m443.207 124.972-27.987 8.232v-104.066l27.987 8.232c4.384 1.289 7.395 5.313 7.395 9.883v67.836c0 4.57-3.011 8.593-7.395 9.883z" fill="#cbe2ff"/><path d="m443.207 229.037-27.987 8.232v-104.066l27.987 8.232c4.384 1.29 7.395 5.313 7.395 9.883v67.836c0 4.57-3.011 8.593-7.395 9.883z" fill="#e28086"/><path d="m443.207 333.102-27.987 8.232v-104.066l27.987 8.232c4.384 1.289 7.395 5.313 7.395 9.883v67.836c0 4.57-3.011 8.593-7.395 9.883z" fill="#aaddb4"/><g><g><path d="m319.48 105.547h-66.602c-4.268 0-7.726-3.459-7.726-7.726s3.459-7.726 7.726-7.726h66.602c4.268 0 7.726 3.459 7.726 7.726s-3.459 7.726-7.726 7.726z" fill="#665e66"/></g><g><path d="m219.577 105.547h-20.813c-4.268 0-7.726-3.459-7.726-7.726s3.459-7.726 7.726-7.726h20.813c4.268 0 7.726 3.459 7.726 7.726.001 4.267-3.458 7.726-7.726 7.726z" fill="#665e66"/></g><g><path d="m319.48 138.848h-120.715c-4.268 0-7.726-3.459-7.726-7.726s3.459-7.726 7.726-7.726h120.715c4.268 0 7.726 3.459 7.726 7.726s-3.459 7.726-7.726 7.726z" fill="#665e66"/></g></g><g><path d="m250.198 453.125h-77.008c-4.268 0-7.726-3.459-7.726-7.726s3.459-7.726 7.726-7.726h77.008c4.268 0 7.726 3.459 7.726 7.726 0 4.266-3.459 7.726-7.726 7.726z" fill="#e28086"/></g><g><path d="m204.409 486.426h-31.219c-4.268 0-7.726-3.459-7.726-7.726s3.459-7.726 7.726-7.726h31.219c4.268 0 7.726 3.459 7.726 7.726 0 4.266-3.458 7.726-7.726 7.726z" fill="#e28086"/></g><g><path d="m250.198 419.824h-77.008c-4.268 0-7.726-3.459-7.726-7.726s3.459-7.726 7.726-7.726h77.008c4.268 0 7.726 3.459 7.726 7.726s-3.459 7.726-7.726 7.726z" fill="#e28086"/></g></g></svg>