<svg id="Layer_1" enable-background="new 0 0 512 512" height="512" viewBox="0 0 512 512" width="512" xmlns="http://www.w3.org/2000/svg"><g><g><path d="m223.395 441.055v28.268l18.669 9.284 18.67-9.284v-31.069l-18.423-7.189z" fill="#d5e0f2"/><path d="m223.61 422.488c.024 0-.038 0-.062 0-.051 0-.102-.002-.153-.002v18.568c.051 0 .102.002.153.002h.062c12.547-.001 24.947-.953 37.124-2.803v-18.569l-18.423-7.189c0 .001-18.916 9.991-18.701 9.993z" fill="#bdcde5"/><path d="m395.843 6.349c-2.761-2.762-6.507-4.313-10.413-4.313s-7.652 1.551-10.413 4.313l-35.987 35.987.166 19.63 20.67 1.186 25.215-25.215c34.113 39.039 52.742 88.499 52.754 140.819.014 57.251-22.267 111.069-62.739 151.541-40.46 40.46-94.256 62.738-151.487 62.738-.018 0-.037 0-.055 0-52.319-.012-101.78-18.642-140.818-52.754l25.225-25.225-2.25-16.131-18.586-4.685-35.977 35.976c-.36.359-.699.736-1.016 1.127 0 0-.138 3.537.532 6.792.788 3.826 2.991 7.466 5.753 10.227 46.055 46.056 102.013 64.824 167.131 64.841h.062c65.094-.003 126.292-25.345 172.313-71.365 46.036-46.036 71.382-97.969 71.365-163.09-.001-3.083-.058-6.157-.172-9.222-2.294-61.659-27.398-119.302-71.273-163.177z" fill="#e4eef9"/><g><path d="m395.922 332.555c-46.02 46.02-107.219 71.362-172.313 71.365-.024 0-.038 0-.062 0-65.118-.016-126.344-25.389-172.399-71.445-.36-.359-.696-.737-1.014-1.129-2.123 2.613-3.299 5.887-3.299 9.284 0 3.906 1.551 7.651 4.313 10.413 46.055 46.056 107.281 71.429 172.399 71.445h.062c65.094-.003 126.292-25.345 172.313-71.365 46.036-46.037 71.382-107.254 71.365-172.375-.001-3.084-.077-6.156-.191-9.221-2.292 61.614-27.347 119.201-71.174 163.028z" fill="#d5e0f2"/></g><ellipse cx="223.496" cy="178.697" fill="#86dcff" rx="178.784" ry="178.697"/><path d="m44.713 178.697c0-3.114.08-6.21.237-9.284 2.063-40.287 17.476-77.051 41.903-105.957l217.177-44.343c39.232 19.818 70.163 53.664 86.193 94.941 6.728 17.325 5.725 109.796-5.574 131.54-28.874 55.569-90.185 102.515-161.154 102.515-98.738 0-178.782-90.874-178.782-169.412z" fill="#86dcff"/><path d="m304.026 19.121c-24.203-12.226-51.559-19.121-80.53-19.121-54.804 0-103.838 24.655-136.634 63.464 8.839 18.593 24.885 37.619 53.085 33.887 52.927-7.005 76.278-.778 77.056 28.799s17.902 58.091 48.257 58.091-3.023-38.088 5.538-51.874c8.562-13.786 34.556-11.085 39.606-28.188 6.175-20.914-35.804-36.404-19.459-55.084 5.953-6.804 10.149-18.215 13.081-29.974z" fill="#67b734"/><path d="m145.389 266.179c24.191-7.768 8.251-37.838 27.007-47.202 18.755-9.364 28.238-23.096 5.967-51.84-20.518-26.482-44.054-36.737-69.053-24.844-26.538 12.625-43.363 40.951-23.966 51.975 15.73 8.939 35.343 14.339 26.818 35.403-8.525 21.063 9.011 44.284 33.227 36.508z" fill="#67b734"/><g fill="#56caed"><path d="m155.101 325.273c-62.092-25.72-106.542-85.396-110.15-155.861-.158 3.075-.238 6.17-.238 9.284 0 75.619 46.994 140.266 113.382 166.361l5.107-8.987z"/><path d="m381.253 244.266c-10.656 19.914-24.977 37.576-42.06 52.085l-4.613 14.144s7.897 1.583 7.889 1.516c-.003-.023.03.032.047.016 19.857-17.721 35.721-39.811 46.105-64.753l-1.961-6.263z"/></g><path d="m371.18 150.663c-7.684 18.142-36.364 9.053-41.078 41.753-3.426 23.766 27.493 41.726 51.15 51.851l5.271-3.172s15.757-38.098 15.757-62.397c0-22.797-4.279-44.592-12.065-64.64-9.757 10.014-14.266 25.346-19.035 36.605z" fill="#67b734"/><path d="m354.37 502.716h-224.612l-9.23-9.285c.866-13.46 12.057-24.108 25.736-24.108h191.602c13.678 0 24.869 10.649 25.736 24.108z" fill="#2d4456"/><path d="m120.535 493.431c-.023.36-.042 8.035-.052 13.403-.005 2.852 2.306 5.165 5.158 5.165h232.847c2.852 0 5.163-2.313 5.158-5.165-.01-5.368-.029-13.043-.052-13.403z" fill="#253847"/><path d="m334.579 310.495 4.616-14.145c-15.452-55.942-61.647-59.384-80.491-49.14-21.23 11.542-13.232 42.031-35.212 52.927-21.98 10.897-44.958-25.685-62.859 3.892-3.957 6.538-5.518 13.837-5.549 21.241l10.632 11.93c20.256 7.962 34.695 10.909 57.779 10.909 45.694 0 79.478-9.424 111.084-37.614z" fill="#67b734"/><g fill="#549e25"><path d="m223.496 338.825c-24.228 0-47.325-4.827-68.395-13.555-.028 6.671 1.171 13.425 2.994 19.787 20.256 7.962 42.317 12.336 65.401 12.336 45.693 0 87.375-17.142 118.981-45.332-.839-5.647-1.948-10.873-3.284-15.71-31.184 26.485-71.569 42.474-115.697 42.474z"/><path d="m381.251 244.265c2.562 1.096 5.04 2.102 7.378 3.012 8.789-21.119 13.65-44.281 13.65-68.581 0-3.095-.086-6.171-.242-9.227-1.387 26.943-8.754 52.304-20.786 74.796z"/></g></g></g></svg>