<svg id="Capa_1" enable-background="new 0 0 500.854 500.854" height="512" viewBox="0 0 500.854 500.854" width="512" xmlns="http://www.w3.org/2000/svg"><path d="m445.629 346.095-101.538-73.576c-22.506-16.308-52.584-17.573-76.38-3.212l-68.309 41.227-79.933 54.244 26.224 38.688 157.255 39.366 135.578-50.992 45.649-27.062z" fill="#fccd7f"/><path d="m166.01 385.113 79.933-54.245 68.309-41.227c12.268-7.404 26.205-10.644 39.915-9.821l-10.077-7.301c-22.506-16.309-52.584-17.573-76.38-3.212l-68.309 41.227-79.933 54.244 26.224 38.688 39.454 9.876z" fill="#fbc56d"/><g><g id="XMLID_305_"><g><path d="m430.573 335.185-26.841 15.619c-5.21 3.032-11.77 1.912-15.837-2.536-3.281-3.588-6.972-6.829-11.03-9.666-11.219-7.819-24.366-11.952-38.02-11.952h-59.089l-.15-.15c-15.938-15.939-36.127-26.078-58.007-29.362l-22.197 13.397-79.933 54.244 26.224 38.688 157.255 39.366 135.578-50.992 45.649-27.062-38.544-18.684z" fill="#fbc56d"/><path d="m386.074 380.75 81.16-47.23c3.52-2.05 7.4-3.04 11.24-3.04 6.53 0 12.95 2.85 17.32 8.21 8.04 9.82 6.3 24.34-3.81 32l-120.96 91.5c-12.58 9.51-27.92 14.66-43.69 14.66h-24.05c-9.59 0-19.08-1.91-27.93-5.61l-88.92-37.18-141.19.75v-96.29h96.99c16.36-16.36 38.55-25.55 61.68-25.55h2c23.13 0 45.31 9.19 61.67 25.55l5.14 5.13h66.12c10.37 0 20.18 3.24 28.3 8.9 8.11 5.67 14.53 13.78 18.1 23.51.55 1.5.83 3.09.83 4.69z" fill="#fed2a4"/><path d="m495.014 337.787c-.909.996-1.916 1.927-3.03 2.771l-120.96 91.5c-12.58 9.51-27.92 14.66-43.69 14.66h-24.05c-9.59 0-19.08-1.91-27.93-5.61l-88.92-37.18-141.19.75v30.131l141.19-.75 88.92 37.18c8.85 3.7 18.34 5.61 27.93 5.61h24.05c15.77 0 31.11-5.15 43.69-14.66l120.96-91.5c10.11-7.66 11.85-22.18 3.81-32-.252-.309-.514-.609-.78-.902z" fill="#ffbd86"/></g><path d="m380.649 386.738.901-.941c1.571-1.635 3.065-3.346 4.522-5.089-.005-1.585-.283-3.161-.828-4.647-1.491-4.064-3.486-7.842-5.888-11.281-2.585 3.764-5.467 7.338-8.627 10.629l-.918.958c-2.912 3.043-5.924 6.189-8.934 8.541-2.939 2.296-6.739 3.561-10.7 3.561h-61.486c-4.143 0-7.5 3.357-7.5 7.5s3.357 7.5 7.5 7.5h61.486c7.291 0 14.37-2.394 19.935-6.74 3.864-3.021 7.409-6.724 10.537-9.991z" fill="#ffbd86"/></g></g><path d="m83.994 455.107h-76.494v-137.637h76.494c8.75 0 15.844 7.094 15.844 15.844v105.95c0 8.75-7.094 15.843-15.844 15.843z" fill="#60b7ff"/><g><path d="m7.5 476.79c-4.143 0-7.5-3.357-7.5-7.5v-154.899c0-4.143 3.357-7.5 7.5-7.5s7.5 3.357 7.5 7.5v154.899c0 4.142-3.357 7.5-7.5 7.5z" fill="#26a6fe"/></g><path d="m411.71 24.004h-39.271c-34.439 0-67.038 15.546-88.715 42.308-7.574 9.351-10.68 21.547-8.5 33.382 2.794 15.17 13.832 27.506 28.599 31.964l6.184 1.867 12.44 14.083c11.216 12.698 27.702 19.454 44.603 18.28 14-.972 26.541-9.007 33.276-21.319 12.973-23.714 19.772-50.31 19.772-77.34v-34.836c.001-4.633-3.755-8.389-8.388-8.389z" fill="#97da7b"/><g><path d="m296.128 114.113c-2.18-11.834.925-24.03 8.5-33.381 21.677-26.762 54.276-42.308 88.715-42.308h26.756v-6.031c0-4.633-3.756-8.388-8.388-8.388h-39.271c-34.439 0-67.038 15.546-88.715 42.308-7.574 9.351-10.68 21.547-8.5 33.382 2.794 15.169 13.832 27.506 28.599 31.964l.124.038c-3.887-5.074-6.619-11.064-7.82-17.584z" fill="#80d261"/></g><g><path d="m302.946 266.11c-4.143 0-7.5-3.357-7.5-7.5v-88.037c0-15.575 3.831-31.095 11.079-44.883l12.002-22.829c.029-.055.059-.109.089-.163 15.119-27.106 39.307-48.409 68.105-59.986 3.837-1.542 8.21.317 9.756 4.162 1.545 3.843-.318 8.211-4.162 9.756-25.597 10.289-47.099 29.214-60.555 53.295l-11.958 22.746c-6.121 11.643-9.356 24.75-9.356 37.902v88.037c0 4.143-3.357 7.5-7.5 7.5z" fill="#68ca44"/></g><path d="m211.738 174.035h-10.889c-22.764 0-41.219-18.454-41.219-41.219v-38.574c0-1.46 1.184-2.644 2.644-2.644h49.464c22.765 0 41.219 18.454 41.219 41.219 0 22.764-18.454 41.218-41.219 41.218z" fill="#97da7b"/><path d="m183.219 132.817v-38.575c0-1.46 1.184-2.644 2.644-2.644h-23.588c-1.46 0-2.644 1.184-2.644 2.644v38.575c0 22.765 18.454 41.219 41.219 41.219h10.889c2.16 0 4.28-.168 6.35-.488-19.751-3.054-34.87-20.126-34.87-40.731z" fill="#80d261"/><g><path d="m302.946 229.024c-4.143 0-7.5-3.357-7.5-7.5 0-21.479-11.693-41.248-30.516-51.594l-69.142-38.001c-3.63-1.995-4.955-6.555-2.96-10.185 1.995-3.631 6.557-4.955 10.185-2.96l69.142 38.001c23.619 12.98 38.291 37.787 38.291 64.738 0 4.144-3.357 7.501-7.5 7.501z" fill="#68ca44"/></g></svg>