<svg id="Capa_1" enable-background="new 0 0 512 512" height="512" viewBox="0 0 512 512" width="512" xmlns="http://www.w3.org/2000/svg"><g><g><path clip-rule="evenodd" d="m230.907 20.149c-9.428 2.395-18.329 6.132-26.498 10.951l-7.671-7.622c-3.66-3.65-9.633-3.65-13.264 0l-22.194 22.136c-3.66 3.621-3.66 9.578 0 13.229l7.671 7.651c-4.86 8.147-8.608 17.025-11.009 26.428h-10.834c-5.153 0-9.37 4.234-9.37 9.374v31.305c0 5.14 4.216 9.345 9.37 9.345h10.834c2.401 9.432 6.149 18.31 11.009 26.457l-7.671 7.622c-3.66 3.65-3.66 9.607 0 13.258l22.194 22.135c3.631 3.621 9.604 3.621 13.264 0l7.671-7.651c8.169 4.848 17.07 8.556 26.498 10.951v10.805c0 5.14 4.246 9.374 9.399 9.374h31.388c5.153 0 9.37-4.234 9.37-9.374v-10.805c9.457-2.395 18.358-6.103 26.528-10.951l7.671 7.651c3.631 3.621 9.604 3.621 13.264 0l22.194-22.135c3.631-3.65 3.631-9.607 0-13.258l-7.671-7.622c4.86-8.147 8.579-17.025 11.009-26.457h10.804c5.183 0 9.399-4.205 9.399-9.345v-31.305c0-5.14-4.216-9.374-9.399-9.374h-10.804c-2.43-9.403-6.149-18.28-11.009-26.428l7.671-7.651c3.631-3.65 3.631-9.608 0-13.229l-22.194-22.135c-3.66-3.65-9.633-3.65-13.264 0l-7.671 7.651c-8.169-4.848-17.07-8.585-26.528-10.98v-10.805c0-5.14-4.216-9.345-9.37-9.345h-31.388c-5.153 0-9.399 4.205-9.399 9.345z" fill="#737a93" fill-rule="evenodd"/></g><g><path clip-rule="evenodd" d="m336.315 250.875c-6.207 0-11.273 5.052-11.273 11.243v45.614 45.584l56.979 18.251 56.979-18.251v-45.584-45.614c0-6.191-5.065-11.243-11.243-11.243-30.54 0-60.904 0-91.442 0z" fill="#fdb440" fill-rule="evenodd"/></g><g><path clip-rule="evenodd" d="m186.958 307.731v-45.614c0-6.191-5.065-11.243-11.273-11.243-30.539 0-60.902 0-91.441 0-6.178 0-11.273 5.052-11.273 11.243v45.614 45.584l48.546 17.521 65.44-17.521v-45.584z" fill="#fdb440" fill-rule="evenodd"/></g><g><path clip-rule="evenodd" d="m151.383 278.179v-27.304h-42.836v27.304c0 2.424 2.02 4.439 4.451 4.439h33.935c2.459 0 4.45-2.015 4.45-4.439z" fill="#e8eaea" fill-rule="evenodd"/></g><g><path clip-rule="evenodd" d="m403.453 278.179v-27.304h-42.836v27.304c0 2.424 1.991 4.439 4.451 4.439h33.935c2.43 0 4.45-2.015 4.45-4.439z" fill="#e8eaea" fill-rule="evenodd"/></g><g><path clip-rule="evenodd" d="m178.818 469.978-53.172-19.565-52.674 19.565v37.174c0 2.657 2.196 4.848 4.86 4.848h96.126c2.664 0 4.86-2.19 4.86-4.848z" fill="#e8eaea" fill-rule="evenodd"/></g><g><path clip-rule="evenodd" d="m438.999 469.978-47.902-19.565-57.916 19.565v37.174c0 2.657 2.167 4.848 4.86 4.848h96.126c2.664 0 4.831-2.19 4.831-4.848v-37.174z" fill="#e8eaea" fill-rule="evenodd"/></g><g><path clip-rule="evenodd" d="m186.958 353.316h-113.986c-32.149 0-58.472 26.253-58.472 58.346 0 32.064 26.323 58.317 58.472 58.317h105.847 154.363 105.817c32.179 0 58.501-26.253 58.501-58.317 0-32.093-26.323-58.346-58.501-58.346h-113.957-85.995z" fill="#737a93" fill-rule="evenodd"/></g><g><path clip-rule="evenodd" d="m108.43 411.662c0-13.871-11.273-25.114-25.181-25.114-13.879 0-25.151 11.243-25.151 25.114 0 13.842 11.273 25.085 25.151 25.085 13.908-.001 25.181-11.244 25.181-25.085z" fill="#e8eaea" fill-rule="evenodd"/></g><g><path clip-rule="evenodd" d="m169.625 436.746c13.908 0 25.181-11.243 25.181-25.085 0-13.871-11.273-25.114-25.181-25.114s-25.181 11.243-25.181 25.114c0 13.842 11.273 25.085 25.181 25.085z" fill="#e8eaea" fill-rule="evenodd"/></g><g><path clip-rule="evenodd" d="m256 436.746c13.908 0 25.181-11.243 25.181-25.085 0-13.871-11.273-25.114-25.181-25.114s-25.181 11.243-25.181 25.114c0 13.842 11.273 25.085 25.181 25.085z" fill="#e8eaea" fill-rule="evenodd"/></g><g><path clip-rule="evenodd" d="m367.556 411.662c0-13.871-11.273-25.114-25.181-25.114s-25.181 11.243-25.181 25.114c0 13.842 11.273 25.085 25.181 25.085 13.908-.001 25.181-11.244 25.181-25.085z" fill="#e8eaea" fill-rule="evenodd"/></g><g><path clip-rule="evenodd" d="m453.902 411.662c0-13.871-11.273-25.114-25.181-25.114s-25.181 11.243-25.181 25.114c0 13.842 11.273 25.085 25.181 25.085 13.909-.001 25.181-11.244 25.181-25.085z" fill="#e8eaea" fill-rule="evenodd"/></g><g><path clip-rule="evenodd" d="m186.958 353.316v-45.584-45.614c0-6.191-5.065-11.243-11.273-11.243-7.027 0-14.025 0-21.023 0 6.207 0 11.273 5.052 11.273 11.243v45.614 45.584z" fill="#fe9737" fill-rule="evenodd"/></g><g><path clip-rule="evenodd" d="m438.999 353.316v-45.584-45.614c0-6.191-5.065-11.243-11.243-11.243-7.027 0-14.025 0-21.052 0 6.207 0 11.273 5.052 11.273 11.243v45.614 45.584z" fill="#fe9737" fill-rule="evenodd"/></g><g><path clip-rule="evenodd" d="m151.383 278.179v-27.304h-14.903v27.304c0 2.424-1.962 4.41-4.392 4.439h14.845c2.459 0 4.45-2.015 4.45-4.439z" fill="#d4d6d8" fill-rule="evenodd"/></g><g><path clip-rule="evenodd" d="m403.453 278.179v-27.304h-14.903v27.304c0 2.424-1.991 4.41-4.421 4.439h14.874c2.43 0 4.45-2.015 4.45-4.439z" fill="#d4d6d8" fill-rule="evenodd"/></g><g><path clip-rule="evenodd" d="m108.43 411.662c0-13.871-11.273-25.114-25.181-25.114-3.367 0-6.617.642-9.575 1.869 9.165 3.767 15.606 12.732 15.606 23.245 0 10.484-6.442 19.449-15.606 23.216 2.957 1.226 6.207 1.869 9.575 1.869 13.908-.001 25.181-11.244 25.181-25.085z" fill="#cecece" fill-rule="evenodd"/></g><g><path clip-rule="evenodd" d="m194.805 411.662c0-13.871-11.273-25.114-25.181-25.114-3.396 0-6.617.642-9.574 1.869 9.165 3.767 15.606 12.732 15.606 23.245 0 10.484-6.442 19.449-15.606 23.216 2.957 1.226 6.178 1.869 9.574 1.869 13.908-.001 25.181-11.244 25.181-25.085z" fill="#d4d6d8" fill-rule="evenodd"/></g><g><path clip-rule="evenodd" d="m281.181 411.662c0-13.871-11.273-25.114-25.181-25.114-3.396 0-6.617.642-9.574 1.869 9.135 3.767 15.606 12.732 15.606 23.245 0 10.484-6.471 19.449-15.606 23.216 2.957 1.226 6.178 1.869 9.574 1.869 13.908-.001 25.181-11.244 25.181-25.085z" fill="#d4d6d8" fill-rule="evenodd"/></g><g><path clip-rule="evenodd" d="m367.556 411.662c0-13.871-11.273-25.114-25.181-25.114-3.396 0-6.647.642-9.575 1.869 9.135 3.767 15.577 12.732 15.577 23.245 0 10.484-6.442 19.449-15.577 23.216 2.928 1.226 6.178 1.869 9.575 1.869 13.908-.001 25.181-11.244 25.181-25.085z" fill="#d4d6d8" fill-rule="evenodd"/></g><g><path clip-rule="evenodd" d="m453.902 411.662c0-13.871-11.273-25.114-25.181-25.114-3.367 0-6.617.642-9.574 1.869 9.165 3.767 15.606 12.732 15.606 23.245 0 10.484-6.442 19.449-15.606 23.216 2.957 1.226 6.207 1.869 9.574 1.869 13.909-.001 25.181-11.244 25.181-25.085z" fill="#d4d6d8" fill-rule="evenodd"/></g><g><path clip-rule="evenodd" d="m178.818 507.152v-37.174h-28.372v37.174c0 2.628-2.167 4.818-4.802 4.848h28.314c2.664 0 4.86-2.19 4.86-4.848z" fill="#d4d6d8" fill-rule="evenodd"/></g><g><path clip-rule="evenodd" d="m438.999 507.152v-37.174h-28.372v37.174c0 2.628-2.167 4.818-4.802 4.848h28.343c2.664 0 4.831-2.19 4.831-4.848z" fill="#d4d6d8" fill-rule="evenodd"/></g><g><path clip-rule="evenodd" d="m196.093 117.947c0 32.969 26.82 59.718 59.907 59.718s59.877-26.749 59.877-59.718c0-32.998-26.791-59.747-59.877-59.747s-59.907 26.749-59.907 59.747z" fill="#e8eaea" fill-rule="evenodd"/></g><g><path clip-rule="evenodd" d="m275.94 108.836c0 24.909-4.07 48.213-11.126 68.187 28.899-4.234 51.064-29.085 51.064-59.076 0-28.034-19.325-51.542-45.442-57.995 3.542 15.156 5.504 31.655 5.504 48.884z" fill="#d4d6d8" fill-rule="evenodd"/></g><g><path clip-rule="evenodd" d="m270.435 59.952c26.118 6.454 45.442 29.961 45.442 57.995 0 29.991-22.165 54.842-51.064 59.076-7.906 22.34-19.588 40.474-33.555 52.009 1.113 3.942 4.743 6.862 9.047 6.862h31.388c5.153 0 9.37-4.234 9.37-9.374v-10.805c12.561-3.183 17.89-8.702 23.307-9.111 3.133-.263 6.266 1.197 10.892 5.811 3.631 3.621 9.604 3.621 13.264 0l22.194-22.135c3.631-3.65 3.631-9.607 0-13.258l-7.671-7.622c4.86-8.147 8.579-17.025 11.009-26.457h10.804c5.183 0 9.399-4.205 9.399-9.345v-31.305c0-5.14-4.216-9.374-9.399-9.374h-10.804c-2.43-9.403-6.149-18.28-11.009-26.428l7.671-7.651c3.631-3.65 3.631-9.608 0-13.229l-22.194-22.135c-3.66-3.65-9.633-3.65-13.264 0l-7.671 7.651c-8.169-4.848-17.07-8.585-26.528-10.98v-10.802c0-5.11-4.187-9.315-9.311-9.345h-.059-29.163c12.445 14.951 22.225 35.714 27.905 59.952z" fill="#606b82" fill-rule="evenodd"/></g><g><path clip-rule="evenodd" d="m497.5 411.662c0-32.093-26.323-58.346-58.501-58.346h-21.023-23.804c9.282 0 18.066 2.19 25.883 6.074 16.338 8.118 28.401 23.624 31.681 42.051 1.405 3.125 2.167 6.57 2.167 10.221 0 3.621-.761 7.067-2.167 10.192-3.162 17.755-14.464 32.794-29.865 41.117-8.228 4.468-17.626 6.979-27.582 7.008h.029 16.309 28.372c32.178-.001 58.501-26.253 58.501-58.317z" fill="#606b82" fill-rule="evenodd"/></g></g></svg>