<svg id="Layer_3" enable-background="new 0 0 64 64" height="512" viewBox="0 0 64 64" width="512" xmlns="http://www.w3.org/2000/svg"><g fill="#4d5d7a"><path d="m19.275 41.25h4.95v2h-4.95z" transform="matrix(.707 -.707 .707 .707 -23.505 27.754)"/><path d="m41 39.172h2v5.657h-2z" transform="matrix(.707 -.707 .707 .707 -17.397 42)"/><path d="m39.172 21h5.657v2h-5.657z" transform="matrix(.707 -.707 .707 .707 -3.255 36.142)"/><path d="m21 19.172h2v5.657h-2z" transform="matrix(.707 -.707 .707 .707 -9.113 22)"/></g><circle cx="32" cy="32" fill="#3d98f7" r="12"/><circle cx="32" cy="32" fill="#4d5d7a" r="12"/><path d="m34 43.82c1.437-.242 2.785-.735 4-1.439v-14.381h-4z" fill="#78b75b"/><path d="m26 42.381c1.215.704 2.563 1.197 4 1.439v-7.82h-4z" fill="#78b75b"/><path d="m30 43.82c.652.11 1.317.18 2 .18s1.348-.07 2-.18v-11.82h-4z" fill="#669e4f"/><circle cx="13" cy="51" fill="#e47c6e" r="11"/><circle cx="51" cy="51" fill="#e47c6e" r="11"/><circle cx="13" cy="13" fill="#e47c6e" r="11"/><circle cx="51" cy="13" fill="#e47c6e" r="11"/><path d="m20 58h-14v-2c0-2.209 1.791-4 4-4h6c2.209 0 4 1.791 4 4z" fill="#4472b2"/><path d="m58 58h-14v-2c0-2.209 1.791-4 4-4h6c2.209 0 4 1.791 4 4z" fill="#4472b2"/><path d="m20 20h-14v-2c0-2.209 1.791-4 4-4h6c2.209 0 4 1.791 4 4z" fill="#4472b2"/><path d="m58 20h-14v-2c0-2.209 1.791-4 4-4h6c2.209 0 4 1.791 4 4z" fill="#4472b2"/><path d="m13 52c-1.657 0-3-1.343-3-3v-2c0-1.657 1.343-3 3-3 1.657 0 3 1.343 3 3v2c0 1.657-1.343 3-3 3z" fill="#efbe9a"/><path d="m51 52c-1.657 0-3-1.343-3-3v-2c0-1.657 1.343-3 3-3 1.657 0 3 1.343 3 3v2c0 1.657-1.343 3-3 3z" fill="#efbe9a"/><path d="m13 14c-1.657 0-3-1.343-3-3v-2c0-1.657 1.343-3 3-3 1.657 0 3 1.343 3 3v2c0 1.657-1.343 3-3 3z" fill="#efbe9a"/><path d="m51 14c-1.657 0-3-1.343-3-3v-2c0-1.657 1.343-3 3-3 1.657 0 3 1.343 3 3v2c0 1.657-1.343 3-3 3z" fill="#efbe9a"/></svg>