<svg height="512pt" viewBox="-38 0 512 512" width="512pt" xmlns="http://www.w3.org/2000/svg"><path d="m56.066406 18.667969h323.539063v278.1875h-323.539063zm0 0" fill="#f9b200"/><path d="m251.191406 296.855469h-66.671875c6.058594-12.289063 18.730469-20.765625 33.335938-20.765625 14.609375 0 27.269531 8.476562 33.335937 20.765625zm0 0" fill="#f80"/><path d="m87.566406 288.234375v8.625h-31.503906v-31.738281h8.394531c12.742188 0 23.109375 10.371094 23.109375 23.113281zm0 0" fill="#f80"/><path d="m379.605469 265.121094v31.738281h-31.503907v-8.625c0-12.742187 10.367188-23.113281 23.109376-23.113281zm0 0" fill="#f80"/><path d="m87.566406 18.667969v8.625c0 12.742187-10.367187 23.109375-23.109375 23.109375h-8.394531v-31.734375zm0 0" fill="#f80"/><path d="m379.605469 18.667969v31.734375h-8.394531c-12.742188 0-23.109376-10.367188-23.109376-23.109375v-8.625zm0 0" fill="#f80"/><path d="m87.578125 50.183594h260.511719v215.160156h-260.511719zm0 0" fill="#e3f4ff"/><path d="m242.855469 143.65625c0 27.496094-22.289063 49.789062-49.789063 49.789062s-49.792968-22.292968-49.792968-49.789062c0-27.5 22.292968-49.792969 49.792968-49.792969s49.789063 22.292969 49.789063 49.792969zm0 0" fill="#4e7693"/><path d="m348.089844 50.183594v114.140625l-130.875-114.140625zm0 0" fill="#9be058"/><path d="m348.089844 50.183594v215.160156h-205.273438l115.199219-179.578125 22.832031-35.582031zm0 0" fill="#fc3e81"/><path d="m348.089844 50.183594v114.140625l-90.074219-78.558594 22.832031-35.582031zm0 0" fill="#43a3f9"/><path d="m74.960938 288.234375v16.792969c0 5.796875-4.699219 10.496094-10.5 10.496094h-16.792969c-5.800781 0-10.496094-4.699219-10.496094-10.496094v-16.792969c0-3.378906 1.597656-6.378906 4.066406-8.304687 1.773438-1.367188 4-2.191407 6.429688-2.191407h16.792969c5.800781 0 10.5 4.695313 10.5 10.496094zm0 0" fill="#ffdf46"/><path d="m61.9375 313.238281c0 .773438-.019531 1.535157-.074219 2.285157h-14.195312c-5.800781 0-10.496094-4.699219-10.496094-10.496094v-16.792969c0-3.378906 1.597656-6.378906 4.066406-8.304687 12.25 6.089843 20.699219 18.730468 20.699219 33.308593zm0 0" fill="#f9b200"/><path d="m398.496094 288.234375v16.792969c0 5.796875-4.695313 10.496094-10.496094 10.496094h-16.792969c-5.800781 0-10.496093-4.699219-10.496093-10.496094v-16.792969c0-5.800781 4.695312-10.5 10.496093-10.5h16.792969c2.429688 0 4.65625.824219 6.425781 2.195313 2.476563 1.929687 4.070313 4.925781 4.070313 8.304687zm0 0" fill="#ffdf46"/><path d="m398.496094 288.234375v16.792969c0 5.796875-4.695313 10.496094-10.496094 10.496094h-14.195312c-.050782-.75-.074219-1.511719-.074219-2.285157 0-14.578125 8.4375-27.230469 20.699219-33.308593 2.472656 1.929687 4.066406 4.925781 4.066406 8.304687zm0 0" fill="#f9b200"/><path d="m64.457031 37.796875h-16.785156c-5.800781 0-10.503906-4.703125-10.503906-10.507813v-16.785156c0-5.800781 4.703125-10.503906 10.503906-10.503906h16.785156c5.800781 0 10.503907 4.703125 10.503907 10.503906v16.785156c0 5.800782-4.703126 10.507813-10.503907 10.507813zm0 0" fill="#ffdf46"/><path d="m387.996094 37.796875h-16.78125c-5.804688 0-10.507813-4.703125-10.507813-10.507813v-16.785156c0-5.800781 4.703125-10.503906 10.507813-10.503906h16.78125c5.804687 0 10.507812 4.703125 10.507812 10.503906v16.785156c0 5.800782-4.703125 10.507813-10.507812 10.507813zm0 0" fill="#ffdf46"/><g fill="#9be058"><path d="m222.167969 215.910156c-4.222657 0-7.671875-3.398437-7.722657-7.632812-.054687-4.265625 3.363282-7.808594 7.628907-7.859375.03125-.003907.066406-.003907.097656-.003907 4.222656 0 7.671875 3.359376 7.722656 7.59375v.082032c.050781 4.265625-3.363281 7.769531-7.628906 7.820312-.035156 0-.066406 0-.097656 0zm0 0"/><path d="m222.167969 239.859375c-4.222657 0-7.671875-3.394531-7.722657-7.628906-.054687-4.265625 3.359376-7.808594 7.628907-7.863281h.097656c4.222656 0 7.671875 3.355468 7.722656 7.589843v.082031c.054688 4.265626-3.363281 7.769532-7.628906 7.820313-.035156 0-.066406 0-.097656 0zm0 0"/><path d="m242.636719 215.910156c-4.269531 0-7.726563-3.460937-7.726563-7.726562 0-4.269532 3.460938-7.769532 7.726563-7.769532s7.726562 3.417969 7.726562 7.6875v.082032c0 4.269531-3.460937 7.726562-7.726562 7.726562zm0 0"/><path d="m242.636719 239.859375c-4.269531 0-7.726563-3.457031-7.726563-7.722656 0-4.269531 3.460938-7.769531 7.726563-7.769531s7.726562 3.417968 7.726562 7.6875v.078124c0 4.269532-3.460937 7.726563-7.726562 7.726563zm0 0"/><path d="m263.105469 215.910156c-4.265625 0-7.726563-3.460937-7.726563-7.726562 0-4.269532 3.460938-7.769532 7.726563-7.769532 4.269531 0 7.726562 3.417969 7.726562 7.6875v.082032c0 4.269531-3.457031 7.726562-7.726562 7.726562zm0 0"/><path d="m263.105469 239.859375c-4.265625 0-7.726563-3.457031-7.726563-7.722656 0-4.269531 3.460938-7.769531 7.726563-7.769531 4.269531 0 7.726562 3.417968 7.726562 7.6875v.078124c0 4.269532-3.457031 7.726563-7.726562 7.726563zm0 0"/></g><path d="m185.125 107.519531c0 13.347657-10.816406 24.164063-24.160156 24.164063-13.347656 0-24.164063-10.816406-24.164063-24.164063 0-13.34375 10.816407-24.160156 24.164063-24.160156 13.34375 0 24.160156 10.816406 24.160156 24.160156zm0 0" fill="#ffdf46"/><path d="m133.695312 201.496094h-16.664062c-4.265625 0-7.722656-3.460938-7.722656-7.726563s3.457031-7.726562 7.722656-7.726562h16.664062c4.265626 0 7.726563 3.460937 7.726563 7.726562s-3.460937 7.726563-7.726563 7.726563zm0 0" fill="#43a3f9"/><path d="m133.695312 220.128906h-16.664062c-4.265625 0-7.722656-3.457031-7.722656-7.726562 0-4.265625 3.457031-7.726563 7.722656-7.726563h16.664062c4.265626 0 7.726563 3.460938 7.726563 7.726563 0 4.269531-3.460937 7.726562-7.726563 7.726562zm0 0" fill="#43a3f9"/><path d="m133.695312 238.761719h-16.664062c-4.265625 0-7.722656-3.457031-7.722656-7.726563 0-4.265625 3.457031-7.726562 7.722656-7.726562h16.664062c4.265626 0 7.726563 3.460937 7.726563 7.726562 0 4.269532-3.460937 7.726563-7.726563 7.726563zm0 0" fill="#43a3f9"/><path d="m314.347656 387.773438c-40.246094 0-76.75-16.503907-92.992187-42.042969-3.890625-6.121094-2.085938-14.234375 4.035156-18.128907 6.121094-3.890624 14.234375-2.085937 18.128906 4.035157 11.363281 17.867187 39.828125 29.875 70.828125 29.875s59.464844-12.003907 70.828125-29.875c3.894531-6.117188 12.007813-7.925781 18.128907-4.035157 6.121093 3.894532 7.925781 12.007813 4.035156 18.128907-16.242188 25.539062-52.746094 42.042969-92.992188 42.042969zm0 0" fill="#fc3e81"/><path d="m121.320312 387.773438c-40.246093 0-76.746093-16.503907-92.988281-42.042969-3.894531-6.121094-2.089843-14.234375 4.03125-18.128907 6.121094-3.890624 14.234375-2.085937 18.128907 4.035157 11.363281 17.867187 39.828124 29.875 70.828124 29.875 31.003907 0 59.46875-12.003907 70.832032-29.875 3.890625-6.117188 12.003906-7.925781 18.125-4.035157 6.121094 3.894532 7.925781 12.007813 4.035156 18.128907-16.242188 25.539062-52.746094 42.042969-92.992188 42.042969zm0 0" fill="#fc3e81"/><path d="m24.789062 512c-5.511718 0-9.980468-4.46875-9.980468-9.980469v-177.714843h19.960937v177.714843c0 5.511719-4.46875 9.980469-9.980469 9.980469zm0 0" fill="#9cc6db"/><path d="m49.578125 313.238281c0 13.6875-11.097656 24.785157-24.785156 24.785157-13.691407 0-24.78906275-11.097657-24.78906275-24.785157s11.09765575-24.785156 24.78906275-24.785156c13.6875 0 24.785156 11.097656 24.785156 24.785156zm0 0" fill="#ffdf46"/><path d="m.0351562 314.5625c.7343748 13.667969 12.4140628 24.164062 26.0859378 23.429688 3.261718-.175782 6.332031-.972657 9.125-2.277344-9.292969-3.175782-16.191406-11.738282-16.746094-22.144532-.558594-10.40625 5.386719-19.644531 14.28125-23.792968-2.914062-1-6.050781-1.464844-9.316406-1.289063-13.667969.734375-24.160156 12.40625-23.4296878 26.074219zm0 0" fill="#f9b200"/><path d="m217.855469 512c-5.511719 0-9.980469-4.46875-9.980469-9.980469v-177.714843h19.960938v177.714843c0 5.511719-4.472657 9.980469-9.980469 9.980469zm0 0" fill="#9cc6db"/><path d="m242.636719 313.238281c0 13.6875-11.097657 24.785157-24.785157 24.785157s-24.785156-11.097657-24.785156-24.785157 11.097656-24.785156 24.785156-24.785156 24.785157 11.097656 24.785157 24.785156zm0 0" fill="#ffdf46"/><path d="m242.640625 313.234375c0 13.6875-11.105469 24.792969-24.792969 24.792969-3.265625 0-6.375-.628906-9.234375-1.785156 9.109375-3.667969 15.539063-12.585938 15.539063-23.007813s-6.429688-19.328125-15.539063-22.996094c2.859375-1.15625 5.96875-1.785156 9.234375-1.785156 13.6875 0 24.792969 11.09375 24.792969 24.78125zm0 0" fill="#f9b200"/><path d="m410.878906 512c-5.511718 0-9.980468-4.46875-9.980468-9.980469v-177.714843h19.960937v177.714843c0 5.511719-4.46875 9.980469-9.980469 9.980469zm0 0" fill="#9cc6db"/><path d="m435.664062 313.238281c0 13.6875-11.097656 24.785157-24.785156 24.785157-13.691406 0-24.785156-11.097657-24.785156-24.785157s11.09375-24.785156 24.785156-24.785156c13.6875 0 24.785156 11.097656 24.785156 24.785156zm0 0" fill="#ffdf46"/><path d="m435.667969 313.234375c0 13.6875-11.105469 24.792969-24.792969 24.792969-3.265625 0-6.375-.628906-9.234375-1.785156 9.109375-3.667969 15.539063-12.585938 15.539063-23.007813s-6.429688-19.328125-15.539063-22.996094c2.859375-1.15625 5.96875-1.785156 9.234375-1.785156 13.6875 0 24.792969 11.09375 24.792969 24.78125zm0 0" fill="#f9b200"/></svg>