<?xml version="1.0" encoding="iso-8859-1"?>
<!-- Generator: Adobe Illustrator 19.0.0, SVG Export Plug-In . SVG Version: 6.00 Build 0)  -->
<svg version="1.1" id="Layer_1" xmlns="http://www.w3.org/2000/svg" xmlns:xlink="http://www.w3.org/1999/xlink" x="0px" y="0px"
	 viewBox="0 0 512 512" style="enable-background:new 0 0 512 512;" xml:space="preserve">
<path style="fill:#ECF0FA;" d="M256,470.71c-118.395,0-214.71-96.319-214.71-214.71S137.605,41.29,256,41.29
	S470.71,137.609,470.71,256S374.395,470.71,256,470.71z M256,57.806C146.718,57.806,57.806,146.718,57.806,256
	S146.718,454.194,256,454.194S454.194,365.282,454.194,256S365.282,57.806,256,57.806z"/>
<g>
	<path style="fill:#D5DCED;" d="M174.976,454.206c-1.089,0-2.185-0.218-3.242-0.669c-44.073-18.819-81.048-52.371-104.137-94.472
		c-2.194-4-0.726-9.02,3.274-11.214c4.008-2.198,9.024-0.726,11.21,3.27c21.315,38.875,55.46,69.855,96.137,87.23
		c4.194,1.79,6.145,6.641,4.355,10.835C181.234,452.323,178.177,454.206,174.976,454.206z"/>
	<path style="fill:#D5DCED;" d="M337.048,454.198c-3.202,0-6.258-1.883-7.597-5.016c-1.79-4.194,0.161-9.048,4.355-10.839
		c40.669-17.379,74.798-48.351,96.105-87.21c2.185-3.996,7.21-5.468,11.21-3.274s5.468,7.214,3.274,11.21
		c-23.073,42.093-60.048,75.637-104.105,94.46C339.234,453.98,338.137,454.198,337.048,454.198z"/>
	<path style="fill:#D5DCED;" d="M432.387,156.903c-2.782,0-5.5-1.407-7.056-3.956c-24.282-39.81-61.887-69.915-105.887-84.774
		c-4.315-1.46-6.637-6.145-5.177-10.464c1.46-4.331,6.161-6.649,10.468-5.181c47.661,16.093,88.395,48.702,114.694,91.815
		c2.379,3.895,1.145,8.976-2.75,11.351C435.339,156.516,433.855,156.903,432.387,156.903z"/>
	<path style="fill:#D5DCED;" d="M79.613,156.903c-1.468,0-2.952-0.387-4.29-1.21c-3.895-2.371-5.129-7.456-2.75-11.347
		c26.298-43.125,67.04-75.734,114.734-91.827c4.315-1.496,9,0.867,10.46,5.181c1.46,4.323-0.863,9.008-5.185,10.464
		c-44.016,14.855-81.629,44.964-105.911,84.778C85.113,155.496,82.395,156.903,79.613,156.903z"/>
</g>
<path style="fill:#E6AF78;" d="M98.225,281.314l-19.338-9.669c-2.798-1.399-4.565-4.258-4.565-7.386v-16.516H41.29v16.516
	c0,3.128-1.767,5.988-4.565,7.386l-19.338,9.669c-5.595,2.798-9.129,8.516-9.129,14.772v17.721c0,4.561,3.697,8.258,8.258,8.258
	h82.581c4.561,0,8.258-3.697,8.258-8.258v-17.721C107.355,289.83,103.821,284.111,98.225,281.314z"/>
<path style="fill:#D29B6E;" d="M41.29,247.742v16.516c0,1.762-0.607,3.403-1.597,4.782c5.618,2.217,11.717,3.476,18.113,3.476
	c6.396,0,12.495-1.259,18.113-3.476c-0.989-1.379-1.597-3.02-1.597-4.782v-16.516L41.29,247.742L41.29,247.742z"/>
<path style="fill:#FFDC64;" d="M98.225,281.313l-15.063-7.532c-6.059,7.328-15.104,12.097-25.356,12.097
	s-19.297-4.769-25.356-12.097l-15.063,7.532c-5.595,2.798-9.13,8.517-9.13,14.772v17.721c0,4.56,3.697,8.258,8.258,8.258h82.581
	c4.561,0,8.258-3.698,8.258-8.258v-17.721C107.355,289.83,103.821,284.111,98.225,281.313z"/>
<g>
	<path style="fill:#FFC850;" d="M33.032,313.806c0-5.199-2.448-10.094-6.606-13.213l-16.171-12.128
		c-1.22,2.324-1.996,4.895-1.996,7.62v17.721c0,4.561,3.697,8.258,8.258,8.258h16.516v-8.258H33.032z"/>
	<path style="fill:#FFC850;" d="M82.581,313.806c0-5.199,2.448-10.094,6.606-13.213l16.171-12.128
		c1.22,2.324,1.996,4.895,1.996,7.62v17.721c0,4.561-3.697,8.258-8.258,8.258H82.581V313.806z"/>
</g>
<path style="fill:#F0C087;" d="M57.806,256L57.806,256c-18.243,0-33.032-14.789-33.032-33.032v-16.516
	c0-13.682,11.092-24.774,24.774-24.774h16.516c13.682,0,24.774,11.092,24.774,24.774v16.516C90.839,241.211,76.05,256,57.806,256z"
	/>
<path style="fill:#E6AF78;" d="M49.548,222.968v-16.516c0-12.268,8.939-22.383,20.645-24.358c-1.35-0.228-2.715-0.416-4.129-0.416
	H49.548c-13.682,0-24.774,11.092-24.774,24.774v16.516c0,18.243,14.789,33.032,33.032,33.032c4.388,0,8.556-0.896,12.387-2.45
	C58.098,248.645,49.548,236.823,49.548,222.968z"/>
<path style="fill:#694B4B;" d="M24.774,206.452c0,0,24.774,8.258,66.064,8.258v-8.258c0-13.682-11.092-24.774-24.774-24.774H49.548
	C35.866,181.677,24.774,192.769,24.774,206.452L24.774,206.452z"/>
<path style="fill:#5A4146;" d="M49.548,206.452c0-12.268,8.939-22.383,20.645-24.358c-1.35-0.228-2.715-0.416-4.129-0.416H49.548
	c-13.682,0-24.774,11.092-24.774,24.774c0,0,8.882,2.937,24.774,5.308V206.452z"/>
<path style="fill:#E6AF78;" d="M494.613,281.314l-19.338-9.669c-2.798-1.399-4.565-4.258-4.565-7.386v-16.516h-33.032v16.516
	c0,3.128-1.767,5.988-4.565,7.386l-19.338,9.669c-5.595,2.798-9.129,8.516-9.129,14.772v17.721c0,4.561,3.697,8.258,8.258,8.258
	h82.581c4.561,0,8.258-3.697,8.258-8.258v-17.721C503.742,289.83,500.208,284.111,494.613,281.314z"/>
<path style="fill:#D29B6E;" d="M437.677,247.742v16.516c0,1.762-0.607,3.403-1.597,4.782c5.618,2.217,11.717,3.476,18.113,3.476
	s12.495-1.259,18.113-3.476c-0.989-1.379-1.597-3.02-1.597-4.782v-16.516L437.677,247.742L437.677,247.742z"/>
<path style="fill:#00AAF0;" d="M494.612,281.313l-15.063-7.532c-6.059,7.328-15.104,12.097-25.356,12.097
	c-10.251,0-19.297-4.769-25.356-12.097l-15.063,7.532c-5.595,2.798-9.13,8.517-9.13,14.772v17.721c0,4.56,3.697,8.258,8.258,8.258
	h82.581c4.561,0,8.258-3.698,8.258-8.258v-17.721C503.742,289.83,500.208,284.111,494.612,281.313z"/>
<g>
	<path style="fill:#0096DC;" d="M429.419,313.806c0-5.199-2.448-10.094-6.606-13.213l-16.171-12.128
		c-1.22,2.324-1.996,4.895-1.996,7.62v17.721c0,4.561,3.697,8.258,8.258,8.258h16.516v-8.258H429.419z"/>
	<path style="fill:#0096DC;" d="M478.968,313.806c0-5.199,2.448-10.094,6.607-13.213l16.171-12.128
		c1.22,2.324,1.996,4.895,1.996,7.62v17.721c0,4.561-3.697,8.258-8.258,8.258h-16.516V313.806z"/>
</g>
<path style="fill:#F0C087;" d="M454.194,256L454.194,256c-18.243,0-33.032-14.789-33.032-33.032v-16.516
	c0-13.682,11.092-24.774,24.774-24.774h16.516c13.682,0,24.774,11.092,24.774,24.774v16.516
	C487.226,241.211,472.437,256,454.194,256z"/>
<path style="fill:#E6AF78;" d="M445.936,222.968v-16.516c0-12.268,8.939-22.383,20.645-24.358c-1.35-0.228-2.715-0.416-4.129-0.416
	h-16.516c-13.682,0-24.774,11.092-24.774,24.774v16.516c0,18.243,14.789,33.032,33.032,33.032c4.388,0,8.556-0.896,12.387-2.45
	C454.485,248.645,445.936,236.823,445.936,222.968z"/>
<path style="fill:#694B4B;" d="M421.161,206.452c0,0,24.774,8.258,66.064,8.258v-8.258c0-13.682-11.092-24.774-24.774-24.774
	h-16.516C432.253,181.677,421.161,192.769,421.161,206.452L421.161,206.452z"/>
<path style="fill:#5A4146;" d="M445.936,206.452c0-12.268,8.939-22.383,20.645-24.358c-1.35-0.228-2.715-0.416-4.129-0.416h-16.516
	c-13.682,0-24.774,11.092-24.774,24.774c0,0,8.882,2.937,24.774,5.308V206.452z"/>
<path style="fill:#E6AF78;" d="M296.419,99.636l-19.338-9.669c-2.798-1.399-4.565-4.258-4.565-7.386V66.065h-33.032v16.516
	c0,3.128-1.767,5.988-4.565,7.386l-19.338,9.669c-5.595,2.798-9.129,8.516-9.129,14.772v17.721c0,4.561,3.697,8.258,8.258,8.258
	h82.581c4.561,0,8.258-3.697,8.258-8.258v-17.721C305.548,108.153,302.014,102.434,296.419,99.636z"/>
<path style="fill:#D29B6E;" d="M239.484,66.065v16.516c0,1.762-0.607,3.403-1.597,4.782c5.618,2.217,11.717,3.476,18.113,3.476
	c6.396,0,12.495-1.259,18.113-3.476c-0.989-1.379-1.597-3.02-1.597-4.782V66.065H239.484z"/>
<path style="fill:#FF507D;" d="M296.419,99.636l-15.063-7.532c-6.059,7.328-15.104,12.097-25.356,12.097
	c-10.252,0-19.297-4.769-25.356-12.097l-15.063,7.532c-5.595,2.798-9.13,8.517-9.13,14.772v17.721c0,4.56,3.697,8.258,8.258,8.258
	h82.581c4.561,0,8.258-3.698,8.258-8.258v-17.721C305.548,108.153,302.014,102.434,296.419,99.636z"/>
<g>
	<path style="fill:#D23C69;" d="M231.226,132.129c0-5.199-2.448-10.094-6.606-13.213l-16.171-12.128
		c-1.22,2.324-1.996,4.895-1.996,7.62v17.721c0,4.561,3.697,8.258,8.258,8.258h16.516L231.226,132.129L231.226,132.129z"/>
	<path style="fill:#D23C69;" d="M280.774,132.129c0-5.199,2.448-10.094,6.607-13.213l16.171-12.128
		c1.22,2.324,1.996,4.895,1.996,7.62v17.721c0,4.561-3.697,8.258-8.258,8.258h-16.516V132.129z"/>
</g>
<path style="fill:#F0C087;" d="M256,74.323L256,74.323c-18.243,0-33.032-14.789-33.032-33.032V24.774
	C222.968,11.092,234.06,0,247.742,0h16.516c13.682,0,24.774,11.092,24.774,24.774V41.29C289.032,59.534,274.243,74.323,256,74.323z"
	/>
<path style="fill:#E6AF78;" d="M247.742,41.29V24.774c0-12.268,8.938-22.383,20.645-24.358C267.037,0.189,265.672,0,264.258,0
	h-16.516c-13.682,0-24.774,11.092-24.774,24.774V41.29c0,18.243,14.789,33.032,33.032,33.032c4.388,0,8.556-0.896,12.387-2.45
	C256.291,66.968,247.742,55.146,247.742,41.29z"/>
<path style="fill:#694B4B;" d="M222.968,24.774c0,0,24.774,8.258,66.064,8.258v-8.258C289.032,11.092,277.94,0,264.258,0h-16.516
	C234.06,0,222.968,11.092,222.968,24.774L222.968,24.774z"/>
<path style="fill:#5A4146;" d="M247.742,24.774c0-12.268,8.938-22.383,20.645-24.358C267.037,0.189,265.672,0,264.258,0h-16.516
	c-13.682,0-24.774,11.092-24.774,24.774c0,0,8.882,2.937,24.774,5.308L247.742,24.774L247.742,24.774z"/>
<path style="fill:#E6AF78;" d="M296.419,471.249l-19.338-9.669c-2.798-1.399-4.565-4.258-4.565-7.386v-16.516h-33.032v16.516
	c0,3.128-1.767,5.988-4.565,7.386l-19.338,9.669c-5.595,2.798-9.129,8.516-9.129,14.772v17.721c0,4.561,3.697,8.258,8.258,8.258
	h82.581c4.561,0,8.258-3.697,8.258-8.258v-17.721C305.548,479.765,302.014,474.047,296.419,471.249z"/>
<path style="fill:#D29B6E;" d="M239.484,437.677v16.516c0,1.762-0.607,3.403-1.597,4.782c5.618,2.217,11.717,3.476,18.113,3.476
	c6.396,0,12.495-1.259,18.113-3.476c-0.989-1.379-1.597-3.02-1.597-4.782v-16.516H239.484z"/>
<path style="fill:#B4E66E;" d="M296.419,471.249l-15.063-7.532c-6.059,7.328-15.104,12.097-25.356,12.097
	c-10.252,0-19.297-4.769-25.356-12.097l-15.063,7.532c-5.595,2.798-9.13,8.517-9.13,14.772v17.721c0,4.56,3.697,8.258,8.258,8.258
	h82.581c4.561,0,8.258-3.698,8.258-8.258v-17.721C305.548,479.765,302.014,474.047,296.419,471.249z"/>
<g>
	<path style="fill:#A0D755;" d="M231.226,503.742c0-5.199-2.448-10.094-6.606-13.213l-16.171-12.128
		c-1.22,2.324-1.996,4.895-1.996,7.62v17.721c0,4.561,3.697,8.258,8.258,8.258h16.516L231.226,503.742L231.226,503.742z"/>
	<path style="fill:#A0D755;" d="M280.774,503.742c0-5.199,2.448-10.094,6.607-13.213l16.171-12.128
		c1.22,2.324,1.996,4.895,1.996,7.62v17.721c0,4.561-3.697,8.258-8.258,8.258h-16.516V503.742z"/>
</g>
<path style="fill:#F0C087;" d="M256,445.935L256,445.935c-18.243,0-33.032-14.789-33.032-33.032v-16.516
	c0-13.682,11.092-24.774,24.774-24.774h16.516c13.682,0,24.774,11.092,24.774,24.774v16.516
	C289.032,431.146,274.243,445.935,256,445.935z"/>
<path style="fill:#E6AF78;" d="M247.742,412.903v-16.516c0-12.268,8.938-22.383,20.645-24.358c-1.35-0.228-2.715-0.416-4.129-0.416
	h-16.516c-13.682,0-24.774,11.092-24.774,24.774v16.516c0,18.243,14.789,33.032,33.032,33.032c4.388,0,8.556-0.896,12.387-2.45
	C256.291,438.581,247.742,426.759,247.742,412.903z"/>
<path style="fill:#694B4B;" d="M222.968,396.387c0,0,24.774,8.258,66.064,8.258v-8.258c0-13.682-11.092-24.774-24.774-24.774
	h-16.516C234.06,371.613,222.968,382.705,222.968,396.387L222.968,396.387z"/>
<path style="fill:#5A4146;" d="M247.742,396.387c0-12.268,8.938-22.383,20.645-24.358c-1.35-0.228-2.715-0.416-4.129-0.416h-16.516
	c-13.682,0-24.774,11.092-24.774,24.774c0,0,8.882,2.937,24.774,5.308L247.742,396.387L247.742,396.387z"/>
<g>
</g>
<g>
</g>
<g>
</g>
<g>
</g>
<g>
</g>
<g>
</g>
<g>
</g>
<g>
</g>
<g>
</g>
<g>
</g>
<g>
</g>
<g>
</g>
<g>
</g>
<g>
</g>
<g>
</g>
</svg>
