<?xml version="1.0" encoding="iso-8859-1"?>
<!-- Generator: Adobe Illustrator 19.0.0, SVG Export Plug-In . SVG Version: 6.00 Build 0)  -->
<svg version="1.1" id="Capa_1" xmlns="http://www.w3.org/2000/svg" xmlns:xlink="http://www.w3.org/1999/xlink" x="0px" y="0px"
	 viewBox="0 0 512 512" style="enable-background:new 0 0 512 512;" xml:space="preserve">
<path style="fill:#56ACE1;" d="M256,0C154.535,0,71.987,82.548,71.987,184.013c0,32.171,9.494,69.412,28.217,110.688
	c14.801,32.63,35.401,67.927,61.231,104.908c43.848,62.782,88.339,109.493,88.783,109.957c3.106,3.246,8.457,3.246,11.564,0
	c0.444-0.464,44.936-47.174,88.783-109.957c25.829-36.982,46.43-72.278,61.231-104.908c18.723-41.276,28.217-78.517,28.217-110.688
	C440.013,82.548,357.465,0,256,0z"/>
<path style="fill:#3A9FDE;" d="M193.437,391.644c-25.829-36.982-46.43-72.278-61.231-104.908
	c-18.723-41.276-28.217-78.517-28.217-110.688c0-80.39,51.822-148.893,123.81-173.888C139.673,15.771,71.987,92.135,71.987,184.013
	c0,32.171,9.494,69.412,28.217,110.688c14.801,32.63,35.401,67.927,61.231,104.908c43.848,62.782,88.339,109.493,88.783,109.957
	c3.106,3.246,8.457,3.246,11.564,0c0.15-0.157,5.326-5.592,13.8-15.132C261.533,479.014,227.296,440.124,193.437,391.644z"/>
<path style="fill:#A1DBFF;" d="M256,48.003c-74.995,0-136.01,61.013-136.01,136.01s61.014,136.01,136.01,136.01
	s136.01-61.013,136.01-136.01S330.995,48.003,256,48.003z"/>
<path style="fill:#FFFFFF;" d="M324.245,137.226L260.24,97.223c-2.594-1.621-5.887-1.621-8.481,0l-64.005,40.003
	c-2.339,1.462-3.76,4.026-3.76,6.784v104.007c0,4.418,3.582,8.001,8.001,8.001h40.003c4.418,0,8.001-3.582,8.001-8.001v-56.004
	h32.002v56.004c0,4.418,3.582,8.001,8.001,8.001h40.003c4.418,0,8.001-3.582,8.001-8.001V144.01
	C328.005,141.252,326.584,138.688,324.245,137.226z"/>
<g>
</g>
<g>
</g>
<g>
</g>
<g>
</g>
<g>
</g>
<g>
</g>
<g>
</g>
<g>
</g>
<g>
</g>
<g>
</g>
<g>
</g>
<g>
</g>
<g>
</g>
<g>
</g>
<g>
</g>
</svg>
