<?xml version="1.0" encoding="iso-8859-1"?>
<!-- Generator: Adobe Illustrator 19.0.0, SVG Export Plug-In . SVG Version: 6.00 Build 0)  -->
<svg version="1.1" id="Layer_1" xmlns="http://www.w3.org/2000/svg" xmlns:xlink="http://www.w3.org/1999/xlink" x="0px" y="0px"
	 viewBox="0 0 460 460" style="enable-background:new 0 0 460 460;" xml:space="preserve">
<g id="XMLID_1568_">
	<path id="XMLID_1202_" style="fill:#E1DFD1;" d="M230,460c-77.32,0-140-26.863-140-60s62.68-60,140-60s140,26.863,140,60
		S307.32,460,230,460z"/>
	<path id="XMLID_1201_" style="fill:#D0CEC2;" d="M370,400H230v-60C307.32,340,370,366.863,370,400z"/>
	<path id="XMLID_1200_" style="fill:#737270;" d="M230,400L230,400c-5.549,0-10.072-4.451-10.161-9.999l-4.672-289.675
		C215.075,94.65,219.651,90,225.328,90h9.344c5.677,0,10.253,4.65,10.161,10.326l-4.672,289.675
		C240.072,395.549,235.549,400,230,400z"/>
	<path id="XMLID_1199_" style="fill:#CA7D69;" d="M286.569,23.431c31.242,31.242,31.242,81.895,0,113.137s-81.895,31.242-113.137,0
		s-31.242-81.895,0-113.137S255.327-7.81,286.569,23.431z"/>
	<path id="XMLID_1192_" style="fill:#E4AD8B;" d="M251.213,23.431c21.479,21.479,21.479,56.303,0,77.782s-56.303,21.479-77.782,0
		s-21.479-56.303,0-77.782S229.734,1.953,251.213,23.431z"/>
</g>
<g>
</g>
<g>
</g>
<g>
</g>
<g>
</g>
<g>
</g>
<g>
</g>
<g>
</g>
<g>
</g>
<g>
</g>
<g>
</g>
<g>
</g>
<g>
</g>
<g>
</g>
<g>
</g>
<g>
</g>
</svg>
