<svg id="Layer_35" enable-background="new 0 0 64 64" height="512" viewBox="0 0 64 64" width="512" xmlns="http://www.w3.org/2000/svg"><path d="m36.96 16.98-4.96 13.02-4.96-13.02c1.53-.63 3.2-.98 4.96-.98s3.43.35 4.96.98z" fill="#ccd1d9"/><path d="m30 30h-11v-1c0-3.59 1.46-6.84 3.81-9.19.44-.44.91-.85 1.41-1.22l.78 3.41 2 2-1 2z" fill="#b4dd7f"/><path d="m45 29v1h-11l4-4-1-2 2-2 .78-3.41c3.17 2.36 5.22 6.15 5.22 10.41z" fill="#b4dd7f"/><path d="m27.04 16.98 4.96 13.02h-2l-4-4 1-2-2-2-.78-3.41c.87-.65 1.81-1.19 2.82-1.61z" fill="#a0d468"/><path d="m39.78 18.59-.78 3.41-2 2 1 2-4 4h-2l4.96-13.02c1.01.42 1.95.96 2.82 1.61z" fill="#a0d468"/><g fill="#ffeaa7"><circle cx="53" cy="41" r="9"/><circle cx="11" cy="41" r="9"/><circle cx="32" cy="53" r="9"/></g><path d="m56.6 44.99c1.05.63 1.92 1.53 2.52 2.61-1.6 1.49-3.76 2.4-6.12 2.4-1.47 0-2.86-.35-4.08-.98-.75-.38-1.43-.86-2.04-1.42 1.2-2.15 3.49-3.6 6.12-3.6 1.32 0 2.54.36 3.6.99z" fill="#ff826e"/><circle cx="53" cy="40" fill="#f0d0b4" r="4"/><path d="m39 9v.04c-.02 3.85-3.14 6.96-7 6.96s-6.98-3.11-7-6.96c0-.01 0-.03 0-.04 0-3.87 3.13-7 7-7s7 3.13 7 7z" fill="#f0d0b4"/><path d="m35.6 56.99c1.05.63 1.92 1.53 2.52 2.61-1.6 1.49-3.76 2.4-6.12 2.4s-4.52-.91-6.12-2.4c1.2-2.15 3.49-3.6 6.12-3.6 1.32 0 2.54.36 3.6.99z" fill="#e6e9ed"/><circle cx="32" cy="52" fill="#f0d0b4" r="4"/><path d="m15.08 49.02c-1.22.63-2.61.98-4.08.98-2.36 0-4.52-.91-6.12-2.4 1.2-2.15 3.49-3.6 6.12-3.6 1.32 0 2.54.36 3.6.99 1.05.63 1.92 1.53 2.52 2.61-.61.56-1.29 1.04-2.04 1.42z" fill="#ff826e"/><circle cx="11" cy="40" fill="#f0d0b4" r="4"/><path d="m56.993 31.838c-.068-10.774-6.865-20.116-17.028-23.522-.349-4.092-3.785-7.316-7.965-7.316s-7.616 3.224-7.965 7.315c-10.163 3.406-16.96 12.749-17.028 23.523-3.531 1.545-6.007 5.068-6.007 9.162 0 5.514 4.486 10 10 10 1.384 0 2.704-.284 3.904-.795 2.147 2.019 4.594 3.623 7.295 4.776.922 4.568 4.966 8.019 9.801 8.019s8.879-3.451 9.801-8.018c2.702-1.153 5.149-2.757 7.295-4.776 1.2.51 2.52.794 3.904.794 5.514 0 10-4.486 10-10 0-4.094-2.476-7.617-6.007-9.162zm-24.993-28.838c3.309 0 6 2.691 6 6s-2.691 6-6 6-6-2.691-6-6 2.691-6 6-6zm-5.509 15.351 4.058 10.649h-.135l-3.197-3.197 1-2-2.306-2.306-.565-2.476c.367-.245.751-.466 1.145-.67zm-2.875 2.079.473 2.073 1.694 1.694-1 2 2.803 2.803h-7.586c0-3.356 1.388-6.39 3.616-8.57zm14.601 3.767 1.694-1.694.473-2.073c2.228 2.18 3.616 5.214 3.616 8.57h-7.586l2.803-2.803zm-.128-2.7-2.306 2.306 1 2-3.197 3.197h-.135l4.058-10.649c.394.205.778.425 1.145.67zm-2.426-3.92-3.663 9.614-3.663-9.614c1.155-.372 2.385-.577 3.663-.577s2.508.205 3.663.577zm-32.663 23.423c0-4.411 3.589-8 8-8s8 3.589 8 8c0 1.893-.664 3.633-1.768 5.004-.792-.986-1.796-1.763-2.931-2.278 1.034-.917 1.699-2.239 1.699-3.726 0-2.757-2.243-5-5-5s-5 2.243-5 5c0 1.487.665 2.809 1.699 3.726-1.135.516-2.139 1.292-2.931 2.278-1.104-1.371-1.768-3.111-1.768-5.004zm5-1c0-1.654 1.346-3 3-3s3 1.346 3 3-1.346 3-3 3-3-1.346-3-3zm-1.792 7.391c1.125-1.492 2.895-2.391 4.792-2.391s3.667.899 4.792 2.391c-1.337 1.005-2.993 1.609-4.792 1.609s-3.455-.604-4.792-1.609zm21 12c1.125-1.492 2.895-2.391 4.792-2.391s3.667.899 4.792 2.391c-1.337 1.005-2.993 1.609-4.792 1.609s-3.455-.604-4.792-1.609zm1.792-7.391c0-1.654 1.346-3 3-3s3 1.346 3 3-1.346 3-3 3-3-1.346-3-3zm9.232 6.004c-.792-.986-1.796-1.763-2.931-2.278 1.034-.917 1.699-2.239 1.699-3.726 0-2.757-2.243-5-5-5s-5 2.243-5 5c0 1.487.665 2.809 1.699 3.726-1.135.516-2.139 1.292-2.931 2.278-1.104-1.371-1.768-3.111-1.768-5.004 0-4.411 3.589-8 8-8s8 3.589 8 8c0 1.893-.664 3.633-1.768 5.004zm3.753-5.305c-.161-5.374-4.573-9.699-9.985-9.699s-9.824 4.325-9.985 9.699c-1.915-.924-3.677-2.105-5.273-3.525 2.571-1.812 4.258-4.797 4.258-8.174 0-5.514-4.486-10-10-10-.674 0-1.331.069-1.968.197.321-9.443 6.255-17.593 15.098-20.798.393 2.216 1.697 4.118 3.515 5.303-5.592 1.836-9.645 7.099-9.645 13.298v2h28v-2c0-6.199-4.053-11.462-9.646-13.298 1.818-1.185 3.122-3.087 3.515-5.303 8.844 3.205 14.777 11.355 15.098 20.798-.636-.128-1.293-.197-1.967-.197-5.514 0-10 4.486-10 10 0 3.376 1.687 6.362 4.257 8.173-1.595 1.421-3.357 2.602-5.272 3.526zm6.223-5.308c1.125-1.492 2.895-2.391 4.792-2.391s3.667.899 4.792 2.391c-1.337 1.005-2.993 1.609-4.792 1.609s-3.455-.604-4.792-1.609zm1.792-7.391c0-1.654 1.346-3 3-3s3 1.346 3 3-1.346 3-3 3-3-1.346-3-3zm9.232 6.004c-.792-.986-1.796-1.763-2.931-2.278 1.034-.917 1.699-2.239 1.699-3.726 0-2.757-2.243-5-5-5s-5 2.243-5 5c0 1.487.665 2.809 1.699 3.726-1.135.516-2.139 1.292-2.931 2.278-1.104-1.371-1.768-3.111-1.768-5.004 0-4.411 3.589-8 8-8s8 3.589 8 8c0 1.893-.664 3.633-1.768 5.004z"/></svg>