<?xml version="1.0" encoding="iso-8859-1"?>
<!-- Generator: Adobe Illustrator 19.0.0, SVG Export Plug-In . SVG Version: 6.00 Build 0)  -->
<svg version="1.1" id="Capa_1" xmlns="http://www.w3.org/2000/svg" xmlns:xlink="http://www.w3.org/1999/xlink" x="0px" y="0px"
	 viewBox="0 0 511.999 511.999" style="enable-background:new 0 0 511.999 511.999;" xml:space="preserve">
<rect x="87.803" y="214.883" style="fill:#CC905E;" width="334.245" height="246.552"/>
<rect x="87.803" y="214.883" style="fill:#C18152;" width="41.88" height="246.552"/>
<rect x="94.542" y="248.47" style="fill:#EAB883;" width="322.096" height="27.816"/>
<rect x="94.542" y="220.652" style="fill:#F7CF9C;" width="322.096" height="27.816"/>
<rect x="94.542" y="248.47" style="fill:#DDA878;" width="35.137" height="27.816"/>
<rect x="94.542" y="220.652" style="fill:#EAB883;" width="35.137" height="27.816"/>
<path style="fill:#F7CF9C;" d="M407.976,214.878c0,11.63,0,202.986,0,214.651v4.432h28.131c0-10.654,0-207.242,0-219.083
	L407.976,214.878L407.976,214.878z"/>
<path style="fill:#EAB883;" d="M407.976,214.878c0,11.63,0,202.986,0,214.651v4.432h15.137c0-10.654,0-207.242,0-219.083
	L407.976,214.878L407.976,214.878z"/>
<path style="fill:#F7CF9C;" d="M296.561,429.529v4.432h28.132v-4.432c0-11.665,0-203.021,0-214.651h-28.132
	C296.561,226.508,296.561,417.864,296.561,429.529z"/>
<path style="fill:#EAB883;" d="M296.561,429.529v4.432h14.066v-4.432c0-11.665,0-203.021,0-214.651h-14.066
	C296.561,226.508,296.561,417.864,296.561,429.529z"/>
<path style="fill:#F7CF9C;" d="M185.147,429.529v4.432h28.132v-4.432c0-11.665,0-203.021,0-214.651h-28.132
	C185.147,226.508,185.147,417.864,185.147,429.529z"/>
<path style="fill:#EAB883;" d="M185.147,429.529v4.432h14.066v-4.432c0-11.665,0-203.021,0-214.651h-14.066
	C185.147,226.508,185.147,417.864,185.147,429.529z"/>
<path style="fill:#F7CF9C;" d="M73.734,429.529v4.432h28.131c0-11.841,0-208.429,0-219.083H73.734
	C73.734,226.508,73.734,417.864,73.734,429.529z"/>
<g>
	<path style="fill:#EAB883;" d="M73.734,429.529v4.432h13.593c0-11.841,0-208.429,0-219.083H73.734
		C73.734,226.508,73.734,417.864,73.734,429.529z"/>
	<path style="fill:#EAB883;" d="M104.796,456.348H70.802c-7.649,0-13.908-6.259-13.908-13.908l0,0
		c0-7.649,6.259-13.908,13.908-13.908h33.993c7.649,0,13.908,6.259,13.908,13.908l0,0
		C118.704,450.089,112.445,456.348,104.796,456.348z"/>
</g>
<path style="fill:#DDA878;" d="M87.799,442.439c0-7.649,6.259-13.908,13.908-13.908H70.802c-7.649,0-13.908,6.259-13.908,13.908
	c0,7.649,6.259,13.908,13.908,13.908h30.905C94.057,456.348,87.799,450.089,87.799,442.439z"/>
<path style="fill:#F7CF9C;" d="M468.902,456.348c-11.211,0-62.611,0-74.23,0l0,0c-9.882,0-335.415,0-351.566,0
	c-7.693,0-13.908,6.238-13.908,13.908c0,1.593,0,14.72,0,20.09c86.364,0,338.739,0,453.612,0c0-1.593,0-14.72,0-20.09
	C482.809,462.591,476.601,456.348,468.902,456.348z"/>
<g>
	<path style="fill:#EAB883;" d="M84.446,466.119c1.761-5.662,7.041-9.772,13.283-9.772H43.105c-7.693,0-13.908,6.238-13.908,13.908
		c0,1.593,0,14.72,0,20.09c6.041,0,48.065,0,54.623,0C83.82,468.589,83.612,468.802,84.446,466.119z"/>
	<path style="fill:#EAB883;" d="M498.091,484.164c-126.307,0-369.143,0-484.176,0c-7.832,0-13.908,6.426-13.908,13.908l0,0
		c0,7.681,6.227,13.908,13.908,13.908c6.103,0,491.934,0,484.176,0c7.681,0,13.908-6.227,13.908-13.908l0,0
		C511.999,490.565,505.903,484.164,498.091,484.164z"/>
</g>
<path style="fill:#DDA878;" d="M69.017,494.507c1.577-5.951,6.983-10.343,13.43-10.343c-6.876,0-61.737,0-68.532,0
	c-6.447,0-11.853,4.393-13.429,10.343c-2.372,8.692,4.225,17.474,13.429,17.474c16.875,0,51.734,0,68.532,0
	C73.323,511.98,66.651,503.313,69.017,494.507z"/>
<path style="fill:#CC905E;" d="M257.045,0.705c-1.268-0.915-2.98-0.915-4.249,0L33.77,158.789c-2.808,2.027-4.472,5.279-4.472,8.741
	l-0.078,39.839l0,0l0,0l0,0l0,0c0.335,7.495,6.498,13.282,13.885,13.282c11.324,0,405.541,0,425.796,0
	c6.242,0,11.522-4.111,13.283-9.772c0.991-3.184,0.491-5.162,0.625-11.347c0-0.495,0-10.385,0-9.971c0-0.337,0-7.736,0-7.268
	c-0.692-7.429,1.912-14.187-4.034-18.559L257.045,0.705z"/>
<path style="fill:#C18152;" d="M57.113,176.802c0-3.463,1.664-6.715,4.472-8.741l213.476-154.11L257.045,0.705
	c-1.268-0.915-2.98-0.915-4.249,0L33.77,158.789c-2.808,2.027-4.472,5.279-4.472,8.741c0.166,39.585-0.604,39.724,0.524,43.35
	c1.761,5.662,7.041,9.772,13.283,9.772h14.71C56.436,216.754,57.285,217.815,57.113,176.802z"/>
<path style="fill:#EAB883;" d="M29.822,210.88c1.761,5.662,7.041,9.772,13.283,9.772c11.324,0,405.541,0,425.796,0
	c6.242,0,11.522-4.111,13.283-9.772c0.991-3.184,0.491-5.162,0.625-11.347v-6.698H29.288
	C29.436,205.796,28.757,207.457,29.822,210.88z"/>
<path style="fill:#DDA878;" d="M57.081,192.835H29.288c0.015,14.124-0.307,15.339,0.534,18.044
	c1.777,5.707,7.084,9.772,13.283,9.772h14.71C56.469,216.848,57.269,216.398,57.081,192.835z"/>
<path style="fill:#FFB70D;" d="M286.105,125.707c-1.124-10.189-9.34-17.952-22.376-21.519V85.524c5.383,1.54,9.044,4.139,9.09,4.172
	c3.426,2.545,8.264,1.833,10.81-1.592c2.546-3.425,1.834-8.264-1.591-10.811c-0.479-0.355-7.802-5.69-18.31-7.646v-3.983
	c0-4.268-3.459-7.726-7.726-7.726c-4.267,0-7.726,3.459-7.726,7.726v4.089c-1.943,0.409-3.923,0.981-5.927,1.757
	c-11.113,4.3-17.569,13.605-16.447,23.708c1.131,10.18,9.351,17.927,22.374,21.479v18.659c-5.322-1.529-8.962-4.092-9.098-4.189
	c-3.422-2.516-8.238-1.797-10.776,1.616c-2.546,3.425-1.834,8.264,1.591,10.809c0.478,0.356,7.789,5.685,18.284,7.644v3.988
	c0,4.268,3.459,7.726,7.726,7.726c4.267,0,7.726-3.459,7.726-7.726v-4.09c1.952-0.41,3.939-0.978,5.953-1.757
	C280.77,145.089,287.217,135.797,286.105,125.707z M241.26,93.511c-0.319-2.874,2.359-5.925,6.664-7.589
	c0.117-0.045,0.234-0.082,0.352-0.125v14.581C243.798,98.413,241.515,95.808,241.26,93.511z M264.105,134.966
	c-0.126,0.049-0.251,0.088-0.376,0.134v-14.588c4.48,1.972,6.763,4.588,7.016,6.89C271.061,130.268,268.393,133.308,264.105,134.966
	z"/>
<path style="fill:#EAB883;" d="M216.209,456.348h-33.993c-7.649,0-13.908-6.259-13.908-13.908l0,0
	c0-7.649,6.259-13.908,13.908-13.908h33.993c7.649,0,13.908,6.259,13.908,13.908l0,0
	C230.118,450.089,223.86,456.348,216.209,456.348z"/>
<path style="fill:#DDA878;" d="M199.213,442.439c0-7.649,6.259-13.908,13.908-13.908h-30.905c-7.649,0-13.908,6.259-13.908,13.908
	c0,7.649,6.259,13.908,13.908,13.908h30.905C205.471,456.348,199.213,450.089,199.213,442.439z"/>
<path style="fill:#EAB883;" d="M327.624,456.348h-33.993c-7.649,0-13.908-6.259-13.908-13.908l0,0
	c0-7.649,6.259-13.908,13.908-13.908h33.993c7.649,0,13.908,6.259,13.908,13.908l0,0
	C341.532,450.089,335.273,456.348,327.624,456.348z"/>
<path style="fill:#DDA878;" d="M310.627,442.439c0-7.649,6.259-13.908,13.908-13.908h-30.905c-7.649,0-13.908,6.259-13.908,13.908
	c0,7.649,6.259,13.908,13.908,13.908h30.905C316.886,456.348,310.627,450.089,310.627,442.439z"/>
<path style="fill:#EAB883;" d="M439.038,456.348h-33.993c-7.649,0-13.908-6.259-13.908-13.908l0,0
	c0-7.649,6.259-13.908,13.908-13.908h33.993c7.649,0,13.908,6.259,13.908,13.908l0,0
	C452.946,450.089,446.687,456.348,439.038,456.348z"/>
<path style="fill:#DDA878;" d="M422.041,442.439c0-7.649,6.259-13.908,13.908-13.908h-30.905c-7.649,0-13.908,6.259-13.908,13.908
	c0,7.649,6.259,13.908,13.908,13.908h30.905C428.3,456.348,422.041,450.089,422.041,442.439z"/>
<g>
</g>
<g>
</g>
<g>
</g>
<g>
</g>
<g>
</g>
<g>
</g>
<g>
</g>
<g>
</g>
<g>
</g>
<g>
</g>
<g>
</g>
<g>
</g>
<g>
</g>
<g>
</g>
<g>
</g>
</svg>
