<?xml version="1.0" encoding="iso-8859-1"?>
<!-- Generator: Adobe Illustrator 19.0.0, SVG Export Plug-In . SVG Version: 6.00 Build 0)  -->
<svg version="1.1" id="Capa_1" xmlns="http://www.w3.org/2000/svg" xmlns:xlink="http://www.w3.org/1999/xlink" x="0px" y="0px"
	 viewBox="0 0 512 512" style="enable-background:new 0 0 512 512;" xml:space="preserve">
<rect x="32" y="412" style="fill:#A0556E;" width="80" height="88"/>
<rect x="32" y="412" style="fill:#82465A;" width="80" height="24"/>
<path style="fill:#E8F7FF;" d="M40,420h72v-32H40c-8.837,0-16,7.163-16,16l0,0C24,412.837,31.163,420,40,420z"/>
<path style="fill:#D2F0FF;" d="M32,412c0,4.418,3.582,8,8,8h72v-16H40C35.582,404,32,407.582,32,412z"/>
<g>
	<path style="fill:#AA6478;" d="M152.176,140h-32.352c-4.349,0-7.901,3.474-7.998,7.822L104,500h64l-7.826-352.178
		C160.077,143.474,156.525,140,152.176,140z"/>
	<path style="fill:#AA6478;" d="M232.484,228h-16.969c-4.225,0-7.721,3.285-7.984,7.501L200,356h48l-7.531-120.499
		C240.205,231.285,236.709,228,232.484,228z"/>
</g>
<g>
	<path style="fill:#BE788C;" d="M119.824,140c-4.349,0-7.901,3.474-7.998,7.822L111.467,164h49.066l-0.359-16.178
		c-0.097-4.348-3.649-7.822-7.998-7.822H119.824z"/>
	<path style="fill:#BE788C;" d="M215.516,228c-4.225,0-7.721,3.285-7.984,7.501L206.5,252h35l-1.031-16.499
		c-0.264-4.216-3.76-7.501-7.984-7.501H215.516z"/>
</g>
<path style="fill:#AA6478;" d="M312.484,228h-16.969c-4.225,0-7.721,3.285-7.984,7.501L280,356h48l-7.531-120.499
	C320.205,231.285,316.709,228,312.484,228z"/>
<path style="fill:#BE788C;" d="M295.516,228c-4.225,0-7.721,3.285-7.984,7.501L286.5,252h35l-1.031-16.499
	c-0.264-4.216-3.76-7.501-7.984-7.501H295.516z"/>
<path style="fill:#AA6478;" d="M392.484,228h-16.969c-4.225,0-7.721,3.285-7.984,7.501L360,356h48l-7.531-120.499
	C400.205,231.285,396.709,228,392.484,228z"/>
<g>
	<path style="fill:#BE788C;" d="M375.516,228c-4.225,0-7.721,3.285-7.984,7.501L366.5,252h35l-1.031-16.499
		c-0.264-4.216-3.76-7.501-7.984-7.501H375.516z"/>
	<rect x="136" y="380" style="fill:#BE788C;" width="336" height="120"/>
</g>
<rect x="136" y="380" style="fill:#AA6478;" width="336" height="24"/>
<g>
	<path style="fill:#6482BE;" d="M192,444c-4.422,0-8-3.582-8-8v-16c0-4.418,3.578-8,8-8s8,3.582,8,8v16
		C200,440.418,196.422,444,192,444z"/>
	<path style="fill:#6482BE;" d="M224,444c-4.422,0-8-3.582-8-8v-16c0-4.418,3.578-8,8-8s8,3.582,8,8v16
		C232,440.418,228.422,444,224,444z"/>
	<path style="fill:#6482BE;" d="M256,444c-4.422,0-8-3.582-8-8v-16c0-4.418,3.578-8,8-8s8,3.582,8,8v16
		C264,440.418,260.422,444,256,444z"/>
	<path style="fill:#6482BE;" d="M288,444c-4.422,0-8-3.582-8-8v-16c0-4.418,3.578-8,8-8s8,3.582,8,8v16
		C296,440.418,292.422,444,288,444z"/>
	<path style="fill:#6482BE;" d="M320,444c-4.422,0-8-3.582-8-8v-16c0-4.418,3.578-8,8-8s8,3.582,8,8v16
		C328,440.418,324.422,444,320,444z"/>
	<path style="fill:#6482BE;" d="M352,444c-4.422,0-8-3.582-8-8v-16c0-4.418,3.578-8,8-8s8,3.582,8,8v16
		C360,440.418,356.422,444,352,444z"/>
	<path style="fill:#6482BE;" d="M384,444c-4.422,0-8-3.582-8-8v-16c0-4.418,3.578-8,8-8s8,3.582,8,8v16
		C392,440.418,388.422,444,384,444z"/>
	<path style="fill:#6482BE;" d="M416,444c-4.422,0-8-3.582-8-8v-16c0-4.418,3.578-8,8-8s8,3.582,8,8v16
		C424,440.418,420.422,444,416,444z"/>
</g>
<path style="fill:#D2F0FF;" d="M504,508H8c-4.422,0-8-3.582-8-8s3.578-8,8-8h496c4.422,0,8,3.582,8,8S508.422,508,504,508z"/>
<path style="fill:#E8F7FF;" d="M144,388h320c8.837,0,16-7.163,16-16l0,0c0-8.837-7.163-16-16-16H144c-8.837,0-16,7.163-16,16l0,0
	C128,380.837,135.163,388,144,388z"/>
<path style="fill:#D2F0FF;" d="M464,388H144c-4.418,0-8-3.582-8-8l0,0c0-4.418,3.582-8,8-8h320c4.418,0,8,3.582,8,8l0,0
	C472,384.418,468.418,388,464,388z"/>
<g>
	<path style="fill:#506EAA;" d="M192,412L192,412c-4.418,0-8,3.582-8,8v8h16v-8C200,415.582,196.418,412,192,412z"/>
	<path style="fill:#506EAA;" d="M224,412L224,412c-4.418,0-8,3.582-8,8v8h16v-8C232,415.582,228.418,412,224,412z"/>
	<path style="fill:#506EAA;" d="M256,412L256,412c-4.418,0-8,3.582-8,8v8h16v-8C264,415.582,260.418,412,256,412z"/>
	<path style="fill:#506EAA;" d="M288,412L288,412c-4.418,0-8,3.582-8,8v8h16v-8C296,415.582,292.418,412,288,412z"/>
	<path style="fill:#506EAA;" d="M320,412L320,412c-4.418,0-8,3.582-8,8v8h16v-8C328,415.582,324.418,412,320,412z"/>
	<path style="fill:#506EAA;" d="M352,412L352,412c-4.418,0-8,3.582-8,8v8h16v-8C360,415.582,356.418,412,352,412z"/>
	<path style="fill:#506EAA;" d="M384,412L384,412c-4.418,0-8,3.582-8,8v8h16v-8C392,415.582,388.418,412,384,412z"/>
	<path style="fill:#506EAA;" d="M416,412L416,412c-4.418,0-8,3.582-8,8v8h16v-8C424,415.582,420.418,412,416,412z"/>
</g>
<path style="fill:#E8F7FF;" d="M416,4c-23.714,0-45.195,9.426-61.02,24.678C343.615,18.349,328.568,12,312,12
	c-19.363,0-36.679,8.634-48.415,22.222C256.615,30.278,248.58,28,240,28c-22.248,0-40.907,15.158-46.348,35.695
	C189.597,61.412,184.985,60,180,60c-14.885,0-26.94,11.65-27.83,26.312C149.772,84.876,146.999,84,144,84c-8.836,0-16,7.163-16,16
	c0,8.836,7.164,16,16,16c6.68,0,12.392-4.099,14.787-9.915C163.923,112.103,171.469,116,180,116c8.951,0,16.829-4.277,21.954-10.813
	C210.729,116.607,224.484,124,240,124c8.58,0,16.615-2.278,23.585-6.222C275.321,131.366,292.637,140,312,140
	c9.549,0,18.577-2.149,26.716-5.898C353.644,161.446,382.652,180,416,180c48.601,0,88-39.399,88-88S464.601,4,416,4z"/>
<path style="fill:#D2F0FF;" d="M448,140c-32.361,0-60.635-17.472-75.921-43.493c-0.803-1.368-2.423-1.907-3.89-1.305
	C360.723,98.269,352.571,100,344,100c-23.927,0-44.74-13.157-55.717-32.607c-0.762-1.35-2.309-1.927-3.779-1.437
	C280.569,67.265,276.374,68,272,68c-21.861,0-39.564-17.555-39.932-39.328c-18.652,3.11-33.636,16.982-38.416,35.022
	C189.597,61.412,184.985,60,180,60c-14.885,0-26.94,11.65-27.83,26.312C149.772,84.876,146.999,84,144,84
	c-9.914,0-17.722,9.016-15.67,19.297c1.207,6.048,6.164,11.069,12.199,12.337c8.119,1.707,15.457-2.747,18.259-9.549
	C163.923,112.103,171.469,116,180,116c8.951,0,16.829-4.277,21.954-10.813C210.729,116.607,224.484,124,240,124
	c8.58,0,16.615-2.278,23.585-6.222C275.321,131.366,292.637,140,312,140c9.549,0,18.577-2.149,26.716-5.898
	C353.644,161.446,382.652,180,416,180c37.069,0,68.723-22.95,81.687-55.391C483.544,134.306,466.443,140,448,140z"/>
<g>
</g>
<g>
</g>
<g>
</g>
<g>
</g>
<g>
</g>
<g>
</g>
<g>
</g>
<g>
</g>
<g>
</g>
<g>
</g>
<g>
</g>
<g>
</g>
<g>
</g>
<g>
</g>
<g>
</g>
</svg>
