<?xml version="1.0" encoding="iso-8859-1"?>
<!-- Generator: Adobe Illustrator 19.0.0, SVG Export Plug-In . SVG Version: 6.00 Build 0)  -->
<svg version="1.1" id="Capa_1" xmlns="http://www.w3.org/2000/svg" xmlns:xlink="http://www.w3.org/1999/xlink" x="0px" y="0px"
	 viewBox="0 0 512 512" style="enable-background:new 0 0 512 512;" xml:space="preserve">
<path style="fill:#E1EFFB;" d="M276.862,0H79.788c-6.166,0-11.165,4.999-11.165,11.165v424.591c0,6.167,4.999,11.165,11.165,11.165
	h310.217c6.167,0,11.165-4.999,11.165-11.165V124.308L276.862,0z"/>
<path style="fill:#CCDFED;" d="M392.149,115.287H286.816v23.248c0,5.649,4.58,10.229,10.229,10.229h64.236v286.993
	c0,6.167-4.999,11.165-11.165,11.165h6.118h27.652h6.118c6.166,0,11.165-4.999,11.165-11.165V124.308L392.149,115.287z"/>
<g>
	<path style="fill:#61AFF6;" d="M171.965,316.721H96.762c-4.227,0-7.654-3.427-7.654-7.654s3.426-7.654,7.654-7.654h75.203
		c4.227,0,7.654,3.427,7.654,7.654C179.619,313.295,176.193,316.721,171.965,316.721z"/>
	<path style="fill:#61AFF6;" d="M171.965,359.976H96.762c-4.227,0-7.654-3.427-7.654-7.654s3.426-7.654,7.654-7.654h75.203
		c4.227,0,7.654,3.427,7.654,7.654S176.193,359.976,171.965,359.976z"/>
</g>
<g>
	<path style="fill:#FF6D3A;" d="M364.077,167.868H96.762c-4.227,0-7.654-3.427-7.654-7.654s3.426-7.654,7.654-7.654h267.315
		c4.227,0,7.654,3.427,7.654,7.654S368.304,167.868,364.077,167.868z"/>
	<path style="fill:#FF6D3A;" d="M195.496,211.123H96.762c-4.227,0-7.654-3.427-7.654-7.654s3.426-7.654,7.654-7.654h98.734
		c4.227,0,7.654,3.427,7.654,7.654C203.15,207.696,199.724,211.123,195.496,211.123z"/>
	<path style="fill:#FF6D3A;" d="M200.531,124.614H96.762c-4.227,0-7.654-3.427-7.654-7.654s3.426-7.654,7.654-7.654h103.769
		c4.227,0,7.654,3.427,7.654,7.654C208.184,121.187,204.758,124.614,200.531,124.614z"/>
</g>
<path style="fill:#FF4C4C;" d="M276.862,114.079V0L401.17,124.308H287.091C281.442,124.308,276.862,119.729,276.862,114.079z"/>
<path style="fill:#F96B6B;" d="M291.958,102.523V32.794l75.981,75.981H298.21C294.757,108.776,291.958,105.977,291.958,102.523z"/>
<path style="fill:#61AFF6;" d="M207.428,422.573c-1.959,0-3.917-0.747-5.412-2.242c-2.989-2.989-2.989-7.835,0-10.824l36.339-36.339
	c2.99-2.989,7.835-2.989,10.825,0c2.989,2.989,2.989,7.835,0,10.824l-36.339,36.339
	C211.345,421.826,209.386,422.573,207.428,422.573z"/>
<path style="fill:#2D5872;" d="M408.596,213.752c-46.376-46.376-121.566-46.376-167.941,0c-46.376,46.376-46.376,121.566,0,167.941
	s121.566,46.376,167.941,0C454.971,335.318,454.971,260.128,408.596,213.752z"/>
<path style="fill:#FFFFFF;" d="M390.377,231.971c-36.314-36.314-95.19-36.314-131.504,0c-36.314,36.314-36.314,95.19,0,131.504
	c36.314,36.314,95.19,36.314,131.504,0C426.691,327.161,426.691,268.284,390.377,231.971z"/>
<path style="fill:#F2F2F2;" d="M383.765,235.271c-4.427-4.427-9.219-8.264-14.275-11.523
	c21.464,33.296,17.627,78.166-11.523,107.316c-29.15,29.15-74.021,32.987-107.316,11.523c3.259,5.056,7.096,9.848,11.523,14.275
	c33.577,33.577,88.015,33.576,121.591,0S417.341,268.848,383.765,235.271z"/>
<path style="fill:#775146;" d="M130.689,509.654l-17.995-17.995c-3.129-3.129-3.129-8.201,0-11.33l79.976-79.976
	c3.129-3.129,8.201-3.129,11.33,0l17.995,17.995c3.129,3.129,3.129,8.201,0,11.33l-79.976,79.976
	C138.89,512.782,133.817,512.782,130.689,509.654z"/>
<path style="fill:#534741;" d="M221.995,418.347l-8.997-8.997l-91.306,91.306l8.997,8.997c3.129,3.129,8.201,3.129,11.33,0
	l79.976-79.976C225.123,426.549,225.123,421.476,221.995,418.347z"/>
<g>
</g>
<g>
</g>
<g>
</g>
<g>
</g>
<g>
</g>
<g>
</g>
<g>
</g>
<g>
</g>
<g>
</g>
<g>
</g>
<g>
</g>
<g>
</g>
<g>
</g>
<g>
</g>
<g>
</g>
</svg>
