<?xml version="1.0" encoding="iso-8859-1"?>
<!-- Generator: Adobe Illustrator 19.0.0, SVG Export Plug-In . SVG Version: 6.00 Build 0)  -->
<svg version="1.1" id="Capa_1" xmlns="http://www.w3.org/2000/svg" xmlns:xlink="http://www.w3.org/1999/xlink" x="0px" y="0px"
	 viewBox="0 0 512 512" style="enable-background:new 0 0 512 512;" xml:space="preserve">
<path style="fill:#D4D0BA;" d="M503.706,81.174c5.585,0,9.571,5.411,7.917,10.745l-75.658,243.968l-52.302,168.654
	c-1.076,3.469-4.284,5.833-7.917,5.833h-52.881V81.174H503.706z"/>
<path style="fill:#C1BCA4;" d="M477.91,81.174l-41.946,254.713l-52.302,168.654c-1.076,3.469-4.284,5.833-7.917,5.833h-52.881
	V81.174H477.91z"/>
<path style="fill:#EFEADD;" d="M446.595,57.892c5.115,0,9.01,4.588,8.179,9.636L407.85,352.5l-24.854,150.932
	c-0.659,4.005-4.121,6.942-8.179,6.942h-86.099V57.892H446.595z"/>
<path style="fill:#D4D0BA;" d="M407.849,57.892V352.5l-24.853,150.932c-0.659,4.005-4.121,6.942-8.179,6.942h-86.099V57.892H407.849
	z"/>
<path style="fill:#FBC176;" d="M134.93,35.191L104.892,4.15c-1.561-1.613-3.711-2.525-5.957-2.525H8.289
	C3.711,1.625,0,5.337,0,9.914v446.908v45.263c0,4.578,3.711,8.289,8.289,8.289h365.275c4.578,0,8.289-3.711,8.289-8.289V46.005
	c0-4.578-3.711-8.289-8.289-8.289H140.887C138.642,37.716,136.492,36.805,134.93,35.191z"/>
<path style="fill:#DB9F5D;" d="M373.564,510.375h-20.04V37.716h20.04c4.578,0,8.289,3.711,8.289,8.289v456.081
	C381.853,506.665,378.142,510.375,373.564,510.375z"/>
<path style="fill:#35C9A6;" d="M96.233,171.209H73.738c-4.076,0-7.379-3.304-7.379-7.379v-22.494c0-4.076,3.304-7.379,7.379-7.379
	h22.494c4.076,0,7.379,3.304,7.379,7.379v22.494C103.612,167.905,100.308,171.209,96.233,171.209z"/>
<g>
	<path style="fill:#EFEADD;" d="M311.614,178.98H141.643c-4.293,0-7.771-3.479-7.771-7.771c0-4.292,3.478-7.771,7.771-7.771h169.971
		c4.293,0,7.771,3.479,7.771,7.771C319.385,175.501,315.907,178.98,311.614,178.98z"/>
	<path style="fill:#EFEADD;" d="M182.777,152.98h-41.134c-4.293,0-7.771-3.479-7.771-7.771s3.478-7.771,7.771-7.771h41.134
		c4.293,0,7.771,3.479,7.771,7.771S187.07,152.98,182.777,152.98z"/>
</g>
<path style="fill:#35C9A6;" d="M96.233,293.254H73.738c-4.076,0-7.379-3.304-7.379-7.379v-22.494c0-4.076,3.304-7.379,7.379-7.379
	h22.494c4.076,0,7.379,3.304,7.379,7.379v22.494C103.612,289.951,100.308,293.254,96.233,293.254z"/>
<g>
	<path style="fill:#EFEADD;" d="M311.614,301.025H141.643c-4.293,0-7.771-3.479-7.771-7.771s3.478-7.771,7.771-7.771h169.971
		c4.293,0,7.771,3.479,7.771,7.771S315.907,301.025,311.614,301.025z"/>
	<path style="fill:#EFEADD;" d="M182.777,275.026h-41.134c-4.293,0-7.771-3.479-7.771-7.771s3.478-7.771,7.771-7.771h41.134
		c4.293,0,7.771,3.479,7.771,7.771S187.07,275.026,182.777,275.026z"/>
</g>
<path style="fill:#35C9A6;" d="M96.233,415.3H73.738c-4.076,0-7.379-3.304-7.379-7.379v-22.494c0-4.076,3.304-7.379,7.379-7.379
	h22.494c4.076,0,7.379,3.304,7.379,7.379v22.494C103.612,411.996,100.308,415.3,96.233,415.3z"/>
<g>
	<path style="fill:#EFEADD;" d="M311.614,423.071H141.643c-4.293,0-7.771-3.479-7.771-7.771s3.478-7.771,7.771-7.771h169.971
		c4.293,0,7.771,3.479,7.771,7.771S315.907,423.071,311.614,423.071z"/>
	<path style="fill:#EFEADD;" d="M182.777,397.071h-41.134c-4.293,0-7.771-3.479-7.771-7.771c0-4.292,3.478-7.771,7.771-7.771h41.134
		c4.293,0,7.771,3.479,7.771,7.771C190.548,393.591,187.07,397.071,182.777,397.071z"/>
</g>
<g>
</g>
<g>
</g>
<g>
</g>
<g>
</g>
<g>
</g>
<g>
</g>
<g>
</g>
<g>
</g>
<g>
</g>
<g>
</g>
<g>
</g>
<g>
</g>
<g>
</g>
<g>
</g>
<g>
</g>
</svg>
