<?xml version="1.0" encoding="iso-8859-1"?>
<!-- Generator: Adobe Illustrator 19.0.0, SVG Export Plug-In . SVG Version: 6.00 Build 0)  -->
<svg version="1.1" id="Capa_1" xmlns="http://www.w3.org/2000/svg" xmlns:xlink="http://www.w3.org/1999/xlink" x="0px" y="0px"
	 viewBox="0 0 512 512" style="enable-background:new 0 0 512 512;" xml:space="preserve">
<path style="fill:#C4A0DE;" d="M256,0C158.944,0,79.984,78.96,79.984,176.016c0,51.297,28.676,123.051,85.23,213.268
	c41.775,66.641,84.14,119.265,84.563,119.789c3.152,3.902,9.297,3.903,12.448,0c0.423-0.524,42.788-53.148,84.563-119.789
	c56.553-90.217,85.229-161.971,85.229-213.268C432.016,78.96,353.056,0,256,0z"/>
<path style="fill:#AE85CC;" d="M189.216,389.284c-56.554-90.217-85.23-161.972-85.23-213.268
	c0-93.021,72.537-169.408,164.015-175.599C264.034,0.149,260.034,0,256,0C158.944,0,79.984,78.96,79.984,176.016
	c0,51.297,28.676,123.051,85.23,213.268c41.775,66.641,84.14,119.265,84.563,119.789c3.151,3.902,9.297,3.903,12.448,0
	c0.092-0.114,2.164-2.688,5.777-7.327C254.979,485.027,221.917,441.452,189.216,389.284z"/>
<path style="fill:#F3F1F1;" d="M256,40.004c-74.997,0-136.012,61.014-136.012,136.012S181.003,312.028,256,312.028
	s136.012-61.014,136.012-136.012S330.997,40.004,256,40.004z"/>
<path style="fill:#FF7883;" d="M324.806,145.613L260.8,97.609c-2.844-2.134-6.757-2.134-9.601,0l-64.006,48.004
	c-2.015,1.511-3.2,3.882-3.2,6.401v96.009c0,4.418,3.582,8.001,8.001,8.001h40.004c4.418,0,8.001-3.582,8.001-8.001v-40.004h32.003
	v40.004c0,4.418,3.582,8.001,8.001,8.001h40.004c4.418,0,8.001-3.582,8.001-8.001v-96.009
	C328.006,149.495,326.82,147.124,324.806,145.613z"/>
<g>
	<path style="fill:#FFA1AF;" d="M272.001,176.016h-32.003c-4.418,0-8.001-3.582-8.001-8.001s3.582-8.001,8.001-8.001h32.003
		c4.418,0,8.001,3.582,8.001,8.001S276.42,176.016,272.001,176.016z"/>
	<path style="fill:#FFA1AF;" d="M264.001,152.014h-16.001c-4.418,0-8.001-3.582-8.001-8.001s3.582-8.001,8.001-8.001h16.001
		c4.418,0,8.001,3.582,8.001,8.001S268.419,152.014,264.001,152.014z"/>
</g>
<g>
</g>
<g>
</g>
<g>
</g>
<g>
</g>
<g>
</g>
<g>
</g>
<g>
</g>
<g>
</g>
<g>
</g>
<g>
</g>
<g>
</g>
<g>
</g>
<g>
</g>
<g>
</g>
<g>
</g>
</svg>
