<svg height="512pt" viewBox="-51 0 512 512" width="512pt" xmlns="http://www.w3.org/2000/svg"><path d="m58.042969 331.011719 12.5-8.691407c65.484375 94.171876 204.300781 94.066407 269.714843 0 2.398438-3.453124 7.140626-4.304687 10.59375-1.90625 3.453126 2.402344 4.304688 7.144532 1.90625 10.597657-71.195312 102.378906-223.074218 103.015625-294.714843 0zm0 0" fill="#fee55a"/><path d="m349.128906 475.285156h35.660156c.597657 0 1.179688.058594 1.757813.144532v-126.351563c-5.082031 5.105469-11.984375 8.25-19.585937 8.25-7.605469 0-14.507813-3.144531-19.589844-8.25v126.351563c.578125-.085938 1.160156-.144532 1.757812-.144532zm0 0" fill="#6c7ed6"/><path d="m377.929688 355.011719c-3.375 1.488281-7.078126 2.316406-10.96875 2.316406-7.609376 0-14.507813-3.144531-19.589844-8.25v126.351563c.578125-.085938 1.160156-.144532 1.757812-.144532h28.800782zm0 0" fill="#4f67d2"/><path d="m311.535156 0h-212.269531c-6.070313 0-11.039063 4.96875-11.039063 11.039062v121.542969c0 6.070313 4.96875 11.039063 11.039063 11.039063h212.269531c6.070313 0 11.039063-4.96875 11.039063-11.039063v-121.542969c0-6.070312-4.96875-11.039062-11.039063-11.039062zm0 0" fill="#fee55a"/><path d="m118.417969 132.582031v-121.542969c0-6.070312 4.96875-11.039062 11.042969-11.039062h-30.195313c-6.070313 0-11.039063 4.96875-11.039063 11.039062v121.542969c0 6.070313 4.96875 11.039063 11.039063 11.039063h30.195313c-6.074219 0-11.042969-4.96875-11.042969-11.039063zm0 0" fill="#ffd301"/><path d="m347.566406 171.363281h-89.347656c-6.070312 0-11.039062 4.964844-11.039062 11.039063v89.34375c0 6.074218 4.96875 11.042968 11.039062 11.042968h89.347656c6.070313 0 11.039063-4.96875 11.039063-11.042968v-89.34375c0-6.074219-4.96875-11.039063-11.039063-11.039063zm0 0" fill="#ff8188"/><path d="m277.453125 271.746094v-89.34375c0-6.074219 4.96875-11.039063 11.042969-11.039063h-30.277344c-6.074219 0-11.039062 4.964844-11.039062 11.039063v89.34375c0 6.074218 4.964843 11.042968 11.039062 11.042968h30.277344c-6.074219 0-11.042969-4.96875-11.042969-11.042968zm0 0" fill="#ff656f"/><path d="m52.195312 182.402344v89.34375c0 6.074218 4.96875 11.042968 11.042969 11.042968h143.019531c6.070313 0 11.039063-4.96875 11.039063-11.042968v-89.34375c0-6.074219-4.96875-11.039063-11.039063-11.039063h-143.019531c-6.074219 0-11.042969 4.964844-11.042969 11.039063zm0 0" fill="#43cb8e"/><path d="m82.472656 271.746094v-89.34375c0-6.074219 4.96875-11.039063 11.042969-11.039063h-30.277344c-6.074219 0-11.042969 4.964844-11.042969 11.039063v89.34375c0 6.074218 4.96875 11.042968 11.042969 11.042968h30.277344c-6.074219 0-11.042969-4.96875-11.042969-11.042968zm0 0" fill="#00ba66"/><path d="m395.238281 330.757812c0 15.617188-12.660156 28.277344-28.277343 28.277344-15.621094 0-28.28125-12.660156-28.28125-28.277344 0-15.617187 12.660156-28.28125 28.28125-28.28125 15.617187 0 28.277343 12.664063 28.277343 28.28125zm0 0" fill="#b1dbfc"/><path d="m369.238281 330.757812c0-9.988281 5.183594-18.761718 13-23.792968-4.40625-2.835938-9.648437-4.488282-15.277343-4.488282-15.617188 0-28.28125 12.664063-28.28125 28.28125 0 15.617188 12.664062 28.277344 28.28125 28.277344 5.628906 0 10.871093-1.652344 15.277343-4.488281-7.820312-5.03125-13-13.804687-13-23.789063zm0 0" fill="#8cc9f9"/><path d="m384.789062 471.867188h-35.660156c-7 0-12.726562 5.726562-12.726562 12.726562v19.792969h61.113281v-19.792969c0-7-5.726563-12.726562-12.726563-12.726562zm0 0" fill="#4f67d2"/><path d="m379.683594 471.867188h-30.554688c-7 0-12.726562 5.726562-12.726562 12.726562v19.792969h30.558594v-19.792969c0-7 5.722656-12.726562 12.722656-12.726562zm0 0" fill="#324ccc"/><path d="m403.191406 512h-72.464844c-4.203124 0-7.609374-3.40625-7.609374-7.609375 0-4.207031 3.40625-7.613281 7.609374-7.613281h72.464844c4.203125 0 7.609375 3.410156 7.609375 7.613281.003907 4.203125-3.40625 7.609375-7.609375 7.609375zm0 0" fill="#6c7ed6"/><path d="m294.976562 24.839844h-179.148437c-1.523437 0-2.761719 1.234375-2.761719 2.761718v88.417969c0 1.527344 1.238282 2.761719 2.761719 2.761719h179.148437c1.523438 0 2.757813-1.234375 2.757813-2.761719v-88.417969c0-1.527343-1.234375-2.761718-2.757813-2.761718zm0 0" fill="#ffbb7e"/><path d="m143.257812 116.019531v-88.417969c0-1.527343 1.238282-2.761718 2.761719-2.761718h-30.191406c-1.523437 0-2.761719 1.234375-2.761719 2.761718v88.417969c0 1.527344 1.238282 2.761719 2.761719 2.761719h30.191406c-1.523437 0-2.761719-1.234375-2.761719-2.761719zm0 0" fill="#ffa85d"/><path d="m331.003906 196.199219h-56.226562c-1.523438 0-2.757813 1.238281-2.757813 2.761719v56.226562c0 1.523438 1.234375 2.761719 2.757813 2.761719h56.226562c1.523438 0 2.761719-1.238281 2.761719-2.761719v-56.226562c0-1.523438-1.238281-2.761719-2.761719-2.761719zm0 0" fill="#ff656f"/><path d="m302.296875 255.1875v-56.226562c0-1.523438 1.234375-2.761719 2.757813-2.761719h-30.277344c-1.523438 0-2.757813 1.238281-2.757813 2.761719v56.226562c0 1.523438 1.234375 2.761719 2.757813 2.761719h30.277344c-1.523438 0-2.757813-1.238281-2.757813-2.761719zm0 0" fill="#ff4756"/><path d="m77.035156 198.960938v56.226562c0 1.523438 1.238282 2.761719 2.761719 2.761719h109.898437c1.527344 0 2.761719-1.238281 2.761719-2.761719v-56.226562c0-1.523438-1.234375-2.761719-2.761719-2.761719h-109.898437c-1.523437 0-2.761719 1.238281-2.761719 2.761719zm0 0" fill="#00ba66"/><path d="m107.3125 255.1875v-56.226562c0-1.523438 1.238281-2.761719 2.761719-2.761719h-30.277344c-1.523437 0-2.761719 1.238281-2.761719 2.761719v56.226562c0 1.523438 1.238282 2.761719 2.761719 2.761719h30.277344c-1.523438 0-2.761719-1.238281-2.761719-2.761719zm0 0" fill="#01a755"/><path d="m26.011719 475.285156h35.664062c.59375 0 1.179688.058594 1.753907.144532v-126.351563c-5.082032 5.105469-11.980469 8.25-19.585938 8.25s-14.503906-3.144531-19.585938-8.25v126.351563c.574219-.085938 1.15625-.144532 1.753907-.144532zm0 0" fill="#6c7ed6"/><path d="m54.8125 355.011719c-3.371094 1.488281-7.078125 2.316406-10.96875 2.316406-7.605469 0-14.503906-3.144531-19.585938-8.25v126.351563c.574219-.085938 1.15625-.144532 1.753907-.144532h28.800781zm0 0" fill="#4f67d2"/><path d="m72.121094 330.757812c0 15.617188-12.660156 28.277344-28.277344 28.277344s-28.28125-12.660156-28.28125-28.277344c0-15.617187 12.664062-28.28125 28.28125-28.28125s28.277344 12.664063 28.277344 28.28125zm0 0" fill="#b1dbfc"/><path d="m46.121094 330.757812c0-9.988281 5.183594-18.761718 13-23.792968-4.40625-2.835938-9.648438-4.488282-15.277344-4.488282-15.617188 0-28.277344 12.664063-28.277344 28.28125 0 15.617188 12.660156 28.277344 28.277344 28.277344 5.628906 0 10.871094-1.652344 15.277344-4.488281-7.816406-5.03125-13-13.804687-13-23.789063zm0 0" fill="#8cc9f9"/><path d="m61.675781 471.867188h-35.664062c-7 0-12.726563 5.726562-12.726563 12.726562v19.792969h61.113282v-19.792969c0-7-5.726563-12.726562-12.722657-12.726562zm0 0" fill="#4f67d2"/><path d="m56.566406 471.867188h-30.554687c-7 0-12.726563 5.726562-12.726563 12.726562v19.792969h30.558594v-19.792969c0-7 5.726562-12.726562 12.722656-12.726562zm0 0" fill="#324ccc"/><path d="m80.074219 512h-72.464844c-4.203125 0-7.609375-3.40625-7.609375-7.609375 0-4.207031 3.40625-7.613281 7.609375-7.613281h72.464844c4.203125 0 7.613281 3.410156 7.613281 7.613281s-3.410156 7.609375-7.613281 7.609375zm0 0" fill="#6c7ed6"/></svg>