<svg height="512pt" viewBox="0 0 512 512.001" width="512pt" xmlns="http://www.w3.org/2000/svg"><path d="m494.320312 144.101562h-57.351562v-125.148437c0-10.46875-8.484375-18.953125-18.953125-18.953125h-399.070313c-10.460937 0-18.945312 8.476562-18.945312 18.9375v455.570312c0 20.707032 16.789062 37.492188 37.496094 37.492188h436.96875c20.707031 0 37.492187-16.785156 37.492187-37.492188v-312.769531c0-9.738281-7.894531-17.636719-17.636719-17.636719zm0 0" fill="#f3e8d6"/><path d="m436.96875 474.507812v-455.070312c0-10.464844-8.484375-18.953125-18.953125-18.953125h-399.0625c-10.464844 0-18.953125 8.484375-18.953125 18.953125v455.070312c0 20.707032 16.789062 37.492188 37.496094 37.492188h436.96875c-20.707032 0-37.496094-16.785156-37.496094-37.492188zm0 0" fill="#f3e8d6"/><path d="m436.96875 474.507812v-455.070312c0-10.464844-8.484375-18.953125-18.953125-18.953125h-61.546875c10.46875 0 18.953125 8.488281 18.953125 18.953125v455.070312c0 20.707032 16.789063 37.492188 37.496094 37.492188h61.546875c-20.707032 0-37.496094-16.785156-37.496094-37.492188zm0 0" fill="#dbcdbd"/><g fill="#236575"><path d="m387.558594 205.933594h-337.160156c-4.265626 0-7.726563-3.457032-7.726563-7.726563 0-4.265625 3.460937-7.726562 7.726563-7.726562h337.160156c4.269531 0 7.726562 3.460937 7.726562 7.726562 0 4.269531-3.460937 7.726563-7.726562 7.726563zm0 0"/><path d="m387.558594 273.980469h-143.40625c-4.269532 0-7.726563-3.457031-7.726563-7.722657 0-4.269531 3.460938-7.726562 7.726563-7.726562h143.40625c4.265625 0 7.726562 3.457031 7.726562 7.726562 0 4.265626-3.460937 7.722657-7.726562 7.722657zm0 0"/><path d="m387.558594 337.140625h-143.40625c-4.269532 0-7.726563-3.457031-7.726563-7.726563 0-4.265624 3.460938-7.722656 7.726563-7.722656h143.40625c4.265625 0 7.726562 3.457032 7.726562 7.722656 0 4.269532-3.460937 7.726563-7.726562 7.726563zm0 0"/><path d="m315.855469 400.300781h-71.703125c-4.269532 0-7.726563-3.457031-7.726563-7.726562 0-4.265625 3.460938-7.722657 7.726563-7.722657h71.703125c4.269531 0 7.726562 3.457032 7.726562 7.722657 0 4.269531-3.457031 7.726562-7.726562 7.726562zm0 0"/></g><path d="m186.132812 455.734375h-122.496093c-7.308594 0-13.238281-5.925781-13.238281-13.238281v-163c0-7.3125 5.929687-13.238282 13.238281-13.238282h122.492187c7.3125 0 13.242188 5.925782 13.242188 13.238282v163c0 7.3125-5.925782 13.238281-13.238282 13.238281zm0 0" fill="#ef9cc8"/><path d="m186.132812 266.253906h-48.308593v189.480469h48.308593c7.3125 0 13.238282-5.925781 13.238282-13.238281v-163c0-7.3125-5.925782-13.242188-13.238282-13.242188zm0 0" fill="#db6ea8"/><path d="m387.558594 63.949219h-337.160156c-4.265626 0-7.726563-3.457031-7.726563-7.726563 0-4.265625 3.460937-7.726562 7.726563-7.726562h337.160156c4.269531 0 7.726562 3.460937 7.726562 7.726562 0 4.269532-3.460937 7.726563-7.726562 7.726563zm0 0" fill="#236575"/><path d="m109.960938 158.40625-21.851563-40.859375v40.859375c0 2.746094-3.355469 4.167969-6.609375 4.167969-3.351562 0-6.605469-1.421875-6.605469-4.167969v-65.964844c0-2.84375 3.253907-4.167968 6.605469-4.167968 4.777344 0 6.707031 1.015624 9.859375 7.015624l19.617187 37.910157v-40.859375c0-2.847656 3.253907-4.066406 6.605469-4.066406 3.253907 0 6.609375 1.21875 6.609375 4.066406v66.066406c0 2.742188-3.355468 4.167969-6.609375 4.167969-3.148437 0-5.894531-1.015625-7.621093-4.167969zm0 0" fill="#fc7371"/><path d="m159.765625 120.191406h15.449219c2.644531 0 4.167968 2.539063 4.167968 5.285156 0 2.335938-1.324218 5.082032-4.167968 5.082032h-15.449219v20.429687h28.765625c2.640625 0 4.164062 2.742188 4.164062 5.894531 0 2.742188-1.320312 5.691407-4.164062 5.691407h-36.1875c-2.945312 0-5.792969-1.421875-5.792969-4.167969v-65.964844c0-2.742187 2.847657-4.167968 5.792969-4.167968h36.1875c2.84375 0 4.164062 2.949218 4.164062 5.691406 0 3.152344-1.523437 5.894531-4.164062 5.894531h-28.765625zm0 0" fill="#fc7371"/><path d="m272.992188 158.710938c-1.015626 3.050781-4.777344 4.472656-8.640626 4.472656-3.757812 0-7.722656-1.421875-8.433593-4.472656l-6.503907-27.441407-6.609374 27.441407c-.710938 3.050781-4.675782 4.472656-8.4375 4.472656-3.859376 0-7.722657-1.421875-8.636719-4.472656l-20.125-63.929688c-.101563-.304688-.203125-.8125-.203125-1.21875 0-2.949219 4.675781-5.289062 8.4375-5.289062 2.03125 0 3.863281.714843 4.371094 2.644531l16.058593 55.089843 8.640625-35.371093c.609375-2.539063 3.554688-3.660157 6.503906-3.660157 2.84375 0 5.792969 1.121094 6.402344 3.660157l8.640625 35.371093 16.058594-55.089843c.507813-1.929688 2.335937-2.644531 4.371094-2.644531 3.761719 0 8.433593 2.339843 8.433593 5.289062 0 .40625-.101562.914062-.203124 1.21875zm0 0" fill="#fc7371"/><path d="m341.296875 142.753906c0-15.246094-32.628906-10.570312-32.628906-34.660156 0-15.144531 13.011719-20.328125 24.699219-20.328125 6 0 19.3125 1.425781 19.3125 8.132813 0 2.335937-1.625 7.011718-5.285157 7.011718-3.152343 0-5.488281-3.859375-14.027343-3.859375-7.316407 0-11.484376 2.945313-11.484376 7.824219 0 12.605469 32.625 8.234375 32.625 34.558594 0 14.535156-10.164062 22.054687-24.1875 22.054687-13.316406 0-23.480468-6.707031-23.480468-12.601562 0-2.847657 2.644531-7.117188 5.792968-7.117188 4.167969 0 6.914063 7.828125 17.28125 7.828125 6.097657 0 11.382813-2.746094 11.382813-8.84375zm0 0" fill="#fc7371"/></svg>