<svg height="512pt" viewBox="0 -17 512 512" width="512pt" xmlns="http://www.w3.org/2000/svg"><path d="m210.898438 234.785156c-4.300782 0-7.789063-3.488281-7.789063-7.789062v-16.40625c0-4.304688 3.488281-7.789063 7.789063-7.789063 4.300781 0 7.785156 3.484375 7.785156 7.789063v16.40625c0 4.300781-3.484375 7.789062-7.785156 7.789062zm0 0" fill="#525252"/><path d="m300.226562 233.996094c-4.300781 0-7.785156-3.488282-7.785156-7.789063v-16.40625c0-4.300781 3.484375-7.789062 7.785156-7.789062 4.300782 0 7.789063 3.484375 7.789063 7.789062v16.40625c0 4.300781-3.488281 7.789063-7.789063 7.789063zm0 0" fill="#525252"/><path d="m255.984375 234.785156c-4.300781 0-7.785156-3.488281-7.785156-7.789062v-16.40625c0-4.304688 3.484375-7.789063 7.785156-7.789063s7.785156 3.484375 7.785156 7.789063v16.40625c.003907 4.300781-3.484375 7.789062-7.785156 7.789062zm0 0" fill="#525252"/><path d="m163.617188 131.761719v-12.203125c0-5.664063-4.640626-10.308594-10.308594-10.308594h-3.765625l-25.785157-9.253906-26.195312 9.253906h-3.765625c-5.664063 0-10.308594 4.644531-10.308594 10.308594v12.203125c0 5.664062 4.644531 10.304687 10.308594 10.304687l29.960937 10.800782 29.550782-10.800782c5.316406-1.957031 10.308594-4.640625 10.308594-10.304687zm0 0" fill="#ffcc73" fill-rule="evenodd"/><path d="m178.570312 337.386719-25.261718-195.320313h-59.511719l-23.652344 195.320313 55.777344 27.820312zm0 0" fill="#808080" fill-rule="evenodd"/><path d="m426.90625 131.761719v-12.203125c0-5.664063-4.644531-10.308594-10.308594-10.308594h-3.769531l-26.691406-18.539062-25.289063 18.539062h-3.765625c-5.695312 0-10.308593 4.644531-10.308593 10.308594v12.203125c0 5.664062 4.613281 10.304687 10.308593 10.304687l30.984375 17.898438 28.527344-17.898438c5.667969 0 10.3125-4.640625 10.3125-10.304687zm0 0" fill="#ffcc73" fill-rule="evenodd"/><path d="m149.542969 82.070312c0-4.703124 3.855469-8.554687 8.558593-8.554687h11.707032c7.769531 0 14.488281-4.816406 17.378906-11.652344h11.386719c16.792969 0 30.519531-13.925781 30.519531-30.917969 0-17.019531-13.726562-30.945312-30.519531-30.945312h-79.574219c-16.789062 0-30.546875 13.925781-30.546875 30.945312 0 1.433594.117187 2.863282.292969 4.265626h-7.972656c-10.394532 0-18.894532 8.609374-18.894532 19.152343 0 10.539063 8.5 19.148438 18.894532 19.148438h8.234374c4.703126 0 8.554688 3.855469 8.554688 8.554687v27.183594h51.980469zm0 0" fill="#e8e8e8" fill-rule="evenodd"/><path d="m441.828125 337.386719-25.230469-195.320313h-59.511718l-23.65625 195.320313 58.289062 27.820312zm0 0" fill="#808080" fill-rule="evenodd"/><path d="m111.757812 345.175781c-4.304687 0-7.789062-3.488281-7.789062-7.789062v-53.429688c0-9.976562 8.117188-18.09375 18.097656-18.09375h18.953125c4.300781 0 7.785157 3.488281 7.785157 7.789063 0 4.300781-3.484376 7.789062-7.785157 7.789062h-18.953125c-1.367187 0-2.523437 1.152344-2.523437 2.515625v53.429688c0 4.300781-3.484375 7.789062-7.785157 7.789062zm0 0" fill="#525252"/><path d="m400.214844 345.175781c-4.300782 0-7.785156-3.488281-7.785156-7.789062v-53.429688c0-1.363281-1.15625-2.519531-2.523438-2.519531h-18.953125c-4.300781 0-7.785156-3.484375-7.785156-7.785156 0-4.300782 3.484375-7.789063 7.785156-7.789063h18.953125c9.980469 0 18.097656 8.117188 18.097656 18.09375v53.429688c-.003906 4.300781-3.488281 7.789062-7.789062 7.789062zm0 0" fill="#525252"/><g fill-rule="evenodd"><path d="m412.828125 82.070312c0-4.703124 3.855469-8.554687 8.558594-8.554687h11.710937c7.765625 0 14.480469-4.816406 17.375-11.652344h11.359375c16.789063 0 30.542969-13.925781 30.542969-30.917969 0-17.019531-13.753906-30.945312-30.542969-30.945312h-79.574219c-16.792968 0-30.519531 13.925781-30.519531 30.945312 0 1.433594.085938 2.863282.292969 4.265626h-7.972656c-10.398438 0-18.894532 8.609374-18.894532 19.152343 0 10.539063 8.496094 19.148438 18.894532 19.148438h8.234375c4.703125 0 8.554687 3.855469 8.554687 8.554687v27.183594h51.980469zm0 0" fill="#e8e8e8"/><path d="m104.28125 131.761719v-12.203125c0-4.175782 2.511719-7.769532 6.105469-9.402344 1.28125-.582031 2.714843-.90625 4.203125-.90625h-20.792969c-5.664063 0-10.308594 4.644531-10.308594 10.308594v12.203125c0 .203125 0 .4375.03125.640625.320313 5.371094 4.816407 9.664062 10.277344 9.664062h20.792969c-5.664063 0-10.308594-4.640625-10.308594-10.304687zm0 0" fill="#f59556"/><path d="m90.9375 337.386719 22.777344-188.140625.757812-6.273438.117188-.90625h-20.792969l-.117187.90625-23.535157 194.414063zm0 0" fill="#525252"/><path d="m367.566406 131.761719v-12.203125c0-4.175782 2.511719-7.769532 6.074219-9.402344 1.285156-.582031 2.714844-.90625 4.230469-.90625h-20.785156c-5.695313 0-10.3125 4.644531-10.3125 10.308594v12.203125.640625c.351562 5.371094 4.847656 9.664062 10.3125 9.664062h20.789062c-5.664062 0-10.308594-4.640625-10.308594-10.304687zm0 0" fill="#f59556"/><path d="m463.351562 358.902344c0-11.824219-9.695312-21.515625-21.523437-21.515625h-81.179687v63.558593l47.742187 18.539063 54.929687-18.539063.03125-.90625zm0 0" fill="#ffcc73"/><path d="m367.597656 227.902344 9.402344-78.65625.757812-6.273438.117188-.90625h-20.789062l-.117188.90625-10.164062 84.929688zm0 0" fill="#525252"/><path d="m151.324219 400.945312v-63.558593h-81.179688c-11.828125 0-21.523437 9.691406-21.523437 21.515625v41.136718l.027344.90625 44.507812 18.539063zm0 0" fill="#ffcc73"/><path d="m370.953125 337.386719v-100.085938c0-5.664062-4.644531-10.304687-10.308594-10.304687h-209.320312c-5.664063 0-10.308594 4.640625-10.308594 10.304687v163.644531h229.9375zm0 0" fill="#e8e8e8"/><path d="m304.371094 320.742188c0-26.742188-21.664063-48.402344-48.386719-48.402344-26.71875 0-48.386719 21.660156-48.386719 48.402344 0 26.714843 21.667969 48.378906 48.386719 48.378906 26.722656 0 48.386719-21.664063 48.386719-48.378906zm0 0" fill="#ffcc73"/><path d="m160.496094 237.300781c0-4.171875 2.511718-7.765625 6.101562-9.398437 1.285156-.585938 2.71875-.90625 4.207032-.90625-6.484376 0-12.996094 0-19.476563 0-5.667969 0-10.308594 4.640625-10.308594 10.304687v163.644531h19.476563c0-54.539062 0-109.105468 0-163.644531zm0 0" fill="#ccc"/><path d="m255.984375 272.339844c-26.71875 0-48.386719 21.660156-48.386719 48.402344 0 26.714843 21.667969 48.378906 48.386719 48.378906 4.265625 0 8.410156-.554688 12.324219-1.605469-22.691406-3.972656-39.949219-23.792969-39.949219-47.648437 0-22.449219 15.332031-41.339844 36.066406-46.769532-2.746093-.496094-5.550781-.757812-8.441406-.757812zm0 0" fill="#f59556"/></g><path d="m252.59375 348.53125c-1.355469 0-2.722656-.351562-3.972656-1.09375-3.695313-2.195312-4.914063-6.972656-2.71875-10.671875l4.960937-8.351563h-3.433593c-2.746094 0-5.285157-1.441406-6.691407-3.800781-1.402343-2.355469-1.464843-5.277343-.160156-7.691406l10.777344-19.914063c2.046875-3.78125 6.773437-5.1875 10.554687-3.140624 3.78125 2.046874 5.1875 6.773437 3.144532 10.554687l-4.558594 8.417969h4.046875c2.796875 0 5.382812 1.5 6.765625 3.933594 1.386718 2.433593 1.359375 5.421874-.070313 7.828124l-11.941406 20.117188c-1.457031 2.453125-4.050781 3.8125-6.703125 3.8125zm0 0" fill="#525252"/><path d="m340.757812 267.6875h-27.417968c-4.304688 0-7.789063-3.484375-7.789063-7.785156 0-4.300782 3.484375-7.789063 7.789063-7.789063h27.417968c4.300782 0 7.789063 3.488281 7.789063 7.789063 0 4.296875-3.488281 7.785156-7.789063 7.785156zm0 0" fill="#525252"/><path d="m195.246094 267.6875h-27.421875c-4.300781 0-7.789063-3.484375-7.789063-7.785156 0-4.300782 3.488282-7.789063 7.789063-7.789063h27.421875c4.300781 0 7.785156 3.488281 7.785156 7.789063 0 4.296875-3.484375 7.785156-7.785156 7.785156zm0 0" fill="#525252"/><path d="m69.441406 358.902344c0-7.152344 3.503906-13.515625 8.90625-17.429688 1.925782-1.402344 4.089844-2.480468 6.425782-3.183594 1.957031-.585937 4.03125-.902343 6.160156-.902343h-20.789063c-11.828125 0-21.523437 9.691406-21.523437 21.515625v41.136718l.027344.902344h20.792968zm0 0" fill="#f59556" fill-rule="evenodd"/><path d="m389.816406 362.816406v-25.429687h-18.863281v63.558593h18.863281zm0 0" fill="#f59556" fill-rule="evenodd"/><path d="m370.953125 400.945312h-340.699219c-5.664062 0-10.308594 4.640626-10.308594 10.304688v30.21875l236.390626 17.398438 235.691406-17.398438v-30.21875c0-5.664062-4.644532-10.304688-10.308594-10.304688zm0 0" fill="#fa6969" fill-rule="evenodd"/><path d="m492.027344 441.46875h-481.75c-5.664063 0-10.277344 4.640625-10.277344 10.304688v14.917968c0 5.667969 4.613281 10.308594 10.277344 10.308594h491.414062c3.328125 0 6.277344-1.578125 8.175782-4.058594 1.316406-1.722656 2.132812-3.882812 2.132812-6.25v-14.917968c0-2.363282-.816406-4.523438-2.132812-6.277344-1.894532-2.453125-4.847657-4.027344-8.175782-4.027344zm0 0" fill="#808080" fill-rule="evenodd"/><path d="m50.8125 441.46875h-40.53125c-5.667969 0-10.28125 4.640625-10.28125 10.304688v14.917968.671875c.351562 5.34375 4.847656 9.636719 10.277344 9.636719h64.246094c-5.664063 0-10.308594-4.644531-10.308594-10.308594v-14.917968c0-2.628907.992187-5.023438 2.628906-6.863282.726562-.816406 1.605469-1.515625 2.566406-2.070312.292969-.175782.585938-.320313.90625-.46875 1.285156-.582032 2.714844-.902344 4.207032-.902344zm0 0" fill="#525252" fill-rule="evenodd"/><path d="m19.945312 441.46875h.027344zm30.867188 0v-30.21875c0-3.152344 1.429688-5.984375 3.679688-7.851562.730468-.613282 1.546874-1.140626 2.425781-1.546876 1.28125-.585937 2.714843-.90625 4.203125-.90625h-30.867188c-5.664062 0-10.308594 4.644532-10.308594 10.308594v30.214844zm0 0" fill="#c92858" fill-rule="evenodd"/></svg>