<svg height="512pt" viewBox="0 -23 512 512" width="512pt" xmlns="http://www.w3.org/2000/svg"><path d="m428.554688 26.785156h-413.101563c-8.535156 0-15.453125 6.917969-15.453125 15.453125v382.195313c0 8.535156 6.917969 15.453125 15.453125 15.453125h413.101563c8.535156 0 15.453124-6.917969 15.453124-15.453125v-382.195313c0-8.535156-6.917968-15.453125-15.453124-15.453125zm0 0" fill="#845036"/><path d="m397.648438 466.671875h-351.289063c-8.535156 0-15.453125-6.917969-15.453125-15.453125v-435.765625c0-8.535156 6.917969-15.453125 15.453125-15.453125h351.289063c8.535156 0 15.453124 6.917969 15.453124 15.453125v435.765625c0 8.535156-6.917968 15.453125-15.453124 15.453125zm0 0" fill="#fff"/><path d="m351.292969 30.90625h30.902343v269.652344h-30.902343zm0 0" fill="#efefef"/><path d="m283.300781 360.8125-78.058593-104.832031c-12.359376-16.597657-37.21875-16.597657-49.578126 0l-93.851562 126.042969v67.304687h295.488281zm0 0" fill="#83cc9a"/><path d="m357.296875 449.335938h-30.902344l-74-88.523438-37.105469-49.839844c12.804688-6.492187 19.996094-14.640625 19.996094-14.640625l48.015625 64.480469zm0 0" fill="#4aa05e"/><path d="m235.28125 296.332031s-44.699219 50.621094-109.660156 0l30.039062-40.351562c12.363282-16.597657 37.21875-16.597657 49.582032 0zm0 0" fill="#f7e1aa"/><path d="m235.28125 296.332031s-7.1875 8.148438-19.996094 14.640625l-10.90625-14.640625-30.042968-40.351562c-1.972657-2.660157-4.386719-5.042969-7.117188-6.921875-.722656-.507813-1.460938-.980469-2.214844-1.414063 13.03125-7.507812 30.503906-4.726562 40.238282 8.335938zm0 0" fill="#eabf68"/><path d="m408.652344 4.449219-26.457032 26.457031h-320.382812l-26.375-26.375c2.792969-2.800781 6.65625-4.53125 10.921875-4.53125h351.464844c4.226562 0 8.046875 1.6875 10.828125 4.449219zm0 0" fill="#c4946c"/><path d="m61.8125 30.90625v404.859375l-26.375 26.375c-2.800781-2.792969-4.53125-6.65625-4.53125-10.921875v-435.765625c0-4.265625 1.730469-8.128906 4.53125-10.921875zm0 0" fill="#a8704a"/><path d="m408.652344 462.222656c-2.78125 2.761719-6.601563 4.449219-10.828125 4.449219h-351.464844c-4.265625 0-8.128906-1.730469-10.921875-4.53125l26.375-26.375h320.382812zm0 0" fill="#c4946c"/><path d="m413.101562 13.15625v440.359375c-.460937 3.140625-1.875 5.964844-3.933593 8.191406-.164063.175781-.328125.347657-.515625.515625l-26.453125-26.457031v-404.859375l26.453125-26.457031c.1875.164062.351562.339843.515625.515625 2.058593 2.226562 3.472656 5.046875 3.933593 8.191406zm0 0" fill="#a8704a"/><path d="m260.636719 200.09375-102.503907-.238281c0-18.207031 14.757813-32.964844 32.964844-32.964844h2.578125v-3.09375c0-15.644531 12.683594-28.328125 28.328125-28.328125 6.25 0 12.027344 2.023438 16.710938 5.449219 0 .003906 21.921875 22.84375 21.921875 59.175781zm0 0" fill="#d8d8d8"/><path d="m283.816406 217.367188c-28.164062 0-50.996094-22.832032-50.996094-50.992188 0-28.164062 22.832032-50.996094 50.996094-50.996094 28.160156 0 50.992188 22.832032 50.992188 50.996094 0 28.160156-22.832032 50.992188-50.992188 50.992188zm0 0" fill="#f2d67c"/><path d="m465.640625 404.859375h-139.074219c-25.601562 0-46.355468-20.753906-46.355468-46.355469v-56.660156c0-25.605469 20.753906-46.359375 46.355468-46.359375h139.074219c25.601563 0 46.359375 20.753906 46.359375 46.359375v56.660156c0 25.601563-20.753906 46.355469-46.359375 46.355469zm0 0" fill="#ef9867"/><g fill="#d16346"><path d="m372.410156 359.0625-41.363281-24.453125c-3.371094-1.996094-3.363281-6.875.011719-8.871094l41.34375-24.453125c3.4375-2.027344 7.734375.445313 7.734375 4.433594v48.910156c0 3.988282-4.292969 6.460938-7.726563 4.433594zm0 0"/><path d="m419.800781 359.0625 41.359375-24.453125c3.375-1.996094 3.363282-6.875-.007812-8.871094l-41.347656-24.453125c-3.433594-2.027344-7.730469.445313-7.730469 4.433594v48.910156c-.003907 3.988282 4.292969 6.460938 7.726562 4.433594zm0 0"/><path d="m512 301.84375v56.660156c0 25.597656-20.757812 46.355469-46.359375 46.355469h-30.902344c25.597657 0 46.355469-20.757813 46.355469-46.355469v-56.660156c0-25.601562-20.757812-46.359375-46.355469-46.359375h30.902344c25.601563 0 46.359375 20.757813 46.359375 46.359375zm0 0"/></g><path d="m334.808594 166.375c0 14.082031-5.707032 26.824219-14.9375 36.054688-9.230469 9.230468-21.972656 14.9375-36.054688 14.9375-5.390625 0-10.582031-.832032-15.453125-2.390626 7.871094-2.492187 14.90625-6.847656 20.601563-12.546874 9.230468-9.230469 14.9375-21.972657 14.9375-36.054688 0-14.085938-5.707032-26.828125-14.9375-36.058594-5.695313-5.695312-12.730469-10.054687-20.601563-12.546875 4.871094-1.554687 10.0625-2.390625 15.453125-2.390625 14.082032 0 26.824219 5.707032 36.054688 14.9375 9.230468 9.230469 14.9375 21.976563 14.9375 36.058594zm0 0" fill="#e2b061"/></svg>