<svg id="Layer_5" enable-background="new 0 0 64 64" height="512" viewBox="0 0 64 64" width="512" xmlns="http://www.w3.org/2000/svg"><g><g><path d="m15 38h2v12h-2z" fill="#f0bc5e"/></g><g><path d="m23 38h2v12h-2z" fill="#f0bc5e"/></g><g><path d="m31 38h2v12h-2z" fill="#f0bc5e"/></g><g><path d="m43 38h2v8h-2z" fill="#f0bc5e" transform="matrix(0 1 -1 0 86 -2)"/></g><g><path d="m43 46h2v8h-2z" fill="#f0bc5e" transform="matrix(0 1 -1 0 94 6)"/></g><g><path d="m31 6h2v12h-2z" fill="#f0bc5e"/></g><g><path d="m39 6h2v12h-2z" fill="#f0bc5e"/></g><g><path d="m47 6h2v12h-2z" fill="#f0bc5e"/></g><g><g><path d="m21 15h-6v-6h6z" fill="#f0bc5e"/></g></g><g><path d="m61 1h-4c-1.103 0-2 .897-2 2v18h-2v-20h-26v20h-2v-16h-14v16h-2v-18c0-1.103-.897-2-2-2h-4c-1.103 0-2 .897-2 2v58c0 1.103.897 2 2 2h4c1.103 0 2-.897 2-2h46c0 1.103.897 2 2 2h4c1.103 0 2-.897 2-2v-58c0-1.103-.897-2-2-2zm-10 20h-6v-18h6zm-14 0v-18h6v18zm-8-18h6v18h-6zm-16 4h10v14h-10zm42 16v4h-46v-4zm-42 30v-18h6v18zm8-18h6v18h-6zm8 0h6v18h-6zm8 4h11c1.654 0 3 1.346 3 3s-1.346 3-3 3h-11zm0 8h11c1.654 0 3 1.346 3 3s-1.346 3-3 3h-11zm13.969-1c1.225-.912 2.031-2.359 2.031-4 0-2.757-2.243-5-5-5h-11v-4h-26v20h-2v-24h46v24h-3.026c.635-.838 1.026-1.87 1.026-3 0-1.641-.806-3.088-2.031-4zm-47.969 15v-58h4l.001 58zm6-2v-4h27 12 7v4zm48 2v-58h4l.001 58z"/><path d="m15 41h2v2h-2z"/><path d="m15 37h2v2h-2z"/><path d="m15 49h2v2h-2z"/><path d="m15 45h2v2h-2z"/><path d="m23 45h2v2h-2z"/><path d="m23 49h2v2h-2z"/><path d="m23 41h2v2h-2z"/><path d="m23 37h2v2h-2z"/><path d="m31 37h2v2h-2z"/><path d="m31 41h2v2h-2z"/><path d="m31 49h2v2h-2z"/><path d="m31 45h2v2h-2z"/><path d="m47 13h2v2h-2z"/><path d="m47 17h2v2h-2z"/><path d="m47 5h2v2h-2z"/><path d="m47 9h2v2h-2z"/><path d="m39 5h2v2h-2z"/><path d="m39 13h2v2h-2z"/><path d="m39 17h2v2h-2z"/><path d="m39 9h2v2h-2z"/><path d="m31 5h2v2h-2z"/><path d="m31 9h2v2h-2z"/><path d="m31 13h2v2h-2z"/><path d="m31 17h2v2h-2z"/><path d="m39 41h2v2h-2z"/><path d="m43 41h2v2h-2z"/><path d="m47 41h2v2h-2z"/><path d="m47 49h2v2h-2z"/><path d="m43 49h2v2h-2z"/><path d="m39 49h2v2h-2z"/><path d="m15 17h6v2h-6z"/></g></g></svg>