<svg id="Layer_5" enable-background="new 0 0 64 64" height="512" viewBox="0 0 64 64" width="512" xmlns="http://www.w3.org/2000/svg"><g><g><path d="m41 14c-5.532 0-10.476 2.5-13.778 6.427.47.366.778.931.778 1.573 0 1.105-.895 2-2 2h-1.107c-1.201 2.412-1.893 5.122-1.893 8h1v1l-.675 2.362c1.576 8.332 8.884 14.638 17.675 14.638 9.941 0 18-8.059 18-18s-8.059-18-18-18z" fill="#f0bc5e"/></g><g><path d="m5.509 11h11.491v6h4.693l2.25-6h4.057c1.654 0 3-1.346 3-3v-.737c0-3.453-2.81-6.263-6.263-6.263-.581 0-1.16.081-1.721.241l-12.87 3.677c-.832.241-1.766-.078-2.284-.768l-2.362-3.15h-4.5v2l1.624 5.824c.366 1.281 1.552 2.176 2.885 2.176zm14.798 4h-1.307v-6h3.557zm-15.807-12 1.763 2.35c1.004 1.34 2.816 1.953 4.433 1.492l12.87-3.677c.381-.11.776-.165 1.171-.165 2.351 0 4.263 1.912 4.263 4.263v.737c0 .551-.448 1-1 1h-3.307l.75-2h-8.443v2h-11.491c-.444 0-.84-.298-.961-.726l-1.508-5.274z"/><path d="m41 10c-7.01 0-13.596 3.358-17.737 9h-6.263v2h9c.552 0 1 .449 1 1s-.448 1-1 1h-4c-1.654 0-3 1.346-3 3v1h-2v4h-4v-6h-2v-2h-2v2h-2v-4h-2v4h-2v6h-2v2l1.21 4.374c.61 2.135 2.588 3.626 4.808 3.626h10.457c1.112 0 2.175-.277 3.128-.756 1.039 2.58 2.536 4.879 4.371 6.832-.32-.045-.643-.076-.974-.076h-3v-1c0-1.654-1.346-3-3-3h-14c-1.654 0-3 1.346-3 3v10c0 1.654 1.346 3 3 3h1c0 2.206 1.794 4 4 4s4-1.794 4-4h6c0 2.206 1.794 4 4 4s4-1.794 4-4h1c1.654 0 3-1.346 3-3v-2c0-.951-.192-1.857-.537-2.684 3.155 1.717 6.75 2.684 10.537 2.684 12.131 0 22-9.869 22-22s-9.869-22-22-22zm0 42c-1.809 0-3.75-3.498-4.92-9h9.84c-1.17 5.502-3.111 9-4.92 9zm-3.765-.367c-5.335-1.012-9.986-4.137-12.937-8.633h9.731c.712 3.568 1.787 6.647 3.206 8.633zm-1.528-10.633c-.394-2.4-.642-5.097-.69-8h11.966c-.047 2.903-.296 5.6-.69 8zm5.293-29c1.809 0 3.75 3.498 4.92 9h-9.84c1.17-5.502 3.111-9 4.92-9zm5.293 11c.394 2.4.642 5.097.69 8h-11.966c.047-2.903.296-5.6.69-8zm2.699 10h11.958c-.143 2.867-.884 5.573-2.113 8h-10.51c.396-2.555.621-5.287.665-8zm0-2c-.044-2.713-.269-5.445-.666-8h10.51c1.23 2.427 1.971 5.133 2.113 8zm8.694-10h-9.714c-.712-3.567-1.787-6.647-3.206-8.633 5.381 1.031 10 4.219 12.92 8.633zm-31.686-2h-.188c2.96-3.453 6.996-5.788 11.426-6.639-1.421 1.985-2.497 5.068-3.21 8.639h-5.213c-.413-1.161-1.513-2-2.815-2zm-5 7c0-.551.448-1 1-1h4c1.302 0 2.402-.839 2.816-2h4.858c-.397 2.555-.622 5.287-.666 8h-8.008-2v-4h-2zm-2 3h2v2h-1-1zm-14-2h6v4h-6zm2.018 12c-1.332 0-2.519-.895-2.885-2.176l-1.093-3.824h16.96 2.96l-.679 2.374c-.609 2.135-2.586 3.626-4.806 3.626zm17.187-3.077.757-2.648.004-.275h8.042c.044 2.713.269 5.445.666 8h-10.541c-.315-.629-.59-1.285-.841-1.955.882-.84 1.564-1.899 1.913-3.122zm-15.205 25.077c-1.103 0-2-.897-2-2s.897-2 2-2 2 .897 2 2-.897 2-2 2zm3.444-4c-.694-1.19-1.97-2-3.444-2s-2.75.81-3.444 2h-1.556c-.552 0-1-.449-1-1v-10c0-.551.448-1 1-1h14c.552 0 1 .449 1 1v11zm10.556 4c-1.103 0-2-.897-2-2s.897-2 2-2 2 .897 2 2-.897 2-2 2zm6-5c0 .551-.448 1-1 1h-1.556c-.694-1.19-1.97-2-3.444-2-.732 0-1.409.212-2 .556v-6.556h3c2.757 0 5 2.243 5 5zm15.766-4.367c1.419-1.986 2.494-5.065 3.206-8.633h9.714c-2.92 4.414-7.539 7.602-12.92 8.633z"/></g></g></svg>