<svg id="Layer_5" enable-background="new 0 0 64 64" height="512" viewBox="0 0 64 64" width="512" xmlns="http://www.w3.org/2000/svg"><g><g><g><path d="m57 45h-10v-12h10z" fill="#f0bc5e"/></g></g><g><g><path d="m17 45h-10v-12h10z" fill="#f0bc5e"/></g></g><path d="m63 7.382-.553-.276c-.499-.25-12.419-6.106-30.447-6.106s-29.948 5.856-30.447 6.105l-.553.277v2.086l5.702 4.752-5.702 9.503v.277c0 1.902.765 3.627 2 4.889v26.111h-2v8h62v-8h-2v-26.111c1.235-1.263 2-2.988 2-4.889v-.277l-5.702-9.503 5.702-4.752zm-7.566 7.618 4.8 8h-9.557l-3.2-8zm-34.434 22v-2h22v2zm-10.986 15.106c-.002-.054-.008-.106-.013-.106h-.001c0-1.654 1.346-3 3-3s3 1.346 3.003 2.938l-.07 1.52 1.308-.345c.292-.077.533-.113.759-.113 1.302 0 2.402.839 2.816 2h-15.632c.414-1.161 1.514-2 2.816-2 .226 0 .467.036.76.113l1.308.345zm38 0c-.002-.054-.008-.106-.013-.106h-.001c0-1.654 1.346-3 3-3s3 1.346 3.003 2.938l-.07 1.52 1.308-.345c.292-.077.533-.113.759-.113 1.302 0 2.402.839 2.816 2h-15.632c.414-1.161 1.514-2 2.816-2 .226 0 .467.036.76.113l1.308.345zm10.986-.08c-.838-.635-1.87-1.026-3-1.026-.033 0-.066 0-.101.001-.463-2.28-2.484-4.001-4.899-4.001s-4.436 1.721-4.899 4.001c-.035-.001-.068-.001-.101-.001-1.13 0-2.162.391-3 1.026v-13.026h2v-6h-26v6h2v13.026c-.838-.635-1.87-1.026-3-1.026-.033 0-.066 0-.101.001-.463-2.28-2.484-4.001-4.899-4.001s-4.436 1.721-4.899 4.001c-.035-.001-.068-.001-.101-.001-1.13 0-2.162.391-3 1.026v-21.711c.911.434 1.926.685 3 .685 2.548 0 4.775-1.373 6-3.413 1.225 2.04 3.452 3.413 6 3.413s4.775-1.373 6-3.413c1.225 2.04 3.452 3.413 6 3.413s4.775-1.373 6-3.413c1.225 2.04 3.452 3.413 6 3.413s4.775-1.373 6-3.413c1.225 2.04 3.452 3.413 6 3.413 1.074 0 2.089-.251 3-.685zm-55.882-27.026h9.781c-.465 2.279-2.484 4-4.899 4-2.413 0-4.415-1.723-4.882-4zm11.996 0h9.785c-.465 2.279-2.484 4-4.899 4-2.413 0-4.42-1.722-4.886-4zm11.995 0h9.783c-.466 2.278-2.477 4-4.891 4s-4.427-1.722-4.892-4zm11.992 0h9.785c-.466 2.278-2.473 4-4.886 4-2.414 0-4.434-1.721-4.899-4zm16.899 4c-2.414 0-4.434-1.721-4.899-4h9.781c-.467 2.277-2.469 4-4.882 4zm-10.677-14 3.201 8h-9.721l-1.585-8zm-10.143 0 1.6 8h-9.56l1.6-8zm-10 8h-9.704l3.201-8h8.103zm-11.857 0h-9.557l4.8-8h7.956zm9.677 38h-20v-4h20zm0-6v-16h8v8h-4v2h4v12h-6v-6zm16 6h-6v-12h4v-2h-4v-8h8v16h-2zm22 0h-20v-4h20zm-5.362-48h-47.276l-5.278-4.398c2.69-1.192 13.68-5.602 28.916-5.602s26.226 4.41 28.916 5.602z"/><g><g><path d="m24 11c-1.654 0-3-1.346-3-3s1.346-3 3-3 3 1.346 3 3-1.346 3-3 3z" fill="#f0bc5e"/></g></g><g><g><path d="m32 11c-1.654 0-3-1.346-3-3s1.346-3 3-3 3 1.346 3 3-1.346 3-3 3z" fill="#f0bc5e"/></g></g><g><g><path d="m40 11c-1.654 0-3-1.346-3-3s1.346-3 3-3 3 1.346 3 3-1.346 3-3 3z" fill="#f0bc5e"/></g></g></g></svg>