<svg id="Layer_5" enable-background="new 0 0 64 64" height="512" viewBox="0 0 64 64" width="512" xmlns="http://www.w3.org/2000/svg"><g><g><path d="m25 41h-6v18h6v-16h15v-2z" fill="#f0bc5e"/></g><g><g><path d="m16 52.989-.008.011c-4.694-1.961-7.992-6.595-7.992-12 0-7.18 5.82-13 13-13 3.877 0 7.357 1.698 9.739 4.39l.582-7.568-1.272.636c-1.438-.84-2.974-1.471-4.576-1.881l-.889-1.577h-7.168l-.89 1.576c-1.603.411-3.138 1.042-4.576 1.881l-2.461-1.23-5.263 5.262 1.231 2.461c-.819 1.403-1.44 2.899-1.852 4.459l-2.605.87v7.441l2.606.869c.411 1.561 1.032 3.057 1.852 4.46l-1.231 2.461 5.263 5.263 2.463-1.231c1.121.662 3.435 1.987 3.551 2.054l.429.245.067-.029z" fill="#f0bc5e"/></g></g><g><path d="m58.931 17h-9.861l-2 28h-2.07v-8h-2.382l-1.693-22h-9.852l-1.171 15.222c-2.491-2.058-5.628-3.222-8.902-3.222-7.72 0-14 6.28-14 14 0 5.442 3.121 10.328 8 12.643v9.357h48v-18h-2.069zm-1.862 2 .286 4h-6.71l.286-4zm-6.567 6h6.996l1.429 20h-9.853zm-9.89 12h-9.225l1.077-14h7.071zm-1.538-20 .308 4h-6.764l.308-4zm-30.074 24c0-6.617 5.383-12 12-12 3.302 0 6.445 1.374 8.707 3.765l-.325 4.235h-14.382v14.388c-3.687-2.124-6-6.05-6-10.388zm18 20h-10v-22h26v6h-11.414l-4.586 4.586zm10 0h-4v-6h4zm10 0h-4v-6h4zm10 0h-4v-6h4zm2 0v-8h-8v8h-2v-8h-8v8h-2v-8h-8v8h-2v-10h32v10zm2-12h-30.586l2-2h28.586z"/><path d="m51 9h9c.552 0 1 .449 1 1s-.448 1-1 1h-2c-1.654 0-3 1.346-3 3v1h2v-1c0-.551.448-1 1-1h2c1.654 0 3-1.346 3-3s-1.346-3-3-3h-9z"/><path d="m48 13h2c.552 0 1 .449 1 1v1h2v-1c0-1.654-1.346-3-3-3h-2c-1.654 0-3-1.346-3-3s1.346-3 3-3h7v-2h-7c-2.757 0-5 2.243-5 5s2.243 5 5 5z"/><path d="m57 3h2v2h-2z"/><path d="m16 7c.552 0 1 .449 1 1 0 1.654 1.346 3 3 3h12c.552 0 1 .449 1 1v1h2v-1c0-1.654-1.346-3-3-3h-12c-.552 0-1-.449-1-1 0-1.654-1.346-3-3-3h-7c-.552 0-1-.449-1-1s.448-1 1-1h11v-2h-11c-1.654 0-3 1.346-3 3s1.346 3 3 3z"/><path d="m29 7h3c2.757 0 5 2.243 5 5v1h2v-1c0-3.86-3.141-7-7-7h-3c-.552 0-1-.449-1-1s.448-1 1-1h11v-2h-11c-1.654 0-3 1.346-3 3s1.346 3 3 3z"/><path d="m35 41h2v2h-2z"/><path d="m39 41h2v2h-2z"/><path d="m23 41h2v2h-2z"/><path d="m31 41h2v2h-2z"/><path d="m27 41h2v2h-2z"/><path d="m19 41h2v2h-2z"/><path d="m23 45h2v2h-2z"/><path d="m19 45h2v2h-2z"/><path d="m19 49h2v2h-2z"/><path d="m23 49h2v2h-2z"/><path d="m19 53h2v2h-2z"/><path d="m23 53h2v2h-2z"/><path d="m19 57h2v2h-2z"/><path d="m23 57h2v2h-2z"/><path d="m35 29h2v2h-2z"/><path d="m35 33h2v2h-2z"/><path d="m35 25h2v2h-2z"/><path d="m53 27h2v2h-2z"/><path d="m53 39h2v2h-2z"/><path d="m53 31h2v2h-2z"/><path d="m53 35h2v2h-2z"/></g></g></svg>