<svg id="_x33_0" enable-background="new 0 0 64 64" height="512" viewBox="0 0 64 64" width="512" xmlns="http://www.w3.org/2000/svg"><g fill="#f0bc5e"><circle cx="7" cy="53" r="4"/><circle cx="17" cy="53" r="4"/><circle cx="27" cy="53" r="4"/><circle cx="37" cy="53" r="4"/><circle cx="47" cy="53" r="4"/><circle cx="57" cy="53" r="4"/></g><path d="m56 52h2v2h-2z"/><path d="m46 52h2v2h-2z"/><path d="m36 52h2v2h-2z"/><path d="m26 52h2v2h-2z"/><path d="m16 52h2v2h-2z"/><path d="m6 52h2v2h-2z"/><path d="m62 63h-60v-6h60zm-58-2h56v-2h-56z"/><path d="m59.04 11.401-2.619-.623 1.338-2.375-2.174-2.173-2.371 1.357-.647-2.587h-3.117l-.65 2.601-2.358-1.318-2.17 2.17 1.337 2.355-2.569.674v3.114l2.582.626-1.292 2.384 2.17 2.169 2.329-1.362.699 2.587h3.118l.598-2.6 2.399 1.312 2.174-2.174-1.383-2.346 2.606-.671zm-8.031 3.59c-1.1 0-1.991-.891-1.991-1.991s.891-1.991 1.991-1.991 1.991.891 1.991 1.991-.891 1.991-1.991 1.991z" fill="#f0bc5e"/><path d="m51.009 15.991c-1.649 0-2.991-1.342-2.991-2.991s1.342-2.991 2.991-2.991 2.991 1.342 2.991 2.991-1.342 2.991-2.991 2.991zm0-3.982c-.546 0-.991.445-.991.991s.445.991.991.991.991-.445.991-.991-.445-.991-.991-.991z"/><path d="m56 40h-8v-5h8z" fill="#f0bc5e"/><path d="m60 49h-16v-15h16zm-14-2h12v-11h-12z"/><path d="m40.98 37.196-1.961-.393-.839 4.197h-5.18v-1.184c1.161-.414 2-1.514 2-2.816v-3h-6v3c0 1.302.839 2.402 2 2.816v1.184h-5.18l-.839-4.196-1.961.393.98 4.902v6.901h16v-6.901zm-9.98-1.196h2v1c0 .551-.449 1-1 1s-1-.449-1-1zm7 11h-12v-4h12z"/><path d="m27 36h-2v-6.5l4.4-3.3 1.2 1.6-3.6 2.7z"/><path d="m39 36h-2v-5.5l-3.6-2.7 1.2-1.6 4.4 3.3z"/><path d="m51 1c-4.003 0-7.546 1.978-9.727 5h-37.271c-1.005 0-1.939.5-2.496 1.336s-.66 1.89-.273 2.818l2.308 5.539c1.09 2.616 3.626 4.307 6.46 4.307h.999v9h2v-9h18v5h2v-5h8.273c2.181 3.022 5.724 5 9.727 5 6.617 0 12-5.383 12-12s-5.383-12-12-12zm-40.999 17c-2.024 0-3.836-1.208-4.615-3.077l-2.307-5.539c-.131-.314-.098-.656.091-.939.188-.283.492-.445.832-.445h36.104c-.294.639-.531 1.307-.711 2h-16.395v6h16.395c.179.693.416 1.361.711 2zm29.05-4h-2.051v-2h2.051c-.028.331-.051.662-.051 1s.023.669.051 1zm-14.051 0v-2h2v2zm4-2h2v2h-2zm4 0h2v2h-2zm18 11c-5.514 0-10-4.486-10-10s4.486-10 10-10 10 4.486 10 10-4.486 10-10 10z"/><path d="m11 12h2v2h-2z"/><path d="m7 12h2v2h-2z"/><path d="m15 12h2v2h-2z"/><path d="m19 12h2v2h-2z"/><path d="m7 40h-2v-6.5l4.4-3.3 1.2 1.6-3.6 2.7z"/><path d="m19 40h-2v-5.5l-3.6-2.7 1.2-1.6 4.4 3.3z"/><path d="m32 24c-1.654 0-3 1.346-3 3s1.346 3 3 3 3-1.346 3-3-1.346-3-3-3z" fill="#f0bc5e"/><path d="m12 28c-1.654 0-3 1.346-3 3s1.346 3 3 3 3-1.346 3-3-1.346-3-3-3z" fill="#f0bc5e"/><path d="m15 41v-3h-6v3c0 1.302.839 2.402 2 2.816v3.184h-2v2h6v-2h-2v-3.184c1.161-.414 2-1.514 2-2.816zm-4-1h2v1c0 .551-.449 1-1 1s-1-.449-1-1z"/></svg>