<svg id="Layer_5" enable-background="new 0 0 64 64" height="512" viewBox="0 0 64 64" width="512" xmlns="http://www.w3.org/2000/svg"><path d="m44 5h-4v2h4c1.654 0 3 1.346 3 3v3h-2v2h2v13.28h2v-18.28c0-2.757-2.243-5-5-5z"/><path d="m41 13h2v2h-2z"/><path d="m33 21h8v2h-8z"/><path d="m28.293 21.293-1.856 1.856c-1.429-1.329-3.337-2.149-5.437-2.149-4.411 0-8 3.589-8 8s3.589 8 8 8 8-3.589 8-8c0-1.589-.471-3.067-1.273-4.313l1.98-1.98zm-1.293 7.707c0 3.309-2.691 6-6 6s-6-2.691-6-6 2.691-6 6-6c1.549 0 2.958.595 4.024 1.562l-6.024 6.024-1.293-1.293-1.414 1.414 2.707 2.707 7.274-7.274c.463.851.726 1.825.726 2.86z"/><path d="m33 25h2v2h-2z"/><path d="m37 25h2v2h-2z"/><path d="m3 40v-25h36v-2h-36v-3c0-1.654 1.346-3 3-3h4v-2h-4c-2.757 0-5 2.243-5 5v30c0 2.757 2.243 5 5 5h22.051v-2h-22.051c-1.654 0-3-1.346-3-3z"/><path d="m43 17h-36c-1.103 0-2 .897-2 2v20c0 1.103.897 2 2 2h21.75v-2h-21.75v-20h36v9.05h2v-9.05c0-1.103-.897-2-2-2z"/><path d="m9 35h2v2h-2z"/><path d="m9 31h2v2h-2z"/><path d="m9 27h2v2h-2z"/><path d="m45 63c-9.925 0-18-8.075-18-18s8.075-18 18-18 18 8.075 18 18-8.075 18-18 18zm0-31c-7.168 0-13 5.832-13 13s5.832 13 13 13 13-5.832 13-13-5.832-13-13-13z" fill="#f0bc5e"/><path d="m45 31c-7.72 0-14 6.28-14 14s6.28 14 14 14 14-6.28 14-14-6.28-14-14-14zm11.949 15c-.213 2.558-1.226 4.889-2.795 6.741l-2.791-2.791-1.414 1.414 2.791 2.791c-1.852 1.569-4.183 2.582-6.741 2.795v-3.95h-2v3.949c-2.558-.213-4.889-1.226-6.741-2.795l2.791-2.791-1.414-1.414-2.791 2.791c-1.569-1.852-2.582-4.183-2.795-6.741h3.951v-2h-3.949c.213-2.558 1.226-4.889 2.795-6.741l2.791 2.791 1.414-1.414-2.791-2.791c1.852-1.569 4.183-2.582 6.741-2.795v3.951h2v-3.949c2.558.213 4.889 1.226 6.741 2.795l-2.791 2.791 1.414 1.414 2.791-2.791c1.569 1.852 2.582 4.183 2.795 6.741h-3.951v2h3.949z"/><path d="m44 44.586-3.707 3.707 1.414 1.414 4.293-4.293v-4.414h-2z"/><path d="m28 5h6v2h-6z"/><path d="m16 5h6v2h-6z"/><g fill="#f0bc5e"><path d="m39 11h-4c-1.103 0-2-.897-2-2v-6c0-1.103.897-2 2-2h4c1.103 0 2 .897 2 2v6c0 1.103-.897 2-2 2z"/><path d="m27 11h-4c-1.103 0-2-.897-2-2v-6c0-1.103.897-2 2-2h4c1.103 0 2 .897 2 2v6c0 1.103-.897 2-2 2z"/><path d="m15 11h-4c-1.103 0-2-.897-2-2v-6c0-1.103.897-2 2-2h4c1.103 0 2 .897 2 2v6c0 1.103-.897 2-2 2z"/></g></svg>