<svg height="496pt" viewBox="0 0 496 496" width="496pt" xmlns="http://www.w3.org/2000/svg"><path d="m56 448h80v40h-80zm0 0" fill="#f0bc5e"/><path d="m360 38.398438v-38.398438h-320v38.398438l-40 96v25.601562c0 14.871094 10.238281 27.289062 24 30.863281v305.136719h352v-16h-336v-289.136719c6.320312-1.640625 11.832031-5.144531 16-9.917969v251.054688h264v-16h-56v-40h-16v40h-96v-40h-16v40h-32v-40.183594c0-10.679687 6.871094-19.921875 17.105469-22.992187l52.621093-15.785157 26.273438 26.273438 26.28125-26.28125 52.613281 15.785156c10.234375 3.070313 17.105469 12.320313 17.105469 23h16c0-17.808594-11.457031-33.199218-28.503906-38.320312l-51.496094-15.449219v-14.367187c9.792969-8.792969 16-21.503907 16-35.679688v-24c0-26.472656-21.527344-48-48-48s-48 21.527344-48 48v24c0 14.167969 6.207031 26.878906 16 35.679688v14.367187l-51.496094 15.449219c-17.046875 5.113281-28.503906 20.511718-28.503906 38.320312v40.183594h-16v-225.136719c2.574219.671875 5.222656 1.136719 8 1.136719 9.601562 0 18.128906-4.335938 24-11.054688 5.871094 6.71875 14.398438 11.054688 24 11.054688s18.128906-4.335938 24-11.054688c5.871094 6.71875 14.398438 11.054688 24 11.054688s18.128906-4.335938 24-11.054688c5.871094 6.71875 14.398438 11.054688 24 11.054688s18.128906-4.335938 24-11.054688c5.871094 6.71875 14.398438 11.054688 24 11.054688s18.128906-4.335938 24-11.054688c5.871094 6.71875 14.398438 11.054688 24 11.054688 2.777344 0 5.425781-.464844 8-1.136719v121.136719h16v-131.054688c4.167969 4.773438 9.679688 8.277344 16 9.917969v121.136719h16v-121.136719c13.761719-3.574219 24-15.992187 24-30.863281v-25.601562zm-192 209.601562c0-17.648438 14.351562-32 32-32s32 14.351562 32 32v24c0 17.648438-14.351562 32-32 32s-32-14.351562-32-32zm32 72c5.617188 0 10.984375-1.023438 16-2.800781v7.488281l-16 16-16-16v-7.488281c5.015625 1.777343 10.382812 2.800781 16 2.800781zm-152-160c0 8.824219-7.175781 16-16 16s-16-7.175781-16-16v-16h32zm2.230469-32h-30.230469l33.335938-80h23.566406zm45.769531 32c0 8.824219-7.175781 16-16 16s-16-7.175781-16-16v-16h32zm1.753906-32h-30.65625l26.664063-80h23.992187zm46.246094 32c0 8.824219-7.175781 16-16 16s-16-7.175781-16-16v-16h32zm.664062-32h-30.417968l20-80h17.066406zm47.335938 32c0 8.824219-7.175781 16-16 16s-16-7.175781-16-16v-16h32zm0-32h-31.304688l6.664063-80h24.640625zm48 32c0 8.824219-7.175781 16-16 16s-16-7.175781-16-16v-16h32zm-32-32v-80h24.640625l6.6875 80zm-152-96v-16h288v16zm192.695312 16h17.058594l20 80h-30.394531zm39.304688 112c0 8.824219-7.175781 16-16 16s-16-7.175781-16-16v-16h32zm-5.777344-112h24.015625l26.664063 80h-30.878906zm53.777344 112c0 8.824219-7.175781 16-16 16s-16-7.175781-16-16v-16h32zm-12.902344-112h23.566406l33.335938 80h-30.230469zm60.902344 112c0 8.824219-7.175781 16-16 16s-16-7.175781-16-16v-16h32zm0 0"/><path d="m56 448h16v16h-16zm0 0"/><path d="m88 448h16v16h-16zm0 0"/><path d="m120 448h16v16h-16zm0 0"/><path d="m414.550781 496h-45.109375l-4.050781-20.191406c-4.78125-1.511719-9.414063-3.441406-13.847656-5.746094l-17.144531 11.433594-31.894532-31.894532 11.433594-17.144531c-2.304688-4.441406-4.226562-9.074219-5.746094-13.847656l-20.191406-4.058594v-45.109375l20.191406-4.050781c1.511719-4.78125 3.441406-9.414063 5.746094-13.847656l-11.433594-17.144531 31.894532-31.894532 17.144531 11.433594c4.441406-2.304688 9.074219-4.226562 13.847656-5.746094l4.058594-20.191406h45.109375l4.050781 20.191406c4.78125 1.511719 9.414063 3.441406 13.847656 5.746094l17.144531-11.433594 31.894532 31.894532-11.433594 17.144531c2.304688 4.441406 4.226562 9.074219 5.746094 13.847656l20.191406 4.058594v45.109375l-20.191406 4.050781c-1.511719 4.78125-3.441406 9.414063-5.746094 13.847656l11.433594 17.144531-31.894532 31.894532-17.144531-11.433594c-4.441406 2.304688-9.074219 4.226562-13.847656 5.746094zm0 0" fill="#f0bc5e"/><path d="m437.609375 424.425781-13.035156-9.28125c4.859375-6.824219 7.425781-14.824219 7.425781-23.144531 0-22.054688-17.945312-40-40-40-8.320312 0-16.320312 2.566406-23.144531 7.425781l-9.28125-13.035156c9.546875-6.796875 20.761719-10.390625 32.425781-10.390625 30.878906 0 56 25.128906 56 56 0 11.664062-3.59375 22.871094-10.390625 32.425781zm0 0"/><path d="m392 448c-30.878906 0-56-25.128906-56-56 0-11.664062 3.59375-22.871094 10.390625-32.425781l13.035156 9.28125c-4.859375 6.824219-7.425781 14.824219-7.425781 23.144531 0 22.054688 17.945312 40 40 40 8.320312 0 16.320312-2.566406 23.144531-7.425781l9.28125 13.035156c-9.546875 6.796875-20.761719 10.390625-32.425781 10.390625zm0 0"/></svg>