<?xml version="1.0" encoding="iso-8859-1"?>
<!-- Generator: Adobe Illustrator 19.0.0, SVG Export Plug-In . SVG Version: 6.00 Build 0)  -->
<svg version="1.1" id="Capa_1" xmlns="http://www.w3.org/2000/svg" xmlns:xlink="http://www.w3.org/1999/xlink" x="0px" y="0px"
	 viewBox="0 0 496 496" style="enable-background:new 0 0 496 496;" xml:space="preserve">
<g>
	<rect x="296" y="128" style="fill:#F0BC5E;" width="144" height="40"/>
	<rect x="296" y="224" style="fill:#F0BC5E;" width="144" height="40"/>
	<rect x="296" y="320" style="fill:#F0BC5E;" width="144" height="40"/>
	<rect x="88" y="160" style="fill:#F0BC5E;" width="144" height="32"/>
	<rect x="88" y="224" style="fill:#F0BC5E;" width="112" height="32"/>
	<rect x="88" y="288" style="fill:#F0BC5E;" width="144" height="32"/>
	<rect x="88" y="352" style="fill:#F0BC5E;" width="144" height="32"/>
</g>
<path d="M472,72H24C10.768,72,0,82.768,0,96v16c0,10.416,6.712,19.216,16,22.528V424h464V134.528c9.288-3.312,16-12.112,16-22.528
	V96C496,82.768,485.232,72,472,72z M32,136h16v272H32V136z M432,312H304v-80h128V312z M304,328h128v80H304V328z M432,216H304v-80
	h128V216z M288,408h-16V136h16V408z M256,408H64V136h192V408z M448,408V136h16v272H448z M480,112c0,4.416-3.584,8-8,8H24
	c-4.416,0-8-3.584-8-8V96c0-4.416,3.584-8,8-8h448c4.416,0,8,3.584,8,8V112z"/>
<path d="M240,392V152H80v240H240z M96,376v-16h96v-16H96v-16h128v16h-16v16h16v16H96z M208,272v-32c0-4.416,3.584-8,8-8h8v48h-8
	C211.584,280,208,276.416,208,272z M192,240v8H96v-16h97.472C192.576,234.512,192,237.184,192,240z M192,264v8
	c0,2.816,0.576,5.488,1.472,8H96v-16H192z M216,296h8v16H96v-16H216z M224,168v16h-96v16h96v16h-8H96v-16h16v-16H96v-16H224z"/>
<g>
</g>
<g>
</g>
<g>
</g>
<g>
</g>
<g>
</g>
<g>
</g>
<g>
</g>
<g>
</g>
<g>
</g>
<g>
</g>
<g>
</g>
<g>
</g>
<g>
</g>
<g>
</g>
<g>
</g>
</svg>
