<?xml version="1.0" encoding="iso-8859-1"?>
<!-- Generator: Adobe Illustrator 19.0.0, SVG Export Plug-In . SVG Version: 6.00 Build 0)  -->
<svg version="1.1" id="Capa_1" xmlns="http://www.w3.org/2000/svg" xmlns:xlink="http://www.w3.org/1999/xlink" x="0px" y="0px"
	 viewBox="0 0 496 496" style="enable-background:new 0 0 496 496;" xml:space="preserve">
<g>
	<path style="fill:#FFCB57;" d="M448,448L448,448c-22.088,0-40-17.912-40-40l0,0c0-20.712,7.048-40.816,19.992-56.984l7.016-8.768
		C438.16,338.296,442.944,336,448,336l0,0c5.056,0,9.84,2.296,13,6.248l7.016,8.768C480.952,367.184,488,387.288,488,408l0,0
		C488,430.088,470.088,448,448,448z"/>
	<path style="fill:#FFCB57;" d="M248,448L248,448c-22.088,0-40-17.912-40-40l0,0c0-20.712,7.048-40.816,19.992-56.984l7.016-8.768
		C238.16,338.296,242.944,336,248,336l0,0c5.056,0,9.84,2.296,13,6.248l7.016,8.768C280.952,367.184,288,387.288,288,408l0,0
		C288,430.088,270.088,448,248,448z"/>
	<path style="fill:#FFCB57;" d="M48,448L48,448c-22.088,0-40-17.912-40-40l0,0c0-20.712,7.048-40.816,19.992-56.984l7.016-8.768
		C38.16,338.296,42.944,336,48,336l0,0c5.056,0,9.84,2.296,13,6.248l7.016,8.768C80.952,367.184,88,387.288,88,408l0,0
		C88,430.088,70.088,448,48,448z"/>
</g>
<g>
	<path style="fill:#E56565;" d="M240,192v48h256v-48H240z M480,224H256v-16h224V224z"/>
	<path style="fill:#E56565;" d="M216,0H40v32H24v32h16V48h176v16h16V32h-16V0z M56,16h144v16H56V16z"/>
</g>
<g>
	<polygon style="fill:#3F3A34;" points="256,176 272,176 272,163.936 368,90.096 464,163.936 464,176 480,176 480,156.064 
		368,69.904 256,156.064 	"/>
	<rect x="256" y="256" style="fill:#3F3A34;" width="16" height="64"/>
	<rect x="464" y="256" style="fill:#3F3A34;" width="16" height="64"/>
	<path style="fill:#3F3A34;" d="M432,304v-48h-48v48H432z M400,272h16v16h-16V272z"/>
	<path style="fill:#3F3A34;" d="M352,256h-48v48h48V256z M336,288h-16v-16h16V288z"/>
	<path style="fill:#3F3A34;" d="M152,112h-48v48h48V112z M136,144h-16v-16h16V144z"/>
	<path style="fill:#3F3A34;" d="M216,112h-48v48h48V112z M200,144h-16v-16h16V144z"/>
	<path style="fill:#3F3A34;" d="M88,112H40v48h48V112z M72,144H56v-16h16V144z"/>
	<path style="fill:#3F3A34;" d="M152,176h-48v48h48V176z M136,208h-16v-16h16V208z"/>
	<path style="fill:#3F3A34;" d="M216,176h-48v48h48V176z M200,208h-16v-16h16V208z"/>
	<path style="fill:#3F3A34;" d="M88,176H40v48h48V176z M72,208H56v-16h16V208z"/>
	<path style="fill:#3F3A34;" d="M152,240h-48v48h48V240z M136,272h-16v-16h16V272z"/>
	<path style="fill:#3F3A34;" d="M216,240h-48v48h48V240z M200,272h-16v-16h16V272z"/>
	<path style="fill:#3F3A34;" d="M40,288h48v-48H40V288z M56,256h16v16H56V256z"/>
	<path style="fill:#3F3A34;" d="M104,352h48v-48h-48V352z M120,320h16v16h-16V320z"/>
	<path style="fill:#3F3A34;" d="M168,352h48v-48h-48V352z M184,320h16v16h-16V320z"/>
	<path style="fill:#3F3A34;" d="M304,368h48v-48h-48V368z M320,336h16v16h-16V336z"/>
	<polygon style="fill:#3F3A34;" points="16,96 240,96 240,136 256,136 256,80 0,80 0,344 16,344 	"/>
	<path style="fill:#3F3A34;" d="M480,480h-24v-24.72c22.664-3.824,40-23.536,40-47.28c0-22.448-7.728-44.464-21.744-61.984
		l-7.016-8.776c-4.704-5.872-11.72-9.24-19.24-9.24c-5.968,0-11.568,2.192-16,6.008V320h-48v48h24.472
		c-5.52,12.544-8.472,26.184-8.472,40c0,23.736,17.336,43.448,40,47.28V480h-40v-72v-8h-64v80h-80v-24.72
		c22.664-3.824,40-23.536,40-47.28c0-22.448-7.728-44.464-21.744-61.984l-7.016-8.776c-4.704-5.872-11.72-9.24-19.24-9.24
		s-14.536,3.368-19.248,9.248l-7,8.76C207.728,363.536,200,385.552,200,408c0,23.736,17.336,43.448,40,47.28V480h-72v-80h-64v80H56
		v-24.72c22.664-3.824,40-23.536,40-47.28c0-19.968-6.144-39.576-17.36-56H88v-48H40v25.488c-4.344,1.496-8.28,4.064-11.248,7.768
		l-7,8.76C7.728,363.536,0,385.552,0,408c0,23.736,17.336,43.448,40,47.28V480H16v-24H0v40h40h16h184h16h184h16h40v-40h-16V480z
		 M400,336h16v16h-16V336z M416,408c0-18.832,6.48-37.296,18.24-51.992l7-8.76c1.656-2.064,4.12-3.248,6.76-3.248
		s5.104,1.184,6.752,3.24l7.016,8.768C473.52,370.704,480,389.168,480,408c0,14.864-10.232,27.288-24,30.864V400h-16v38.864
		C426.232,435.288,416,422.864,416,408z M216,408c0-18.832,6.48-37.296,18.24-51.992l7-8.76c1.656-2.064,4.12-3.248,6.76-3.248
		c2.64,0,5.104,1.184,6.752,3.24l7.016,8.768C273.52,370.704,280,389.168,280,408c0,14.864-10.232,27.288-24,30.864V400h-16v38.864
		C226.232,435.288,216,422.864,216,408z M72,320v16h-6c-2.792-3.008-6.2-5.208-10-6.512V320H72z M16,408
		c0-18.832,6.48-37.296,18.24-51.992l7-8.76C42.896,345.184,45.36,344,48,344s5.104,1.184,6.752,3.24l7.016,8.768
		C73.52,370.704,80,389.168,80,408c0,14.864-10.232,27.288-24,30.864V400H40v38.864C26.232,435.288,16,422.864,16,408z M120,416h32
		v64h-32V416z M352,416h32v64h-32V416z"/>
</g>
<g>
</g>
<g>
</g>
<g>
</g>
<g>
</g>
<g>
</g>
<g>
</g>
<g>
</g>
<g>
</g>
<g>
</g>
<g>
</g>
<g>
</g>
<g>
</g>
<g>
</g>
<g>
</g>
<g>
</g>
</svg>
