<svg id="Layer_5" enable-background="new 0 0 64 64" height="512" viewBox="0 0 64 64" width="512" xmlns="http://www.w3.org/2000/svg"><g><g><g><path d="m47 39h-8v-5h8z" fill="#f0bc5e"/></g></g><g><g><path d="m47 23h-8v-5h8z" fill="#f0bc5e"/></g></g><g><g><path d="m47 7h-8v-5h8z" fill="#f0bc5e"/></g></g><g><g><path d="m25.097 39h-8v-5h8z" fill="#f0bc5e"/></g></g><g><g><path d="m25.097 23h-8v-5h8z" fill="#f0bc5e"/></g></g><g><g><path d="m25.097 7h-8v-5h8z" fill="#f0bc5e"/></g></g><g><path d="m59 61v-7c0-2.414-1.721-4.434-4-4.899v-48.101h-46v48.101c-2.279.465-4 2.485-4 4.899v7h-4v2h62v-2zm-6-28h-20v-14h20zm-22 0h-20v-14h20zm0 2v14h-20v-14zm2 0h20v14h-20zm20-18h-20v-14h20zm-22-14v14h-20v-14zm-24 51c0-1.654 1.346-3 3-3h44c1.654 0 3 1.346 3 3v7h-2v-6c0-1.103-.897-2-2-2h-18c-1.103 0-2 .897-2 2v6h-2v-6c0-1.103-.897-2-2-2h-18c-1.103 0-2 .897-2 2v6h-2zm46 7h-18v-6h18zm-24 0h-18v-6h18z"/><path d="m45 45h2v2h-2z"/><path d="m49 45h2v2h-2z"/><path d="m27 45h2v2h-2z"/><path d="m23 45h2v2h-2z"/><path d="m45 29h2v2h-2z"/><path d="m49 29h2v2h-2z"/><path d="m27 29h2v2h-2z"/><path d="m23 29h2v2h-2z"/><path d="m45 13h2v2h-2z"/><path d="m49 13h2v2h-2z"/><path d="m27 13h2v2h-2z"/><path d="m23 13h2v2h-2z"/></g></g></svg>