<svg height="496pt" viewBox="-6 0 496 496" width="496pt" xmlns="http://www.w3.org/2000/svg"><path d="m130.246094 0h224v192h-224zm0 0" fill="#f0bc5e"/><path d="m322.246094 424h-64v-48h64zm0 0" fill="#f0bc5e"/><path d="m315.40625 81.351562-19.742188-49.351562h-106.832031l-19.742187 49.351562 73.15625 91.457032zm-59.910156 6.648438-13.25 44.160156-13.246094-44.160156zm-23.121094-16 9.871094-16.449219 9.875 16.449219zm39.824219 16h17.410156l-27.847656 34.808594zm8.175781-16 8.433594-14.054688 5.625 14.054688zm-14.128906-7.550781-9.871094-16.449219h19.746094zm-48 0-9.871094-16.449219h19.746094zm-14.125 7.550781h-14.058594l5.625-14.054688zm8.175781 16 10.4375 34.808594-27.847656-34.808594zm0 0"/><path d="m472.496094 448h-14.25v-195.054688c4.921875-5.625 8-12.898437 8-20.945312 0-17.648438-14.351563-32-32-32-16.847656 0-30.542969 13.121094-31.757813 29.65625-2.785156 5.527344-17.929687 33.734375-48.242187 58.558594v-56.214844h16v-48h-256v48h16v56.726562c-30.359375-24.757812-45.300782-53.09375-48.230469-59.039062-1.207031-16.550781-14.910156-29.6875-31.769531-29.6875-17.644532 0-32 14.351562-32 32 0 8.039062 3.082031 15.3125 8 20.945312v195.054688h-14.246094l-12 48h484.496094zm-46.25 0v-185.136719c2.578125.671875 5.226562 1.136719 8 1.136719 2.777344 0 5.425781-.464844 8-1.136719v185.136719zm8-232c8.824218 0 16 7.175781 16 16s-7.175782 16-16 16c-8.820313 0-16-7.175781-16-16s7.179687-16 16-16zm-304-16h224v16h-224zm16 32h192v67.921875c-24.308594 15.855469-55.988282 28.078125-96 28.078125-40.167969 0-71.78125-12.007812-96-27.664062zm208 232v16h-224v-16zm-208-16v-129.367188c25.25 14.671876 57.011718 25.367188 96 25.367188 38.992187 0 70.753906-10.695312 96-25.367188v129.367188zm-96-232c8.824218 0 16 7.175781 16 16s-7.175782 16-16 16c-8.820313 0-16-7.175781-16-16s7.179687-16 16-16zm-8 46.863281c2.578125.671875 5.226562 1.136719 8 1.136719 2.777344 0 5.425781-.464844 8-1.136719v185.136719h-16zm-21.75 217.136719 4-16h51.503906l4 16zm68-32h-14.25v-195.054688c.585937-.671874 1.167968-1.34375 1.707031-2.066406 9.640625 14.898438 27.335937 37.890625 54.292969 57.335938v139.785156h-16v32h-17.75zm299.503906 32h-17.753906v-32h-16v-139.785156c26.960937-19.445313 44.65625-42.4375 54.296875-57.335938.527343.722656 1.113281 1.394532 1.703125 2.066406v195.054688h-14.246094zm16.496094 0 4-16h51.503906l4 16zm0 0"/><path d="m210.246094 248h64v16h-64zm0 0"/><path d="m170.246094 280h144v16h-144zm0 0"/><path d="m162.246094 376h80v16h-80zm0 0"/><path d="m162.246094 408h80v16h-80zm0 0"/></svg>