<?xml version="1.0" encoding="iso-8859-1"?>
<!-- Generator: Adobe Illustrator 19.0.0, SVG Export Plug-In . SVG Version: 6.00 Build 0)  -->
<svg version="1.1" id="Capa_1" xmlns="http://www.w3.org/2000/svg" xmlns:xlink="http://www.w3.org/1999/xlink" x="0px" y="0px"
	 viewBox="0 0 496 496" style="enable-background:new 0 0 496 496;" xml:space="preserve">
<g>
	<rect x="144" y="176" style="fill:#FFA64D;" width="48" height="32"/>
	<rect x="344" y="144" style="fill:#FFA64D;" width="80" height="48"/>
	<rect x="24" y="184" style="fill:#FFA64D;" width="72" height="32"/>
</g>
<g>
	<path style="fill:#333333;" d="M48,456h48v-48H48V456z M64,424h16v16H64V424z"/>
	<path style="fill:#333333;" d="M128,456h48v-48h-48V456z M144,424h16v16h-16V424z"/>
	<path style="fill:#333333;" d="M208,456h48v-48h-48V456z M224,424h16v16h-16V424z"/>
	<path style="fill:#333333;" d="M368,304h-48v48h48V304z M352,336h-16v-16h16V336z"/>
	<path style="fill:#333333;" d="M448,304h-48v48h48V304z M432,336h-16v-16h16V336z"/>
	<path style="fill:#333333;" d="M368,368h-48v48h48V368z M352,400h-16v-16h16V400z"/>
	<path style="fill:#333333;" d="M448,368h-48v48h48V368z M432,400h-16v-16h16V400z"/>
	<path style="fill:#333333;" d="M480,224h-48V104h-96v120h-48v48h-16v96h-8.472c-3.704-33.32-30.216-59.824-63.528-63.528V104h-64
		v200h-24c-0.224,0-0.44,0.032-0.664,0.032L95.336,120H24.76L0,368v8v120h296h8h192V272h-16V224z M464,272h-24v-32h24V272z M344,240
		h16v32h-16V240z M376,240h16v32h-16V240z M408,240h16v32h-16V240z M416,120v24h-16v16h16v24h-64v-24h32v-16h-32v-24H416z M352,200
		h64v24h-64V200z M304,240h24v32h-24V240z M247.432,368H224v-37.888C236.416,338.8,245.184,352.352,247.432,368z M176,320v48h-16
		v-48H176z M192,320c5.56,0,10.928,0.84,16,2.36V368h-16V320z M184,200h-32v-16h32V200z M184,120v48h-32v-48H184z M152,216h32v88
		h-32V216z M128,336v-16h8h8v48h-16v-16h-16v16H96v-45.64c5.072-1.52,10.44-2.36,16-2.36v16H128z M56.568,368
		c2.248-15.648,11.016-29.2,23.432-37.888V368H56.568z M86.928,208H32.04l1.6-16h51.896L86.928,208z M80.664,136l3.48,40H35.24l4-40
		H80.664z M30.44,224h57.88l7.128,82c-29.208,6.912-51.6,31.6-54.976,62H16.04L30.44,224z M288,480H16v-96h24h224h24V480z M400,480
		h-32v-32h32V480z M480,480h-64v-48h-64v48h-48V368h-16v-80h192V480z"/>
	<path style="fill:#333333;" d="M64,80c0-13.232,10.768-24,24-24h72v32h16V40c0-13.232,10.768-24,24-24h260c11.024,0,20,8.976,20,20
		s-8.976,20-20,20h-59.552C386.968,56,376,66.968,376,80.448V88h16v-7.552c0-4.656,3.792-8.448,8.448-8.448H460
		c19.848,0,36-16.152,36-36S479.848,0,460,0H200c-22.056,0-40,17.944-40,40H88c-22.056,0-40,17.944-40,40v24h16V80z"/>
	<path style="fill:#333333;" d="M297.344,47.56c-3.52,5.288-9.416,8.44-15.768,8.44H224v16h57.576
		c11.712,0,22.584-5.816,29.08-15.56c3.52-5.288,9.416-8.44,15.768-8.44H360V32h-33.576C314.704,32,303.84,37.816,297.344,47.56z"/>
	<rect x="192" y="56" style="fill:#333333;" width="16" height="16"/>
</g>
<g>
</g>
<g>
</g>
<g>
</g>
<g>
</g>
<g>
</g>
<g>
</g>
<g>
</g>
<g>
</g>
<g>
</g>
<g>
</g>
<g>
</g>
<g>
</g>
<g>
</g>
<g>
</g>
<g>
</g>
</svg>
