<svg id="Layer_5" enable-background="new 0 0 64 64" height="512" viewBox="0 0 64 64" width="512" xmlns="http://www.w3.org/2000/svg"><g><g><g><path d="m8 63c-3.86 0-7-3.141-7-7s3.14-7 7-7 7 3.141 7 7-3.14 7-7 7zm0-9c-1.103 0-2 .897-2 2s.897 2 2 2 2-.897 2-2-.897-2-2-2z" fill="#f0bc5e"/></g></g><g><g><path d="m25 43c-3.86 0-7-3.141-7-7s3.14-7 7-7 7 3.141 7 7-3.14 7-7 7zm0-9c-1.103 0-2 .897-2 2s.897 2 2 2 2-.897 2-2-.897-2-2-2z" fill="#f0bc5e"/></g></g><g><g><path d="m43 51c-3.86 0-7-3.141-7-7s3.14-7 7-7 7 3.141 7 7-3.14 7-7 7zm0-9c-1.103 0-2 .897-2 2s.897 2 2 2 2-.897 2-2-.897-2-2-2z" fill="#f0bc5e"/></g></g><g><path d="m5 6h14v9h-14z" fill="#f0bc5e"/></g><g><path d="m36.268 42.103c.184-.653.461-1.266.815-1.827l-5.352-2.379c-.184.653-.461 1.266-.815 1.827z"/><path d="m53 19v-2.184c1.161-.414 2-1.514 2-2.816 0-1.654-1.346-3-3-3-.551 0-1-.448-1-1s.449-1 1-1 1 .448 1 1h2c0-1.302-.839-2.402-2-2.816v-2.184h-2v2.184c-1.161.414-2 1.514-2 2.816 0 1.654 1.346 3 3 3 .551 0 1 .448 1 1s-.449 1-1 1-1-.448-1-1h-2c0 1.302.839 2.402 2 2.816v2.184z"/><path d="m63 12c0-6.065-4.935-11-11-11s-11 4.935-11 11c0 .203.02.402.031.603-2.534-1.047-5.274-1.603-8.031-1.603-11.58 0-21 9.421-21 21 0 4.769 1.616 9.157 4.305 12.686l-4.585 5.395c.568.358 1.08.795 1.523 1.296l4.367-5.138c3.838 4.146 9.307 6.761 15.39 6.761 3.186 0 6.238-.7 9.082-2.067-1.013-.134-1.957-.484-2.787-1.004-.801.28-1.616.507-2.446.677.375-.518.731-1.126 1.069-1.806-.54-.572-.986-1.232-1.31-1.96-1.073 2.605-2.405 4.16-3.608 4.16-1.572 0-3.679-2.704-4.975-8.697-.597.288-1.239.492-1.915.6.744 3.369 1.779 5.981 3.029 7.701-4.023-.834-7.57-2.957-10.226-5.899l2.367-2.785c-.568-.358-1.08-.795-1.522-1.296l-2.127 2.503c-2.089-2.877-3.382-6.355-3.58-10.126h4.634c.357-.749.839-1.426 1.425-2h-6.06c.151-2.88.924-5.597 2.222-8h9.476c-.337 1.925-.555 3.959-.664 6.004.691.008 1.358.114 1.987.309.11-2.296.349-4.419.693-6.313h10.477c.424 2.355.69 5.051.741 8h-9.093c.587.574 1.068 1.251 1.425 2h7.654c-.034 1.909-.154 3.777-.374 5.567.629-.511 1.349-.91 2.129-1.18.136-1.433.235-2.891.26-4.387h4.071l-1.144 4.066c.677.089 1.324.272 1.926.54l1.297-4.607h4.827c-.154 2.987-.995 5.842-2.463 8.41.321.803.503 1.675.503 2.59 0 .114-.012.225-.017.337 2.623-3.603 4.017-7.858 4.017-12.337 0-3.127-.705-6.201-2.035-9.002.012 0 .023.002.035.002 6.065 0 11-4.935 11-11zm-36.847 9h-8.616c2.741-3.842 6.862-6.634 11.645-7.614-1.308 1.805-2.324 4.501-3.029 7.614zm2.036 0c1.191-4.987 3.089-8 4.811-8 1.765 0 3.655 3.022 4.832 8zm8.684-7.593c1.577.327 3.107.852 4.546 1.564.695 2.47 2.227 4.589 4.276 6.029h-5.831c-.692-3.107-1.695-5.79-2.991-7.593zm8.744 17.593h-4.627c-.049-2.721-.297-5.458-.734-8h7.611zm6.35 0h-4.271l2.175-7.734c1.239 2.393 1.954 5.03 2.096 7.734zm-8.967-19c0-4.963 4.038-9 9-9s9 4.037 9 9-4.038 9-9 9-9-4.037-9-9z"/><path d="m8 53c-1.654 0-3 1.346-3 3s1.346 3 3 3 3-1.346 3-3-1.346-3-3-3zm0 4c-.551 0-1-.448-1-1s.449-1 1-1 1 .448 1 1-.449 1-1 1z"/><path d="m25 33c-1.654 0-3 1.346-3 3s1.346 3 3 3 3-1.346 3-3-1.346-3-3-3zm0 4c-.551 0-1-.448-1-1s.449-1 1-1 1 .448 1 1-.449 1-1 1z"/><path d="m43 41c-1.654 0-3 1.346-3 3s1.346 3 3 3 3-1.346 3-3-1.346-3-3-3zm0 4c-.551 0-1-.448-1-1s.449-1 1-1 1 .448 1 1-.449 1-1 1z"/><path d="m5 5h14v2h-14z"/><path d="m5 9h14v2h-14z"/><path d="m9 13h2v2h-2z"/><path d="m5 13h2v2h-2z"/><path d="m17 13h2v2h-2z"/><path d="m13 13h2v2h-2z"/></g></g></svg>