<?xml version="1.0" encoding="iso-8859-1"?>
<!-- Generator: Adobe Illustrator 19.0.0, SVG Export Plug-In . SVG Version: 6.00 Build 0)  -->
<svg version="1.1" id="Capa_1" xmlns="http://www.w3.org/2000/svg" xmlns:xlink="http://www.w3.org/1999/xlink" x="0px" y="0px"
	 viewBox="0 0 496 496" style="enable-background:new 0 0 496 496;" xml:space="preserve">
<g>
	<path style="fill:#FFA64D;" d="M248,8c-53.704,0-99.608,33.112-118.608,80H80v80h336V88h-49.392C347.608,41.112,301.704,8,248,8z"
		/>
	<rect x="192" y="360" style="fill:#FFA64D;" width="112" height="128"/>
</g>
<g>
	<path style="fill:#333333;" d="M424,192v-16h16v-16h-16V96h16V80h-16h-8h-44.112C349.864,31.224,301.816,0,248,0
		S146.136,31.224,124.112,80H80h-8H56v16h16v64H56v16h16v16H0v304h72h8h336h8h72V192H424z M88,96h46.784l2.024-5
		C155.264,45.44,198.912,16,248,16s92.736,29.44,111.192,75l2.024,5H408v64H88V96z M16,480V208h56v16H32v16h40v240H16z M240,368v112
		h-40V368H240z M296,368v112h-40V368H296z M312,480V368h16v-16H168v16h16v112H88V176h320v304H312z M480,480h-56V240h40v-16h-40v-16
		h56V480z"/>
	<path style="fill:#333333;" d="M120,256h64v-64h-64V256z M136,208h32v32h-32V208z"/>
	<path style="fill:#333333;" d="M216,256h64v-64h-64V256z M232,208h32v32h-32V208z"/>
	<path style="fill:#333333;" d="M312,256h64v-64h-64V256z M328,208h32v32h-32V208z"/>
	<path style="fill:#333333;" d="M120,336h64v-64h-64V336z M136,288h32v32h-32V288z"/>
	<path style="fill:#333333;" d="M216,336h64v-64h-64V336z M232,288h32v32h-32V288z"/>
	<path style="fill:#333333;" d="M312,336h64v-64h-64V336z M328,288h32v32h-32V288z"/>
	<rect x="376" y="128" style="fill:#333333;" width="16" height="16"/>
	<rect x="136" y="128" style="fill:#333333;" width="224" height="16"/>
	<rect x="104" y="128" style="fill:#333333;" width="16" height="16"/>
</g>
<g>
</g>
<g>
</g>
<g>
</g>
<g>
</g>
<g>
</g>
<g>
</g>
<g>
</g>
<g>
</g>
<g>
</g>
<g>
</g>
<g>
</g>
<g>
</g>
<g>
</g>
<g>
</g>
<g>
</g>
</svg>
