<svg id="Layer_35" enable-background="new 0 0 64 64" height="512" viewBox="0 0 64 64" width="512" xmlns="http://www.w3.org/2000/svg"><g fill="#f0bc5e"><path d="m60 58h-16c-1.105 0-2-.895-2-2v-2h20v2c0 1.105-.895 2-2 2z"/><path d="m60 36h-16c-1.105 0-2-.895-2-2v-2h20v2c0 1.105-.895 2-2 2z"/><path d="m60 14h-16c-1.105 0-2-.895-2-2v-2h20v2c0 1.105-.895 2-2 2z"/></g><path d="m26 10h2c0-2.757-2.243-5-5-5v2c1.654 0 3 1.346 3 3z"/><path d="m60 15c1.654 0 3-1.346 3-3v-8c0-1.654-1.346-3-3-3h-16c-1.654 0-3 1.346-3 3v3h-3c-1.654 0-3 1.346-3 3v2.54c-.843-.757-1.899-1.277-3.068-1.461.043-.356.068-.717.068-1.079 0-4.962-4.038-9-9-9-3.553 0-6.722 2.069-8.175 5.242-.593-.161-1.204-.242-1.825-.242-3.161 0-5.865 2.08-6.719 5.047-2.97.357-5.281 2.888-5.281 5.953 0 3.309 2.691 6 6 6h8v18.014c0 .455-.105.91-.305 1.319l-.839-4.194c-.601-3.001-3.259-5.18-6.32-5.18-1.397 0-2.534 1.137-2.535 2.535 0 .502.147.988.426 1.406l1.029 1.543c.381.571.627 1.234.713 1.915l.691 5.534c.115.921.407 1.798.837 2.546l3.303 6.792v2.77h2v-3.23l-3.537-7.266c-.329-.576-.538-1.202-.62-1.86l-.691-5.534c-.124-.988-.481-1.948-1.033-2.776l-1.029-1.544c-.059-.088-.09-.191-.09-.297 0-.295.24-.535.535-.535 2.112 0 3.945 1.502 4.359 3.573l1.286 6.427h2.438l.854-1.708c.345-.691.528-1.464.528-2.236v-19.014c0-.551.449-1 1-1s1 .449 1 1v12 4h2v-4c0-.551.449-1 1-1s1 .449 1 1v4h2v-4c0-.551.449-1 1-1s1 .449 1 1v2 2h2v-2c0-.551.449-1 1-1s1 .449 1 1v13c0 1.075-.355 2.141-1 3l-2 2.667v3.333h2v-2.667l1.6-2.133c.903-1.204 1.4-2.695 1.4-4.2v-13c0-1.654-1.346-3-3-3-.395 0-.77.081-1.116.22-.345-1.275-1.501-2.22-2.884-2.22-.771 0-1.468.301-2 .78-.532-.48-1.229-.78-2-.78-.352 0-.686.072-1 .184v-8.184h8v5c0 1.654 1.346 3 3 3h3v19c0 1.654 1.346 3 3 3h3v3c0 1.654 1.346 3 3 3h3v2h-2v2h14v-2h-2v-2h3c1.654 0 3-1.346 3-3v-8c0-1.654-1.346-3-3-3h-16c-1.654 0-3 1.346-3 3v3h-3c-.551 0-1-.449-1-1v-19h4v3c0 1.654 1.346 3 3 3h3v2h-2v2h14v-2h-2v-2h3c1.654 0 3-1.346 3-3v-8c0-1.654-1.346-3-3-3h-16c-1.654 0-3 1.346-3 3v3h-4v-19c0-.551.449-1 1-1h3v3c0 1.654 1.346 3 3 3h3v2h-2v2h14v-2h-2v-2zm-5 46h-6v-2h6zm-12-13c0-.551.449-1 1-1h16c.551 0 1 .449 1 1v8c0 .551-.449 1-1 1h-16c-.551 0-1-.449-1-1zm12-9h-6v-2h6zm-12-13c0-.551.449-1 1-1h16c.551 0 1 .449 1 1v8c0 .551-.449 1-1 1h-16c-.551 0-1-.449-1-1zm-25-7c-1.302 0-2.402.839-2.816 2h-8.184c-2.206 0-4-1.794-4-4s1.794-4 4-4 4 1.794 4 4h2c0-2.841-1.986-5.221-4.642-5.839.738-1.877 2.546-3.161 4.642-3.161.691 0 1.365.141 2.002.42l1.008.441.343-1.045c.946-2.88 3.617-4.816 6.647-4.816 3.86 0 7 3.14 7 7 0 .373-.039.741-.097 1.105-2.786.518-4.903 2.962-4.903 5.895h2c0-2.206 1.794-4 4-4s4 1.794 4 4-1.794 4-4 4h-10.184c-.414-1.161-1.514-2-2.816-2zm14 10c-.551 0-1-.449-1-1v-5c1.538 0 2.937-.586 4-1.54v7.54zm11-17v-8c0-.551.449-1 1-1h16c.551 0 1 .449 1 1v8c0 .551-.449 1-1 1h-16c-.551 0-1-.449-1-1zm12 5h-6v-2h6z"/><path d="m11 58h20v4h-20z" fill="#f0bc5e"/></svg>