<svg id="Layer_3" enable-background="new 0 0 64 64" height="512" viewBox="0 0 64 64" width="512" xmlns="http://www.w3.org/2000/svg"><path d="m22.15 47.264-1.414-1.414-2.736 2.736-2.586-2.586 2.736-2.736-1.414-1.414-2.736 2.736-.967-.967-10.117 9.197c-1.218 1.107-1.916 2.685-1.916 4.331 0 3.228 2.625 5.853 5.853 5.853 1.646 0 3.224-.698 4.331-1.916l9.197-10.117-.967-.967zm-12.445 12.475c-.729.802-1.768 1.261-2.852 1.261-2.124 0-3.853-1.729-3.853-3.853 0-1.083.459-2.123 1.261-2.852l8.706-7.914 4.651 4.651z"/><path d="m25 21h9v9h-9z" fill="#f0bc5e"/><path d="m25 5h6v5h-6z" fill="#f0bc5e"/><path d="m25 5h2v2h-2z"/><path d="m29 5h18v2h-18z"/><path d="m51 9v-8h-30v16.032h2v-14.032h26v6h-16v5.111h2v-3.111h26v30h-14.032v2h16.032v-34z"/><path d="m43 13h16v2h-16z"/><path d="m48.974 37v2h10.026v-22h-6v4h-4v11h2v-9h2v14zm6.026-18h2v18h-2z"/><path d="m32 51c-10.477 0-19-8.523-19-19s8.523-19 19-19 19 8.523 19 19-8.523 19-19 19zm0-33c-7.72 0-14 6.28-14 14s6.28 14 14 14 14-6.28 14-14-6.28-14-14-14z" fill="#f0bc5e"/><path d="m32 17c-8.271 0-15 6.729-15 15s6.729 15 15 15 15-6.729 15-15-6.729-15-15-15zm1 2.051v1.949h-7.891c1.999-1.26 4.357-2 6.891-2 .338 0 .669.025 1 .051zm-10 3.59c.612-.589 1.283-1.115 2-1.576v1.935h8v2h-8v2h8v2h-8v2h8v2h-10zm9 22.359c-7.168 0-13-5.832-13-13 0-2.535.74-4.895 2-6.897v9.897h12v8h5.897c-2.002 1.26-4.362 2-6.897 2zm9.359-4h-6.359v-21.637c4.76 1.13 8.506 4.877 9.637 9.637h-3.637v2h-4v8h5.937c-.461.718-.989 1.388-1.578 2zm-.359-8v4h-2v-4zm2 4v-6h1.949c.026.331.051.662.051 1 0 1.771-.359 3.46-1.003 5z"/><path d="m25 9h6v2h-6z"/><circle cx="6" cy="58" r="1"/></svg>