<svg height="496pt" viewBox="0 -40 496.456 496" width="496pt" xmlns="http://www.w3.org/2000/svg"><path d="m245.832031 344.914062c4.648438 4.648438 11.078125 7.3125 17.65625 7.3125 13.464844 0 24.40625-10.734374 24.878907-24.085937 13.046874-.464844 23.535156-10.953125 24-24 13.046874-.464844 23.535156-10.953125 24-24 13.351562-.480469 24.089843-11.417969 24.089843-24.878906 0-1.136719-.183593-2.257813-.335937-3.386719l11.480468-11.480469 9.277344 18.5625 55.160156-27.578125-7.160156-14.3125-40.839844 20.425782-48.503906-97.015626 42.105469-16.511718-5.839844-14.898438-47.679687 18.699219-71.335938-21.402344c-5.351562-1.597656-10.855468-2.160156-16.3125-1.960937v-.175782h-86.71875l-36.507812-12.132812-5.046875 15.183594 29.671875 9.855468-41.871094 104.695313-24.574219-9.832031-5.9375 14.855468 39.421875 15.769532 9.898438-24.738282 14.335937 14.34375-13.375 13.378907c-4.648437 4.648437-7.3125 11.078125-7.3125 17.65625 0 13.460937 10.734375 24.40625 24.085938 24.878906.464843 13.046875 10.953125 23.535156 24 24 .464843 13.046875 10.953125 23.535156 24 24 .480469 13.351563 11.417969 24.085937 24.882812 24.085937 6.574219 0 13.007813-2.664062 17.652344-7.3125l13.378906-13.375zm6.34375-223.214843 70.671875 21.199219 41.207032 82.425781-11.597657 11.589843-32.882812-33.132812c2.9375.277344 5.898437.445312 8.882812.445312v-16c-18.625 0-36.449219-6.933593-50.175781-19.519531l-18.707031-17.136719c-10.558594-9.695312-28.46875-9.308593-38.605469.839844l-21.191406 21.195313c-1.679688 1.664062-3.992188 2.621093-6.351563 2.621093-4.945312 0-8.96875-4.023437-8.96875-8.964843 0-2.402344.925781-4.648438 2.621094-6.347657l30.496094-30.492187c8.96875-8.96875 22.417969-12.378906 34.601562-8.722656zm-94.304687-1.472657h47.273437l-29.375 29.378907c-4.722656 4.710937-7.3125 10.984375-7.3125 17.65625 0 13.765625 11.199219 24.964843 24.96875 24.964843 6.574219 0 13.007813-2.664062 17.652344-7.3125l21.195313-21.199218c4.335937-4.320313 11.972656-4.488282 16.488281-.351563l18.703125 17.144531c6.214844 5.695313 13.121094 10.433594 20.511718 14.144532l53.855469 54.261718c1.671875 1.675782 2.625 3.984376 2.625 6.347657 0 4.941406-4.023437 8.964843-8.96875 8.964843-2.359375 0-4.671875-.949218-6.34375-2.621093l-67.03125-67.035157-11.3125 11.3125 67.03125 67.03125c1.671875 1.675782 2.625 3.984376 2.625 6.347657 0 4.941406-4.023437 8.964843-8.96875 8.964843-2.359375 0-4.671875-.949218-6.34375-2.621093l-67.03125-67.035157-11.3125 11.3125 67.03125 67.03125c1.671875 1.675782 2.625 3.984376 2.625 6.347657 0 4.941406-4.023437 8.964843-8.96875 8.964843-2.359375 0-4.671875-.949218-6.34375-2.621093l-67.03125-67.035157-11.3125 11.3125 67.03125 67.03125c1.671875 1.675782 2.625 3.984376 2.625 6.347657 0 4.941406-4.023437 8.964843-8.96875 8.964843-2.359375 0-4.671875-.949218-6.34375-2.621093l-9.023437-9.027344c.160156-1.117187.335937-2.238281.335937-3.382813 0-13.464843-10.738281-24.40625-24.089843-24.878906-.464844-13.046875-10.953126-23.535156-24-24-.464844-13.046875-10.953126-23.535156-24-24-.480469-13.351562-11.414063-24.089844-24.878907-24.089844-1.136719 0-2.257812.183594-3.382812.335938l-22.839844-22.839844zm-29.414063 143.035157c0-2.363281.949219-4.671875 2.621094-6.347657l14.066406-14.0625c1.671875-1.671874 3.984375-2.625 6.34375-2.625 4.945313 0 8.96875 4.027344 8.96875 8.96875 0 2.359376-.953125 4.671876-2.625 6.34375l-14.0625 14.066407c-1.671875 1.671875-3.984375 2.621093-6.34375 2.621093-4.945312 0-8.96875-4.023437-8.96875-8.964843zm24 24c0-2.363281.949219-4.671875 2.621094-6.347657l14.066406-14.0625c1.671875-1.671874 3.984375-2.625 6.34375-2.625 4.945313 0 8.96875 4.027344 8.96875 8.96875 0 2.359376-.953125 4.671876-2.625 6.34375l-14.0625 14.066407c-1.671875 1.671875-3.984375 2.621093-6.34375 2.621093-4.945312 0-8.96875-4.023437-8.96875-8.964843zm24 24c0-2.363281.949219-4.671875 2.621094-6.347657l14.066406-14.0625c1.671875-1.671874 3.984375-2.625 6.34375-2.625 4.945313 0 8.96875 4.027344 8.96875 8.96875 0 2.359376-.953125 4.671876-2.625 6.34375l-14.0625 14.066407c-1.671875 1.671875-3.984375 2.621093-6.34375 2.621093-4.945312 0-8.96875-4.023437-8.96875-8.964843zm53.375 16.277343-14.0625 14.066407c-1.671875 1.671875-3.984375 2.621093-6.34375 2.621093-4.945312 0-8.96875-4.023437-8.96875-8.964843 0-2.363281.949219-4.671875 2.621094-6.347657l14.066406-14.0625c1.671875-1.671874 3.984375-2.625 6.34375-2.625 4.945313 0 8.96875 4.027344 8.96875 8.96875 0 2.359376-.953125 4.671876-2.625 6.34375zm0 0"/><path d="m95.71875 349.652344 11.3125-11.316406 11.3125 11.316406-11.3125 11.3125zm0 0"/><path d="m126.238281 376.71875 8.894531-13.300781 13.292969 8.886719-8.890625 13.300781zm0 0"/><path d="m161.453125 397.328125 6.125-14.78125 14.78125 6.125-6.125 14.78125zm0 0"/><path d="m200.027344 410.6875 3.125-15.683594 15.679687 3.125-3.125 15.683594zm0 0"/><path d="m348.472656 44.136719 8.894532-13.300781 13.292968 8.886718-8.894531 13.300782zm0 0"/><path d="m314.535156 27.789062 6.125-14.78125 14.78125 6.125-6.125 14.78125zm0 0"/><path d="m278.078125 18.363281 3.117187-15.695312 15.683594 3.117187-3.117187 15.691406zm0 0"/><path d="m400.457031 24.226562h-16v40h-40v16h56zm0 0"/><path d="m112.457031 304.226562h-48v48h16v-32h32zm0 0"/><path d="m248.457031 16.226562h8v-16h-8c-52.648437 0-102.882812 19.714844-141.449219 55.503907l10.886719 11.730469c35.601563-33.039063 81.960938-51.234376 130.5625-51.234376zm0 0"/><path d="m248.457031 400.226562h-8v16h8c73.128907 0 139.550781-37.320312 177.6875-99.832031l-13.65625-8.328125c-35.207031 57.707032-96.527343 92.160156-164.03125 92.160156zm0 0"/><g fill="#f0bc5e"><path d="m44.601562 291.242188-44.136718-22.0625-.464844-216.046876 126 41.871094-6.390625 12.792969zm0 0"/><path d="m461.496094 291.8125-94.015625-179.480469 128.976562-50.601562v206.777343zm0 0"/></g></svg>