<svg height="496pt" viewBox="0 0 496 496" width="496pt" xmlns="http://www.w3.org/2000/svg"><path d="m152 431.992188h192v56.007812h-192zm0 0" fill="#969faa"/><path d="m72 136h-32c-17.671875 0-32 14.328125-32 32v240c0 17.671875 14.328125 32 32 32h416c17.671875 0 32-14.328125 32-32v-240c0-17.671875-14.328125-32-32-32zm0 0" fill="#4fc1e9"/><path d="m8 408c0 17.671875 14.328125 32 32 32h416c17.671875 0 32-14.328125 32-32v-16h-480zm0 0" fill="#656d78"/><path d="m152 440h192v16h-192zm0 0" fill="#838f9b"/><path d="m424 136h-368v208h146.742188c6.601562 18.625 24.402343 32 45.257812 32s38.65625-13.375 45.257812-32h146.742188v-208zm0 0" fill="#3bafda"/><path d="m104 88h-32v240h144c0 17.671875 14.328125 32 32 32s32-14.328125 32-32h144v-240zm0 0" fill="#fcd770"/><path d="m104 8h288v288h-288zm0 0" fill="#e6e9ed"/><path d="m192 40h-32l-24 32v128l40-24 40 24v-128zm0 0" fill="#ff826e"/><path d="m296 232 12.425781 24.839844c2.191407 4.382812 6.671875 7.160156 11.574219 7.160156s9.382812-2.777344 11.574219-7.160156l12.425781-24.839844zm0 0" fill="#fcd770"/><path d="m320 104c-13.257812 0-24 10.742188-24 24v24h48v-24c0-13.257812-10.742188-24-24-24zm0 0" fill="#ccd1d9"/><path d="m296 152h48v80h-48zm0 0" fill="#a0d468"/><path d="m184 72c0 4.417969-3.582031 8-8 8s-8-3.582031-8-8 3.582031-8 8-8 8 3.582031 8 8zm0 0"/><path d="m456 128h-24v-48h-32v-80h-304v80h-32v48h-24c-22.054688 0-40 17.945312-40 40v240c0 22.054688 17.945312 40 40 40h104v32h-32v16h272v-16h-32v-32h104c22.054688 0 40-17.945312 40-40v-240c0-22.054688-17.945312-40-40-40zm-72-112v272h-128v-272zm-272 0h128v272h-128zm-32 80h16v208h304v-208h16v224h-144v8c0 13.230469-10.769531 24-24 24s-24-10.769531-24-24v-8h-144zm-40 48h24v192h144.808594c3.710937 18.230469 19.878906 32 39.191406 32s35.480469-13.769531 39.191406-32h144.808594v-192h24c13.230469 0 24 10.769531 24 24v216h-464v-216c0-13.230469 10.769531-24 24-24zm296 336h-176v-32h176zm120-48h-416c-13.230469 0-24-10.769531-24-24v-8h464v8c0 13.230469-10.769531 24-24 24zm0 0"/><path d="m196 32h-40l-28 37.335938v144.800781l48-28.800781 48 28.800781v-144.800781zm12 153.871094-32-19.199219-32 19.199219v-111.199219l20-26.671875h24l20 26.664062zm0 0"/><path d="m128 224h96v16h-96zm0 0"/><path d="m208 256h16v16h-16zm0 0"/><path d="m128 256h64v16h-64zm0 0"/><path d="m272 32h96v16h-96zm0 0"/><path d="m272 64h96v16h-96zm0 0"/><path d="m320 96c-17.648438 0-32 14.351562-32 32v105.886719l13.273438 26.546875c3.566406 7.125 10.75 11.566406 18.726562 11.566406s15.160156-4.441406 18.734375-11.574219l13.265625-26.539062v-105.886719c0-17.648438-14.351562-32-32-32zm0 16c8.824219 0 16 7.175781 16 16v16h-32v-16c0-8.824219 7.175781-16 16-16zm-16 112v-64h32v64zm11.574219 29.265625-6.628907-13.265625h22.109376l-6.628907 13.265625c-1.699219 3.375-7.160156 3.367187-8.851562 0zm0 0"/></svg>