<svg id="Layer_5" enable-background="new 0 0 64 64" height="512" viewBox="0 0 64 64" width="512" xmlns="http://www.w3.org/2000/svg"><g fill="#e6e9ed"><path d="m58 2h-20c-2.21 0-4 1.79-4 4v16c0 2.21 1.79 4 4 4h20c2.21 0 4-1.79 4-4v-16c0-2.21-1.79-4-4-4z"/><path d="m30 6v16c0 2.21-1.79 4-4 4h-20c-2.21 0-4-1.79-4-4v-16c0-2.21 1.79-4 4-4h20c2.21 0 4 1.79 4 4z"/><path d="m30 38v16c0 2.21-1.79 4-4 4h-20c-2.21 0-4-1.79-4-4v-16c0-2.21 1.79-4 4-4h20c2.21 0 4 1.79 4 4z"/></g><path d="m12.59 46.59.08.08-6.67 5.33v-12z" fill="#dfb28b"/><path d="m26 40v12l-6.67-5.33.08-.08z" fill="#dfb28b"/><path d="m26 52h-20l6.67-5.33c.89.85 2.09 1.33 3.33 1.33s2.44-.48 3.33-1.33z" fill="#d3a06c"/><path d="m26 40-6.59 6.59c-.03.03-.05.05-.08.08-.89.85-2.09 1.33-3.33 1.33s-2.44-.48-3.33-1.33c-.03-.03-.05-.05-.08-.08l-6.59-6.59z" fill="#cf9e76"/><path d="m53.9 21.1c-.58.58-1.36.9-2.17.9-.48 0-.95-.11-1.38-.32l-.42-.22h-.01c-.23-.84-1.01-1.46-1.92-1.46-.2 0-.39.03-.57.09h-.01c-1.59-1.04-3-2.28-4.21-3.71-1.21-1.44-2.21-3.05-2.96-4.8-.17-.38-.25-.79-.25-1.21v-.1c0-.81.32-1.59.9-2.17l1.39-1.39c.46-.46 1.07-.71 1.71-.71s1.25.25 1.71.71l1.76 1.76c.34.34.53.8.53 1.28v.13c0 .69-.39 1.31-1 1.62s-1 .93-1 1.62v.13c0 .48.19.94.53 1.28l.94.94c.34.34.8.53 1.28.53h.13c.69 0 1.31-.39 1.62-1s.93-1 1.62-1h.13c.48 0 .94.19 1.28.53l1.76 1.76c.46.46.71 1.07.71 1.71s-.25 1.25-.71 1.71z" fill="#ff826e"/><path d="m62 56v6h-22v-6h2 18z" fill="#fcd770"/><path d="m58 36c0-.55.22-1.05.59-1.41.36-.37.86-.59 1.41-.59 1.1 0 2 .9 2 2v12.06c0 .62-.14 1.23-.42 1.78l-1.58 3.16v3h-18v-3l-2.36-3.15c-.42-.56-.69-1.21-.77-1.9l-.71-5.67c-.11-.84-.4-1.65-.87-2.35l-1.03-1.54c-.17-.26-.26-.55-.26-.85 0-.85.69-1.54 1.54-1.54 2.59 0 4.83 1.83 5.34 4.38l1.12 5.62h1l.58-1.16c.28-.55.42-1.16.42-1.78v-17.06-4c0-.55.22-1.05.59-1.41.23-.23.51-.41.83-.5h.01c.18-.06.37-.09.57-.09.91 0 1.69.62 1.92 1.46.05.17.08.35.08.54v4 6c0-1.1.9-2 2-2 .55 0 1.05.22 1.41.59.37.36.59.86.59 1.41v2c0-1.1.9-2 2-2 .55 0 1.05.22 1.41.59.37.36.59.86.59 1.41z" fill="#f0d0b4"/><path d="m58 27c2.757 0 5-2.243 5-5v-16c0-2.757-2.243-5-5-5h-20c-2.757 0-5 2.243-5 5v16c0 2.757 2.243 5 5 5h7v16.056c0 .455-.105.91-.305 1.318l-.839-4.192c-.6-3.002-3.258-5.182-6.321-5.182-1.398 0-2.535 1.138-2.535 2.535 0 .502.147.988.426 1.406l1.029 1.544c.381.571.627 1.233.712 1.914l.708 5.671c.108.862.44 1.685.961 2.379l2.164 2.884v1.667h-2v8h24v-8h-2v-1.764l1.472-2.944c.345-.69.528-1.464.528-2.236v-12.056c0-1.654-1.346-3-3-3-.395 0-.77.081-1.116.22-.345-1.275-1.501-2.22-2.884-2.22-.395 0-.77.081-1.116.22-.345-1.275-1.501-2.22-2.884-2.22-.352 0-.686.072-1 .184v-2.184zm-20-2c-1.654 0-3-1.346-3-3v-16c0-1.654 1.346-3 3-3h20c1.654 0 3 1.346 3 3v16c0 1.654-1.346 3-3 3h-7v-2.085c.24.044.482.085.726.085 1.073 0 2.123-.435 2.882-1.194l1.392-1.392c.645-.645 1-1.502 1-2.414s-.355-1.77-1-2.414l-1.763-1.763c-.53-.531-1.236-.823-1.987-.823h-.132c-1.07 0-2.033.595-2.512 1.553-.138.276-.416.447-.724.447h-.132c-.216 0-.419-.084-.572-.237l-.94-.94c-.154-.153-.238-.356-.238-.573v-.132c0-.309.171-.586.447-.724.958-.479 1.553-1.442 1.553-2.512v-.132c0-.75-.292-1.456-.823-1.986l-1.763-1.764c-1.289-1.29-3.539-1.29-4.828 0l-1.392 1.392c-.759.759-1.194 1.809-1.194 2.977 0 .555.111 1.095.33 1.605 1.388 3.238 3.576 6.02 6.371 8.122-.431.52-.701 1.178-.701 1.904v3zm9.668-5.966c-2.88-1.944-5.128-4.645-6.5-7.848-.111-.259-.168-.535-.168-.912 0-.546.222-1.082.608-1.468l1.392-1.392c.526-.526 1.474-.526 2 0l1.763 1.763c.153.153.237.356.237.573v.132c0 .309-.171.586-.447.724-.958.479-1.553 1.442-1.553 2.512v.132c0 .75.292 1.456.823 1.986l.94.94c.53.532 1.236.824 1.987.824h.132c1.07 0 2.033-.595 2.512-1.553.138-.276.416-.447.724-.447h.132c.216 0 .419.084.572.237l1.764 1.763c.263.263.414.628.414 1s-.151.737-.414 1l-1.392 1.392c-.613.613-1.621.777-2.396.389l-.086-.043c-.478-1.023-1.51-1.738-2.712-1.738-.114 0-.222.021-.332.034zm13.332 41.966h-20v-4h20zm-9-30c.551 0 1 .449 1 1v2 6h2v-6c0-.552.449-1 1-1s1 .448 1 1v2 4h2v-4c0-.552.449-1 1-1s1 .448 1 1v12.056c0 .463-.109.928-.317 1.342l-1.683 3.366v2.236h-16v-2.333l-2.563-3.417c-.312-.417-.512-.911-.577-1.428l-.708-5.671c-.124-.988-.481-1.948-1.033-2.775l-1.029-1.544c-.059-.088-.09-.19-.09-.297 0-.295.24-.535.535-.535 2.112 0 3.946 1.503 4.36 3.574l1.285 6.426h2.438l.854-1.708c.345-.69.528-1.464.528-2.236v-21.056c0-.551.449-1 1-1s1 .449 1 1v10 8h2v-8c0-.551.449-1 1-1z"/><path d="m26 33h-20c-2.757 0-5 2.243-5 5v16c0 2.757 2.243 5 5 5h20c2.757 0 5-2.243 5-5v-16c0-2.757-2.243-5-5-5zm3 21c0 1.654-1.346 3-3 3h-20c-1.654 0-3-1.346-3-3v-16c0-1.654 1.346-3 3-3h20c1.654 0 3 1.346 3 3z"/><path d="m26 1h-20c-2.757 0-5 2.243-5 5v16c0 2.757 2.243 5 5 5h20c2.757 0 5-2.243 5-5v-16c0-2.757-2.243-5-5-5zm3 21c0 1.654-1.346 3-3 3h-20c-1.654 0-3-1.346-3-3v-16c0-1.654 1.346-3 3-3h20c1.654 0 3 1.346 3 3z"/><path d="m16 5c-4.411 0-8 3.589-8 8v2c0 4.411 3.589 8 8 8v-2c-3.309 0-6-2.691-6-6v-2c0-3.309 2.691-6 6-6s6 2.691 6 6v5c0 .551-.449 1-1 1s-1-.449-1-1v-3-1-1c0-2.206-1.794-4-4-4s-4 1.794-4 4v2c0 2.206 1.794 4 4 4 .749 0 1.442-.22 2.042-.58.207 1.455 1.448 2.58 2.958 2.58 1.654 0 3-1.346 3-3v-5c0-4.411-3.589-8-8-8zm0 12c-1.103 0-2-.897-2-2v-2c0-1.103.897-2 2-2s2 .897 2 2v1 1c0 1.103-.897 2-2 2z"/><path d="m5 53h22v-14h-22zm7.666-5.052c.971.681 2.123 1.052 3.334 1.052s2.363-.371 3.334-1.052l3.815 3.052h-14.298zm8.164-1.364 4.17-4.17v7.505zm-2.123-.705c-1.446 1.445-3.968 1.445-5.414 0l-4.879-4.879h15.172zm-7.538.704-4.169 3.336v-7.505z"/></svg>