<svg height="496pt" viewBox="0 0 496 496" width="496pt" xmlns="http://www.w3.org/2000/svg"><path d="m120 424c17.679688 0 32 14.320312 32 32s-14.320312 32-32 32-32-14.320312-32-32 14.320312-32 32-32zm0 0" fill="#838f9b"/><path d="m248 424c17.679688 0 32 14.320312 32 32s-14.320312 32-32 32-32-14.320312-32-32 14.320312-32 32-32zm0 0" fill="#838f9b"/><path d="m376 424c17.679688 0 32 14.320312 32 32s-14.320312 32-32 32-32-14.320312-32-32 14.320312-32 32-32zm0 0" fill="#838f9b"/><path d="m184 360h272c17.679688 0 32 14.320312 32 32 0 8.800781-3.601562 16.800781-9.359375 22.640625-5.839844 5.757813-13.839844 9.359375-22.640625 9.359375h-416c-17.679688 0-32-14.320312-32-32 0-8.800781 3.601562-16.800781 9.359375-22.640625 5.839844-5.757813 13.839844-9.359375 22.640625-9.359375zm0 0" fill="#fcd770"/><path d="m488 24v112c0 8.800781-7.199219 16-16 16h-128c-8.800781 0-16-7.199219-16-16v-112c0-8.800781 7.199219-16 16-16h128c8.800781 0 16 7.199219 16 16zm0 0" fill="#cf9e76"/><path d="m392 200v112c0 8.800781-7.199219 16-16 16h-128c-8.800781 0-16-7.199219-16-16v-112c0-8.800781 7.199219-16 16-16h128c8.800781 0 16 7.199219 16 16zm0 0" fill="#cf9e76"/><path d="m200 232v112c0 8.800781-7.199219 16-16 16h-128c-8.800781 0-16-7.199219-16-16v-112c0-8.800781 7.199219-16 16-16h128c8.800781 0 16 7.199219 16 16zm0 0" fill="#cf9e76"/><g fill="#e6e9ed"><path d="m88 216h64v32h-64zm0 0"/><path d="m88 328h64v32h-64zm0 0"/><path d="m280 296h64v32h-64zm0 0"/><path d="m280 184h64v32h-64zm0 0"/><path d="m376 120h64v32h-64zm0 0"/><path d="m376 8h64v32h-64zm0 0"/></g><path d="m456 352h-249.472656c.898437-2.511719 1.472656-5.183594 1.472656-8v-112c0-13.230469-10.769531-24-24-24h-128c-13.230469 0-24 10.769531-24 24v112c0 3.054688.632812 5.953125 1.671875 8.640625-19.039063 3.054687-33.671875 19.472656-33.671875 39.359375 0 22.054688 17.945312 40 40 40h48.207031c-5.078125 6.703125-8.207031 14.960938-8.207031 24s3.128906 17.296875 8.207031 24h-56.207031v16h432v-16h-56.207031c5.078125-6.703125 8.207031-14.960938 8.207031-24s-3.128906-17.296875-8.207031-24h48.207031c22.054688 0 40-17.945312 40-40s-17.945312-40-40-40zm-360-128h48v16h-48zm-48 8c0-4.40625 3.585938-8 8-8h24v32h80v-32h24c4.414062 0 8 3.59375 8 8v112c0 4.414062-3.585938 8-8 8h-24v-32h-80v32h-24c-4.414062 0-8-3.585938-8-8zm96 120h-48v-16h48zm-48 104c0-13.230469 10.769531-24 24-24s24 10.769531 24 24-10.769531 24-24 24-24-10.769531-24-24zm176 0c0 13.230469-10.769531 24-24 24s-24-10.769531-24-24 10.769531-24 24-24 24 10.769531 24 24zm7.792969-24h64.40625c-5.070313 6.703125-8.199219 14.960938-8.199219 24s3.128906 17.296875 8.207031 24h-64.40625c5.070313-6.703125 8.199219-14.960938 8.199219-24s-3.128906-17.296875-8.207031-24zm-63.585938 48h-64.40625c5.070313-6.703125 8.199219-14.960938 8.199219-24s-3.128906-17.296875-8.207031-24h64.40625c-5.070313 6.703125-8.199219 14.960938-8.199219 24s3.128906 17.296875 8.207031 24zm183.792969-24c0 13.230469-10.769531 24-24 24s-24-10.769531-24-24 10.769531-24 24-24 24 10.769531 24 24zm56-40h-416c-13.230469 0-24-10.769531-24-24s10.769531-24 24-24h416c13.230469 0 24 10.769531 24 24s-10.769531 24-24 24zm0 0"/><path d="m128 456c0 4.417969-3.582031 8-8 8s-8-3.582031-8-8 3.582031-8 8-8 8 3.582031 8 8zm0 0"/><path d="m64 392c0 4.417969-3.582031 8-8 8s-8-3.582031-8-8 3.582031-8 8-8 8 3.582031 8 8zm0 0"/><path d="m128 392c0 4.417969-3.582031 8-8 8s-8-3.582031-8-8 3.582031-8 8-8 8 3.582031 8 8zm0 0"/><path d="m192 392c0 4.417969-3.582031 8-8 8s-8-3.582031-8-8 3.582031-8 8-8 8 3.582031 8 8zm0 0"/><path d="m256 392c0 4.417969-3.582031 8-8 8s-8-3.582031-8-8 3.582031-8 8-8 8 3.582031 8 8zm0 0"/><path d="m320 392c0 4.417969-3.582031 8-8 8s-8-3.582031-8-8 3.582031-8 8-8 8 3.582031 8 8zm0 0"/><path d="m384 392c0 4.417969-3.582031 8-8 8s-8-3.582031-8-8 3.582031-8 8-8 8 3.582031 8 8zm0 0"/><path d="m448 392c0 4.417969-3.582031 8-8 8s-8-3.582031-8-8 3.582031-8 8-8 8 3.582031 8 8zm0 0"/><path d="m256 456c0 4.417969-3.582031 8-8 8s-8-3.582031-8-8 3.582031-8 8-8 8 3.582031 8 8zm0 0"/><path d="m384 456c0 4.417969-3.582031 8-8 8s-8-3.582031-8-8 3.582031-8 8-8 8 3.582031 8 8zm0 0"/><path d="m0 480h16v16h-16zm0 0"/><path d="m480 480h16v16h-16zm0 0"/><path d="m248 336h128c13.230469 0 24-10.769531 24-24v-112c0-13.230469-10.769531-24-24-24h-128c-13.230469 0-24 10.769531-24 24v112c0 13.230469 10.769531 24 24 24zm88-16h-48v-16h48zm-48-128h48v16h-48zm-48 8c0-4.40625 3.585938-8 8-8h24v32h80v-32h24c4.414062 0 8 3.59375 8 8v112c0 4.414062-3.585938 8-8 8h-24v-32h-80v32h-24c-4.414062 0-8-3.585938-8-8zm0 0"/><path d="m472 0h-128c-13.230469 0-24 10.769531-24 24v112c0 13.230469 10.769531 24 24 24h128c13.230469 0 24-10.769531 24-24v-112c0-13.230469-10.769531-24-24-24zm-88 16h48v16h-48zm48 128h-48v-16h48zm48-8c0 4.40625-3.585938 8-8 8h-24v-32h-80v32h-24c-4.414062 0-8-3.59375-8-8v-112c0-4.40625 3.585938-8 8-8h24v32h80v-32h24c4.414062 0 8 3.59375 8 8zm0 0"/></svg>