<svg id="_x33_0" enable-background="new 0 0 64 64" height="512" viewBox="0 0 64 64" width="512" xmlns="http://www.w3.org/2000/svg"><path d="m3 58h58v4h-58z" fill="#ccd1d9"/><g fill="#838f9b"><circle cx="27" cy="53" r="4"/><circle cx="17" cy="53" r="4"/><circle cx="7" cy="53" r="4"/><circle cx="57" cy="53" r="4"/><circle cx="47" cy="53" r="4"/><circle cx="37" cy="53" r="4"/></g><path d="m39 42v6h-14v-6h7z" fill="#d3a06c"/><path d="m45 35h14v13h-14z" fill="#d3a06c"/><path d="m55 35v4h-6v-4h.67z" fill="#b27946"/><path d="m14 39v2c0 1.1-.9 2-2 2-.55 0-1.05-.22-1.41-.59-.37-.36-.59-.86-.59-1.41v-2z" fill="#69d6f4"/><path d="m34 35v2c0 1.1-.9 2-2 2-.55 0-1.05-.22-1.41-.59-.37-.36-.59-.86-.59-1.41v-2z" fill="#69d6f4"/><circle cx="12" cy="31" fill="#fcd770" r="2"/><circle cx="32" cy="27" fill="#fcd770" r="2"/><path d="m24 11v4h4 4 4 4l.18-.03c.26 1.46.81 2.83 1.6 4.03h-9.78-20-2c-2.42 0-4.6-1.46-5.54-3.69l-2.3-5.54c-.55-1.32.41-2.77 1.84-2.77h37.78c-.79 1.2-1.34 2.57-1.6 4.03l-.18-.03h-4-4-4z" fill="#ccd1d9"/><path d="m40.18 11.03-.18-.03h-4-4-4-4v4h4 4 4 4l.18-.03c-.12-.64-.18-1.3-.18-1.97s.06-1.33.18-1.97z" fill="#b4dd7f"/><path d="m41.78 7c1.96-3.01 5.36-5 9.22-5 6.08 0 11 4.92 11 11s-4.92 11-11 11c-3.86 0-7.26-1.99-9.22-5-.79-1.2-1.34-2.57-1.6-4.03-.12-.64-.18-1.3-.18-1.97s.06-1.33.18-1.97c.26-1.46.81-2.83 1.6-4.03z" fill="#e6e9ed"/><path d="m53 13c0-1.1-.89-1.99-1.99-1.99s-1.99.89-1.99 1.99.89 1.99 1.99 1.99 1.99-.89 1.99-1.99zm-.44-3.89 2.86-1.63 1.1 1.09-1.62 2.87 3.14.75v1.56l-3.14.81 1.66 2.82-1.09 1.1-2.91-1.59-.71 3.11h-1.56l-.84-3.11-2.79 1.63-1.1-1.09 1.56-2.87-3.08-.75v-1.56l3.08-.81-1.6-2.82 1.09-1.1 2.84 1.59.78-3.11h1.56z" fill="#fcd770"/><path d="m56 52h2v2h-2z"/><path d="m46 52h2v2h-2z"/><path d="m36 52h2v2h-2z"/><path d="m26 52h2v2h-2z"/><path d="m16 52h2v2h-2z"/><path d="m6 52h2v2h-2z"/><path d="m62 53c0-1.641-.806-3.088-2.031-4h.031v-15h-16v15h.031c-1.225.912-2.031 2.359-2.031 4s.806 3.088 2.031 4h-4.062c1.225-.912 2.031-2.359 2.031-4s-.806-3.088-2.031-4h.031v-6.901l.98-4.902-1.961-.393-.839 4.196h-5.18v-1.184c1.161-.414 2-1.514 2-2.816v-3h-6v3c0 1.302.839 2.402 2 2.816v1.184h-5.18l-.839-4.196-1.961.393.98 4.902v6.901h.031c-1.225.912-2.031 2.359-2.031 4s.806 3.088 2.031 4h-4.062c1.225-.912 2.031-2.359 2.031-4 0-2.757-2.243-5-5-5s-5 2.243-5 5c0 1.641.806 3.088 2.031 4h-4.062c1.225-.912 2.031-2.359 2.031-4 0-2.757-2.243-5-5-5s-5 2.243-5 5c0 1.641.806 3.088 2.031 4h-2.031v6h60v-6h-2.031c1.225-.912 2.031-2.359 2.031-4zm-31-17h2v1c0 .551-.449 1-1 1s-1-.449-1-1zm-14 14c1.654 0 3 1.346 3 3s-1.346 3-3 3-3-1.346-3-3 1.346-3 3-3zm-10 0c1.654 0 3 1.346 3 3s-1.346 3-3 3-3-1.346-3-3 1.346-3 3-3zm43-14h4v2h-4zm-4 0h2v4h8v-4h2v11h-12zm1 14c1.654 0 3 1.346 3 3s-1.346 3-3 3-3-1.346-3-3 1.346-3 3-3zm-10 6c-1.654 0-3-1.346-3-3s1.346-3 3-3 3 1.346 3 3-1.346 3-3 3zm-11-13h12v4h-12zm1 7c1.654 0 3 1.346 3 3s-1.346 3-3 3-3-1.346-3-3 1.346-3 3-3zm5 3c0-1.641-.806-3.088-2.031-4h4.062c-1.225.912-2.031 2.359-2.031 4s.806 3.088 2.031 4h-4.062c1.225-.912 2.031-2.359 2.031-4zm28 8h-56v-2h56zm-10.031-4c1.225-.912 2.031-2.359 2.031-4s-.806-3.088-2.031-4h4.062c-1.225.912-2.031 2.359-2.031 4s.806 3.088 2.031 4zm7.031-1c-1.654 0-3-1.346-3-3s1.346-3 3-3 3 1.346 3 3-1.346 3-3 3z"/><path d="m51.009 15.991c1.649 0 2.991-1.342 2.991-2.991s-1.342-2.991-2.991-2.991-2.991 1.342-2.991 2.991 1.341 2.991 2.991 2.991zm0-3.982c.546 0 .991.445.991.991s-.445.991-.991.991-.991-.445-.991-.991.444-.991.991-.991z"/><path d="m45.622 15.221-1.292 2.384 2.17 2.169 2.329-1.362.699 2.588h3.118l.598-2.6 2.399 1.312 2.174-2.174-1.383-2.346 2.606-.671v-3.121l-2.619-.622 1.338-2.375-2.174-2.173-2.371 1.357-.647-2.587h-3.117l-.65 2.601-2.358-1.318-2.17 2.17 1.337 2.355-2.569.675v3.114zm1.752-2.809-.254-.967.87-.494-1.227-2.161.023-.023 2.179 1.218.488-.873.97.243.585-2.342.585 2.342.97-.243.497.868 2.191-1.254.019.02-1.245 2.208.871.491-.231.973 2.354.559-2.372.611.25.968-.861.508 1.271 2.156-.019.02-2.244-1.228-.48.877-.975-.224-.534 2.323-.637-2.359-.965.261-.505-.863-2.126 1.244-.023-.023 1.2-2.214-.879-.477.235-.972-2.311-.561z"/><path d="m11 12h2v2h-2z"/><path d="m7 12h2v2h-2z"/><path d="m15 12h2v2h-2z"/><path d="m19 12h2v2h-2z"/><path d="m10.001 20h.999v8.184c-.996.355-1.751 1.214-1.945 2.275l-4.055 3.041v6.5h2v-5.5l2.489-1.867c.536.821 1.459 1.367 2.511 1.367s1.975-.546 2.511-1.367l2.489 1.867v5.5h2v-6.5l-4.055-3.041c-.195-1.061-.949-1.92-1.945-2.275v-8.184h18v4.184c-.996.355-1.751 1.214-1.945 2.275l-4.055 3.041v6.5h2v-5.5l2.489-1.867c.536.821 1.459 1.367 2.511 1.367s1.975-.546 2.511-1.367l2.489 1.867v5.5h2v-6.5l-4.055-3.041c-.195-1.061-.949-1.92-1.945-2.275v-4.184h8.273c2.181 3.022 5.724 5 9.727 5 6.617 0 12-5.383 12-12s-5.383-12-12-12c-4.003 0-7.546 1.978-9.727 5h-37.271c-1.005 0-1.939.5-2.496 1.336s-.66 1.89-.273 2.818l2.308 5.539c1.09 2.616 3.626 4.307 6.46 4.307zm1.999 12c-.551 0-1-.449-1-1s.449-1 1-1 1 .449 1 1-.449 1-1 1zm20-4c-.551 0-1-.449-1-1s.449-1 1-1 1 .449 1 1-.449 1-1 1zm19-25c5.514 0 10 4.486 10 10s-4.486 10-10 10-10-4.486-10-10 4.486-10 10-10zm-47.83 5.445c.188-.283.492-.445.832-.445h36.104c-.294.639-.531 1.307-.711 2h-16.395v6h16.395c.179.693.416 1.361.711 2h-30.105c-2.024 0-3.836-1.208-4.615-3.077l-2.307-5.539c-.131-.314-.098-.656.091-.939zm35.881 5.555h-2.051v-2h2.051c-.028.331-.051.662-.051 1s.023.669.051 1zm-14.051 0v-2h2v2zm4-2h2v2h-2zm4 0h2v2h-2z"/><path d="m15 41v-3h-6v3c0 1.302.839 2.402 2 2.816v2.184h-2v2h6v-2h-2v-2.184c1.161-.414 2-1.514 2-2.816zm-4-1h2v1c0 .551-.449 1-1 1s-1-.449-1-1z"/></svg>