<svg id="_x33_0" enable-background="new 0 0 64 64" height="512" viewBox="0 0 64 64" width="512" xmlns="http://www.w3.org/2000/svg"><g><g><path d="m62 5v27c0 1.1-.9 2-2 2-.55 0-1.05-.22-1.41-.59-.37-.36-.59-.86-.59-1.41v-10-4-14h3c.55 0 1 .45 1 1z" fill="#e6e9ed"/><path d="m60 34c-.55 0-1.05-.22-1.41-.59-.37-.36-.59-.86-.59-1.41v-10-4-14-1c0-.55-.45-1-1-1h-31-9c-.55 0-1 .45-1 1v19 4h27c.55 0 1 .45 1 1v1h3c.55 0 1 .45 1 1v5z" fill="#f0d0b4"/><path d="m48 34v26c0 1.1-.9 2-2 2-.55 0-1.05-.22-1.41-.59-.37-.36-.59-.86-.59-1.41v-32h3c.55 0 1 .45 1 1z" fill="#ffeaa7"/><path d="m46 62h-44v-35c0-.55.45-1 1-1h13 27c.55 0 1 .45 1 1v1 32c0 .55.22 1.05.59 1.41.36.37.86.59 1.41.59z" fill="#e6e9ed"/><path d="m6 30h8v8h-8z" fill="#fcd770"/></g><g><path d="m55 9h-4v-2h4v-2h-6v6h4v2h-4v2h6z"/><path d="m43 12.236 1.382 2.764h2.618v-10h-2v6.764l-2-4-2 4v-6.764h-2v10h2.618z"/><path d="m37 13h-6v-2h4v-2h-4v-2h6v-2h-8v10h8z"/><path d="m21 7h.307l3 8h2.693v-10h-2v6.152l-2.307-6.152h-3.693v10h2z"/><path d="m61 3h-2c0-1.103-.897-2-2-2h-40c-1.103 0-2 .897-2 2v22h-12c-1.103 0-2 .897-2 2v36h45c1.654 0 3-1.346 3-3v-25h11c1.654 0 3-1.346 3-3v-27c0-1.103-.897-2-2-2zm-58 58v-34h40v33c0 .351.061.688.171 1zm44-1c0 .552-.448 1-1 1s-1-.448-1-1v-31h2zm0-33h-2c0-1.103-.897-2-2-2h-26v-22h40v29c0 .352.072.686.184 1h-8.184v-4c0-1.103-.897-2-2-2zm14 5c0 .552-.448 1-1 1s-1-.448-1-1v-27h2z"/><path d="m19 17h36v2h-36z"/><path d="m19 21h36v2h-36z"/><path d="m51 25h4v2h-4z"/><path d="m51 29h4v2h-4z"/><path d="m15 29h-10v10h10zm-2 8h-6v-6h6z"/><path d="m5 41h36v2h-36z"/><path d="m17 37h24v2h-24z"/><path d="m23 33h6v2h-6z"/><path d="m17 33h4v2h-4z"/><path d="m31 33h10v2h-10z"/><path d="m21 45h2v14h-2z"/><path d="m5 45h8v2h-8z"/><path d="m15 45h4v2h-4z"/><path d="m5 49h8v2h-8z"/><path d="m15 49h4v2h-4z"/><path d="m5 53h14v2h-14z"/><path d="m5 57h14v2h-14z"/><path d="m25 45h16v2h-16z"/><path d="m25 49h16v2h-16z"/><path d="m25 53h4v2h-4z"/><path d="m31 57h10v2h-10z"/><path d="m31 53h10v2h-10z"/><path d="m25 57h4v2h-4z"/></g></g></svg>