<?xml version="1.0" encoding="iso-8859-1"?>
<!-- Generator: Adobe Illustrator 19.0.0, SVG Export Plug-In . SVG Version: 6.00 Build 0)  -->
<svg version="1.1" id="Capa_1" xmlns="http://www.w3.org/2000/svg" xmlns:xlink="http://www.w3.org/1999/xlink" x="0px" y="0px"
	 viewBox="0 0 492.808 492.808" style="enable-background:new 0 0 492.808 492.808;" xml:space="preserve">
<path style="fill:#FFCB57;" d="M352.828,226.016c-1.792-5.472-4.016-10.736-6.592-15.8l7.648-22.952L319.94,153.32l-22.952,7.648
	c-5.064-2.576-10.328-4.8-15.8-6.592l-10.784-21.568h-48l-10.792,21.576c-5.472,1.792-10.736,4.016-15.8,6.592l-22.952-7.648
	l-33.944,33.944l7.648,22.952c-2.576,5.064-4.8,10.328-6.592,15.8l-21.568,10.784v32h88.808c-0.528-2.584-0.808-5.256-0.808-8
	c0-22.088,17.912-40,40-40s40,17.912,40,40c0,2.744-0.28,5.416-0.808,8h88.808v-32L352.828,226.016z"/>
<g>
	<polygon style="fill:#E56565;" points="270.404,108.808 254.404,108.808 254.404,44.808 261.756,44.808 246.404,25.616 
		231.052,44.808 238.404,44.808 238.404,108.808 222.404,108.808 222.404,60.808 197.756,60.808 246.404,0 295.052,60.808 
		270.404,60.808 	"/>
	<polygon style="fill:#E56565;" points="438.404,212.808 422.404,212.808 422.404,140.808 429.756,140.808 414.404,121.616 
		399.052,140.808 406.404,140.808 406.404,212.808 390.404,212.808 390.404,156.808 365.756,156.808 414.404,96 463.052,156.808 
		438.404,156.808 	"/>
	<polygon style="fill:#E56565;" points="102.404,212.808 86.404,212.808 86.404,140.808 93.756,140.808 78.404,121.616 
		63.052,140.808 70.404,140.808 70.404,212.808 54.404,212.808 54.404,156.808 29.756,156.808 78.404,96 127.052,156.808 
		102.404,156.808 	"/>
</g>
<g>
	<path style="fill:#3F3A34;" d="M406.404,476.808h-176V326.696l27.056,54.112h201.888l-48-96h-176H209.46h-128l-48,96h153.888
		l27.056-54.112v150.112h-128v-80h-16v96h352v-96h-16V476.808z M177.46,364.808H59.348l32-64H209.46L177.46,364.808z
		 M401.46,300.808l32,64H267.348l-32-64H401.46z"/>
	<path style="fill:#3F3A34;" d="M246.404,204.808c-30.872,0-56,25.12-56,56h16c0-22.056,17.944-40,40-40s40,17.944,40,40h16
		C302.404,229.928,277.276,204.808,246.404,204.808z"/>
	<path style="fill:#3F3A34;" d="M334.404,260.808c0-48.52-39.48-88-88-88s-88,39.48-88,88h16c0-39.696,32.296-72,72-72
		s72,32.304,72,72H334.404z"/>
	<path style="fill:#3F3A34;" d="M382.404,268.808v-36.944l-23.08-11.536c-1.664-4.6-3.664-9.208-5.96-13.736l-14.264,7.256
		c2.472,4.84,4.52,9.776,6.128,14.656l1.04,3.176l20.136,10.072v27.056H382.404z"/>
	<path style="fill:#3F3A34;" d="M126.404,241.752l20.144-10.072l1.04-3.176c1.6-4.88,3.656-9.816,6.128-14.656l1.512-2.984
		l-7.152-21.432l26.952-26.952l21.432,7.152l2.984-1.512c4.848-2.472,9.784-4.528,14.656-6.128l3.176-1.032l10.072-20.152h38.112
		l10.072,20.144l3.176,1.032c4.872,1.6,9.808,3.656,14.656,6.128l2.984,1.512l21.432-7.152l30.456,30.448l11.312-11.312
		l-37.44-37.44l-24.528,8.176c-3.544-1.68-7.12-3.176-10.688-4.464l-11.544-23.072H217.46l-11.536,23.08
		c-3.568,1.288-7.144,2.784-10.688,4.464l-24.528-8.176l-40.936,40.936l8.184,24.528c-1.688,3.536-3.176,7.112-4.472,10.688
		l-23.08,11.536v36.944h16V241.752z"/>
	<rect x="238.404" y="148.808" style="fill:#3F3A34;" width="16" height="16"/>
	
		<rect x="164.87" y="179.266" transform="matrix(-0.7071 0.7071 -0.7071 -0.7071 427.5246 197.4447)" style="fill:#3F3A34;" width="16" height="16"/>
	<rect x="134.404" y="252.808" style="fill:#3F3A34;" width="16" height="16"/>
	<rect x="342.404" y="252.808" style="fill:#3F3A34;" width="16" height="16"/>
	
		<rect x="311.926" y="179.258" transform="matrix(-0.7071 0.7071 -0.7071 -0.7071 678.5585 93.4485)" style="fill:#3F3A34;" width="16" height="16"/>
	<rect x="166.404" y="28.808" style="fill:#3F3A34;" width="16" height="48"/>
	<rect x="166.404" y="92.808" style="fill:#3F3A34;" width="16" height="16"/>
	<rect x="310.404" y="28.808" style="fill:#3F3A34;" width="16" height="64"/>
	<rect x="310.404" y="108.808" style="fill:#3F3A34;" width="16" height="16"/>
	<rect x="374.404" y="444.808" style="fill:#3F3A34;" width="16" height="16"/>
	<rect x="310.404" y="444.808" style="fill:#3F3A34;" width="48" height="16"/>
</g>
<g>
</g>
<g>
</g>
<g>
</g>
<g>
</g>
<g>
</g>
<g>
</g>
<g>
</g>
<g>
</g>
<g>
</g>
<g>
</g>
<g>
</g>
<g>
</g>
<g>
</g>
<g>
</g>
<g>
</g>
</svg>
